<svg xmlns="http://www.w3.org/2000/svg" width="99" height="99" viewBox="0 0 99 99">
    <g fill="none" fill-rule="evenodd">
        <g fill="#FF7D84">
            <path d="M66.673 98c-4.4 0-7.98-3.623-7.98-8.077s3.58-8.077 7.98-8.077 7.98 3.623 7.98 8.077S71.074 98 66.674 98zM44.327 98c-4.4 0-7.98-3.623-7.98-8.077s3.58-8.077 7.98-8.077 7.98 3.623 7.98 8.077S48.728 98 44.328 98zM21.98 98c-4.4 0-7.98-3.623-7.98-8.077s3.58-8.077 7.98-8.077c4.401 0 7.982 3.623 7.982 8.077S26.382 98 21.98 98zM89.02 98c-4.401 0-7.982-3.623-7.982-8.077s3.58-8.077 7.981-8.077c4.4 0 7.981 3.623 7.981 8.077S93.42 98 89.02 98zM66.673 56h12.77v6.462h-12.77zM31.558 65.692h12.769v6.462h-12.77z"/>
        </g>
        <path fill="#1C1E21" d="M87.823 12.696C93.986 12.696 99 7.713 99 1.587V0H0v1.587c0 6.126 5.014 11.109 11.177 11.109h3.194v9.521C6.448 22.217 0 28.626 0 36.5s6.448 14.283 14.371 14.283h1.597v-4.155l-2.36-1.173A7.195 7.195 0 0 1 9.58 38.98c0-3.991 3.268-7.24 7.284-7.24h10.978c4.017 0 7.286 3.249 7.286 7.24a7.197 7.197 0 0 1-4.027 6.476l-2.36 1.173v4.155h1.597c7.923 0 14.37-6.409 14.37-14.283s-6.447-14.283-14.37-14.283v-9.521H63.87v25.391h-1.597c-7.923 0-14.37 6.408-14.37 14.283 0 7.338 5.6 13.395 12.773 14.189V73h25.549v-6.441C93.4 65.765 99 59.708 99 52.369c0-7.874-6.448-14.282-14.371-14.282h-1.597V12.696h4.79zM3.355 3.174h92.292c-.743 3.617-3.968 6.348-7.824 6.348H11.177c-3.856 0-7.081-2.731-7.822-6.348zM41.516 36.5c0 4.474-2.674 8.338-6.518 10.096a10.327 10.327 0 0 0 3.325-7.617c0-5.742-4.701-10.414-10.478-10.414H16.867c-5.779 0-10.48 4.672-10.48 10.414a10.33 10.33 0 0 0 3.325 7.617C5.868 44.838 3.194 40.974 3.194 36.5c0-6.126 5.013-11.109 11.177-11.109h15.968c6.163 0 11.177 4.983 11.177 11.109zm-14.37-14.283h-9.581v-9.521h9.58v9.521zm59.08 39.674v-7.934H60.677v7.934a7.956 7.956 0 0 1-3.193-6.348c0-4.375 3.581-7.934 7.984-7.934h15.967c4.403 0 7.984 3.56 7.984 7.934a7.958 7.958 0 0 1-3.193 6.348zm-3.194 7.935H63.871V57.13h19.161v12.696zM95.806 52.37c0 3.872-2.005 7.282-5.036 9.272a11.096 11.096 0 0 0 1.843-6.099c0-6.125-5.014-11.108-11.178-11.108H65.468c-6.164 0-11.178 4.983-11.178 11.108 0 2.184.66 4.306 1.843 6.1-3.03-1.99-5.036-5.401-5.036-9.273 0-6.126 5.014-11.11 11.177-11.11H84.63c6.164 0 11.177 4.984 11.177 11.11zM79.84 38.087H67.065V12.696h12.774v25.391z"/>
        <path fill="#1C1E21" d="M89.42 80H51.096V64.167H25.548V80h-3.437l-3.194-19H0v38h89.42c5.283 0 9.58-4.26 9.58-9.5S94.703 80 89.42 80zM28.741 67.333h19.161V80H28.742V67.333zM3.194 64.167h13.018L18.874 80H3.194V64.167zm86.225 31.666H3.194V83.167h86.225c3.523 0 6.387 2.84 6.387 6.333 0 3.493-2.864 6.333-6.387 6.333zM70 22h3v3h-3zM70 16h3v3h-3zM70 29h3v3h-3z"/>
        <path fill="#000" fill-rule="nonzero" d="M88 88h3v3h-3zM66 88h3v3h-3zM43 88h3v3h-3zM21 88h3v3h-3z"/>
    </g>
</svg>
