<svg xmlns="http://www.w3.org/2000/svg" width="114" height="114" viewBox="0 0 114 114">
    <g fill="none" fill-rule="evenodd" opacity=".504">
        <g fill="#FFBCBC">
            <path d="M34.595 20.402h8.87v8.87h-8.87zM70.076 20.402h8.87v8.87h-8.87zM52.335 20.402h8.87v8.87h-8.87zM34.595 84.269h8.87v8.87h-8.87zM70.076 84.269h8.87v8.87h-8.87zM52.335 84.269h8.87v8.87h-8.87zM84.269 34.595h8.87v8.87h-8.87zM84.269 70.076h8.87v8.87h-8.87zM84.269 52.335h8.87v8.87h-8.87zM20.402 34.595h8.87v8.87h-8.87zM20.402 70.076h8.87v8.87h-8.87zM20.402 52.335h8.87v8.87h-8.87z"/>
        </g>
        <path fill="#EB595E" d="M29.272 29.272H84.27V84.27H29.272z"/>
        <path fill="#FFBCBC" d="M38.143 38.143h37.255v37.255H38.143z"/>
        <path fill="#3D202C" d="M75.398 35.925H38.143a2.217 2.217 0 0 0-2.218 2.218v37.255c0 1.225.993 2.218 2.218 2.218h37.255a2.217 2.217 0 0 0 2.218-2.218V38.143a2.217 2.217 0 0 0-2.218-2.218zm-2.217 37.256H40.36V40.36h32.82v32.82z"/>
        <path fill="#3D202C" d="M56.505 50.118h9.136a2.217 2.217 0 1 0 0-4.435h-9.136a2.217 2.217 0 1 0 0 4.435zM46.719 50.118c.583 0 1.154-.238 1.567-.65.412-.412.65-.985.65-1.568 0-.583-.237-1.155-.65-1.568a2.233 2.233 0 0 0-1.567-.65 2.23 2.23 0 0 0-1.568.65c-.413.413-.65.985-.65 1.568 0 .583.236 1.156.65 1.568.412.412.982.65 1.568.65zM46.718 58.988H65.64a2.217 2.217 0 1 0 0-4.435H46.718a2.217 2.217 0 1 0 0 4.435zM46.719 63.423c-.584 0-1.156.238-1.568.65-.415.412-.65.985-.65 1.568 0 .583.235 1.156.65 1.568.412.412.984.65 1.568.65.583 0 1.154-.238 1.567-.65.412-.412.65-.985.65-1.568 0-.583-.237-1.156-.65-1.568a2.236 2.236 0 0 0-1.567-.65zM55.852 63.423c-.583 0-1.155.238-1.568.65-.412.412-.65.985-.65 1.568 0 .583.238 1.156.65 1.568.413.412.985.65 1.568.65.583 0 1.156-.238 1.568-.65.415-.412.65-.985.65-1.568 0-.583-.235-1.156-.65-1.568a2.235 2.235 0 0 0-1.568-.65z"/>
        <path fill="#570025" d="M65.641 63.423c-.583 0-1.156.238-1.568.65-.412.412-.65.985-.65 1.568 0 .583.238 1.156.65 1.568.412.412.985.65 1.568.65.583 0 1.156-.238 1.568-.65.412-.412.65-.985.65-1.568 0-.583-.238-1.156-.65-1.568a2.235 2.235 0 0 0-1.568-.65zM56.8 4.435c.583 0 1.152-.237 1.567-.65.412-.412.65-.984.65-1.567s-.238-1.156-.65-1.568A2.238 2.238 0 0 0 56.8 0c-.585 0-1.155.237-1.568.65-.412.412-.65.985-.65 1.568 0 .583.238 1.155.65 1.568.413.412.985.65 1.568.65z"/>
        <path fill="#3D202C" d="M93.14 63.423a2.217 2.217 0 0 0 2.217-2.217v-2.19h15.967a2.218 2.218 0 0 0 0-4.434H95.357v-2.247a2.217 2.217 0 0 0-2.218-2.217h-6.653v-4.435h6.653a2.217 2.217 0 0 0 2.218-2.218v-2.218h10.423a2.217 2.217 0 0 0 2.217-2.217v-5.1h3.327a2.217 2.217 0 1 0 0-4.436h-5.544a2.217 2.217 0 0 0-2.218 2.218v5.1h-8.205v-2.217a2.217 2.217 0 0 0-2.218-2.218h-6.653v-3.105a2.217 2.217 0 0 0-2.217-2.217h-3.105v-6.653a2.217 2.217 0 0 0-2.217-2.218h-2.218V9.98h5.1a2.217 2.217 0 0 0 2.218-2.217V2.218a2.217 2.217 0 1 0-4.435 0v3.326h-5.1a2.217 2.217 0 0 0-2.218 2.218v10.422h-2.218a2.217 2.217 0 0 0-2.217 2.218v6.653h-4.436v-6.653a2.217 2.217 0 0 0-2.217-2.218h-2.19v-7.078a2.219 2.219 0 0 0-4.434 0v7.078h-2.247a2.217 2.217 0 0 0-2.217 2.218v6.653h-4.435v-6.653a2.217 2.217 0 0 0-2.218-2.218h-2.218V7.762a2.217 2.217 0 0 0-2.217-2.218h-5.1V2.218a2.217 2.217 0 1 0-4.436 0v5.544c0 1.224.993 2.217 2.218 2.217h5.1v8.205h-2.217a2.217 2.217 0 0 0-2.218 2.218v6.653h-3.105a2.217 2.217 0 0 0-2.217 2.217v3.105h-6.653a2.217 2.217 0 0 0-2.218 2.218v2.217H9.98v-5.1a2.217 2.217 0 0 0-2.217-2.218H2.218a2.217 2.217 0 1 0 0 4.435h3.326v5.1c0 1.226.993 2.218 2.218 2.218h10.422v2.218c0 1.225.993 2.218 2.218 2.218h6.653v4.435h-6.653a2.217 2.217 0 0 0-2.218 2.217v2.247H2.218a2.217 2.217 0 1 0 0 4.435h15.966v2.189c0 1.225.993 2.217 2.218 2.217h6.653v4.436h-6.653a2.217 2.217 0 0 0-2.218 2.217v2.218H7.762a2.217 2.217 0 0 0-2.218 2.217v5.1H2.218a2.217 2.217 0 1 0 0 4.436h5.544a2.217 2.217 0 0 0 2.217-2.218v-5.1h8.205v2.218c0 1.224.993 2.217 2.218 2.217h6.653v3.105c0 1.225.992 2.217 2.217 2.217h3.105v6.653c0 1.225.993 2.218 2.218 2.218h2.217v8.205h-5.1a2.217 2.217 0 0 0-2.218 2.218v5.544a2.217 2.217 0 1 0 4.435 0v-3.327h5.1a2.217 2.217 0 0 0 2.218-2.217V95.357h2.218a2.217 2.217 0 0 0 2.218-2.218v-6.653h4.435v6.653c0 1.225.992 2.218 2.217 2.218h2.247v15.967a2.217 2.217 0 1 0 4.435 0V95.357h2.189a2.217 2.217 0 0 0 2.217-2.218v-6.653h4.436v6.653c0 1.225.992 2.218 2.217 2.218h2.218v10.423c0 1.224.992 2.217 2.217 2.217h5.1v3.327a2.217 2.217 0 1 0 4.436 0v-5.544a2.217 2.217 0 0 0-2.218-2.218h-5.1v-8.205h2.218a2.217 2.217 0 0 0 2.217-2.218v-6.653h3.105a2.217 2.217 0 0 0 2.217-2.217v-3.105h6.653a2.217 2.217 0 0 0 2.218-2.217v-2.218h8.205v5.1c0 1.225.993 2.218 2.218 2.218h5.544a2.217 2.217 0 1 0 0-4.435h-3.327v-5.1a2.217 2.217 0 0 0-2.217-2.218H95.357v-2.218a2.217 2.217 0 0 0-2.218-2.217h-6.653v-4.436h6.653zm-2.218-8.87v4.435h-4.436v-4.435h4.436zm0-17.74v4.434h-4.436v-4.435h4.436zM72.294 22.62h4.435v4.435h-4.435V22.62zm-17.741 0h4.435v4.435h-4.435V22.62zm-17.74 0h4.434v4.435h-4.435V22.62zM22.62 41.247v-4.435h4.435v4.435H22.62zm0 17.741v-4.435h4.435v4.435H22.62zm0 17.741v-4.435h4.435v4.435H22.62zm18.627 14.193h-4.435v-4.436h4.435v4.436zm17.741 0h-4.435v-4.436h4.435v4.436zm17.741 0h-4.435v-4.436h4.435v4.436zm5.322-8.87H31.49V31.49H82.05V82.05zm8.87-9.758v4.435h-4.435v-4.435h4.436z"/>
    </g>
</svg>
