<svg width="462" height="247" viewBox="0 0 462 247" fill="none" xmlns="http://www.w3.org/2000/svg">
<g filter="url(#filter0_d)">
<rect x="253" y="24" width="205" height="205" fill="#670633"/>
<path d="M106.5 229C163.109 229 209 183.109 209 126.5C209 69.8908 163.109 24 106.5 24C49.8908 24 4 69.8908 4 126.5C4 183.109 49.8908 229 106.5 229Z" fill="#670633"/>
<path opacity="0.504" fill-rule="evenodd" clip-rule="evenodd" d="M74.792 209.239H137.391C142.89 209.239 147.348 204.848 147.348 199.431C147.348 194.015 142.89 189.624 137.39 189.624H74.792C69.2917 189.624 64.8337 194.015 64.8337 199.431C64.8337 204.848 69.2922 209.239 74.792 209.239Z" fill="#FFBCBC"/>
<g opacity="0.504">
<path opacity="0.504" fill-rule="evenodd" clip-rule="evenodd" d="M84.5537 199.404C84.5537 196.278 82.0319 193.743 78.9215 193.743C75.811 193.743 73.2897 196.278 73.2897 199.404C73.2897 202.529 75.811 205.064 78.9215 205.064C82.0319 205.064 84.5537 202.529 84.5537 199.404V199.404ZM101.45 199.404C101.45 196.278 98.9286 193.743 95.8182 193.743C92.7078 193.743 90.1859 196.278 90.1859 199.404C90.1859 202.529 92.7078 205.064 95.8182 205.064C98.9286 205.064 101.45 202.529 101.45 199.404V199.404ZM126.795 199.404C126.795 196.278 129.317 193.743 132.427 193.743C135.537 193.743 138.059 196.278 138.059 199.404C138.059 202.529 135.537 205.064 132.427 205.064C129.317 205.064 126.795 202.529 126.795 199.404" fill="#EB595E"/>
</g>
<path opacity="0.504" fill-rule="evenodd" clip-rule="evenodd" d="M117.343 222.316H94.8392C94.8392 217.803 98.6182 214.143 103.278 214.143H108.904C113.564 214.143 117.343 217.803 117.343 222.316" fill="#FFBCBC"/>
<path opacity="0.504" fill-rule="evenodd" clip-rule="evenodd" d="M102.757 214.501H108.591C109.615 214.501 110.596 214.668 111.509 214.96V209.239H99.8399V214.96C100.753 214.668 101.734 214.501 102.757 214.501Z" fill="#FFBCBC"/>
<path opacity="0.504" fill-rule="evenodd" clip-rule="evenodd" d="M137.381 188.904H133.147C138.603 188.904 143.026 193.255 143.026 198.621C143.026 203.987 138.603 208.337 133.147 208.337H137.381C142.837 208.337 147.26 203.987 147.26 198.621C147.26 193.255 142.838 188.904 137.381 188.904V188.904ZM109.152 213.89H104.919C109.595 213.89 113.387 217.619 113.387 222.218H117.622C117.622 217.619 113.829 213.89 109.153 213.89" fill="#EB595E"/>
<path opacity="0.504" fill-rule="evenodd" clip-rule="evenodd" d="M107.741 208.338V213.89H109.152C110.143 213.89 111.091 214.066 111.975 214.374V208.338H107.741Z" fill="#EB595E"/>
<g opacity="0.504">
<path opacity="0.504" d="M74.8019 188.904H79.0361C73.5793 188.904 69.1558 193.255 69.1558 198.621C69.1558 203.987 73.5793 208.337 79.0361 208.337H74.8019C69.3451 208.337 64.9217 203.987 64.9217 198.621C64.9217 193.255 69.3451 188.904 74.8019 188.904V188.904ZM103.03 213.89H107.264C102.587 213.89 98.7956 217.619 98.7956 222.218H94.5614C94.5614 217.619 98.3524 213.89 103.03 213.89Z" fill="white"/>
<path opacity="0.504" d="M104.441 208.338V213.89H103.03C102.038 213.89 101.091 214.066 100.207 214.374V208.338H104.441Z" fill="white"/>
</g>
<path opacity="0.504" fill-rule="evenodd" clip-rule="evenodd" d="M75.3134 190.765C70.6335 190.765 66.8282 194.484 66.8282 199.058C66.8282 203.632 70.6335 207.352 75.3134 207.352H137.537C142.217 207.352 146.022 203.632 146.022 199.058C146.022 194.484 142.217 190.765 137.537 190.765H75.3134ZM137.536 210.117H75.3139C69.0753 210.117 64 205.155 64 199.058C64 192.961 69.0753 188 75.3134 188H137.537C143.775 188 148.85 192.961 148.85 199.058C148.85 205.156 143.775 210.117 137.537 210.117L137.536 210.117Z" fill="#3D202C"/>
<path opacity="0.504" fill-rule="evenodd" clip-rule="evenodd" d="M79.556 194.912C77.217 194.912 75.3134 196.772 75.3134 199.058C75.3134 201.345 77.217 203.205 79.556 203.205C81.895 203.205 83.7986 201.345 83.7986 199.058C83.7986 196.772 81.895 194.912 79.556 194.912V194.912ZM79.556 205.97C75.6569 205.97 72.4852 202.869 72.4852 199.058C72.4852 195.247 75.6569 192.147 79.556 192.147C83.4551 192.147 86.6268 195.247 86.6268 199.058C86.6268 202.869 83.4546 205.97 79.556 205.97ZM96.5258 194.912C94.1869 194.912 92.2833 196.772 92.2833 199.058C92.2833 201.345 94.1869 203.205 96.5258 203.205C98.8648 203.205 100.768 201.345 100.768 199.058C100.768 196.772 98.8648 194.912 96.5258 194.912V194.912ZM96.5258 205.97C92.6267 205.97 89.455 202.869 89.455 199.058C89.455 195.247 92.6272 192.147 96.5258 192.147C100.425 192.147 103.597 195.247 103.597 199.058C103.597 202.869 100.424 205.97 96.5258 205.97ZM134.708 199.058C134.708 198.296 134.075 197.676 133.295 197.676C132.921 197.675 132.562 197.82 132.297 198.079C132.032 198.338 131.882 198.69 131.88 199.058C131.882 199.426 132.032 199.778 132.297 200.037C132.562 200.297 132.921 200.441 133.294 200.44C133.668 200.442 134.027 200.297 134.292 200.038C134.557 199.779 134.707 199.427 134.709 199.059" fill="#3D202C"/>
<path opacity="0.504" fill-rule="evenodd" clip-rule="evenodd" d="M97.9402 199.058C97.9386 198.69 97.7888 198.338 97.5236 198.079C97.2584 197.82 96.8995 197.675 96.5258 197.676C96.1523 197.675 95.7935 197.82 95.5284 198.079C95.2633 198.338 95.1136 198.691 95.112 199.058C95.1136 199.426 95.2633 199.778 95.5284 200.037C95.7935 200.297 96.1523 200.441 96.5258 200.44C96.8995 200.442 97.2583 200.297 97.5236 200.038C97.7888 199.779 97.9386 199.427 97.9402 199.059V199.058ZM80.9704 199.058C80.9688 198.69 80.8189 198.338 80.5537 198.079C80.2885 197.82 79.9297 197.675 79.556 197.676C79.1823 197.675 78.8235 197.82 78.5583 198.079C78.293 198.338 78.1432 198.69 78.1416 199.058C78.1432 199.426 78.293 199.778 78.5583 200.038C78.8235 200.297 79.1823 200.442 79.556 200.44C79.9295 200.442 80.2883 200.297 80.5534 200.038C80.8185 199.779 80.9683 199.427 80.9699 199.059L80.9704 199.058ZM133.294 194.912C130.955 194.912 129.052 196.772 129.052 199.058C129.052 201.345 130.955 203.205 133.294 203.205C135.633 203.205 137.537 201.345 137.537 199.058C137.537 196.772 135.633 194.912 133.294 194.912V194.912ZM133.294 205.97C129.395 205.97 126.223 202.869 126.223 199.058C126.223 195.247 129.395 192.147 133.294 192.147C137.193 192.147 140.365 195.247 140.365 199.058C140.365 202.869 137.193 205.97 133.294 205.97ZM96.6682 221.175H116.182C115.525 218.025 112.668 215.646 109.253 215.646H103.596C100.182 215.646 97.3245 218.025 96.6677 221.175H96.6682ZM117.738 223.94H95.111C94.7373 223.941 94.3785 223.796 94.1134 223.536C93.8483 223.277 93.6986 222.925 93.6971 222.557C93.6971 217.222 98.1389 212.881 103.596 212.881H109.253C114.711 212.881 119.152 217.222 119.152 222.558C119.151 222.74 119.114 222.92 119.043 223.088C118.971 223.256 118.867 223.408 118.735 223.537C118.604 223.665 118.448 223.767 118.277 223.836C118.106 223.905 117.923 223.94 117.738 223.939" fill="#3D202C"/>
<path opacity="0.504" fill-rule="evenodd" clip-rule="evenodd" d="M103.597 212.881H109.253C109.726 212.881 110.198 212.914 110.667 212.984V210.117H102.182V212.984C102.651 212.915 103.123 212.881 103.597 212.881V212.881ZM112.082 216.128C111.924 216.128 111.764 216.102 111.611 216.049C110.854 215.784 110.057 215.648 109.254 215.646H103.596C102.793 215.647 101.996 215.784 101.239 216.049C101.026 216.122 100.798 216.145 100.574 216.114C100.35 216.084 100.137 216.002 99.952 215.874C99.7676 215.747 99.617 215.578 99.5129 215.382C99.4088 215.185 99.3543 214.967 99.3541 214.746V208.735C99.3556 208.367 99.5053 208.015 99.7703 207.756C100.035 207.497 100.394 207.352 100.767 207.353H112.081C112.862 207.353 113.495 207.972 113.495 208.735V214.747C113.495 215.194 113.272 215.616 112.897 215.874C112.658 216.04 112.373 216.129 112.081 216.129" fill="#3D202C"/>
<g opacity="0.504">
<path opacity="0.504" fill-rule="evenodd" clip-rule="evenodd" d="M121.715 82.2977C121.715 83.489 121.251 84.6315 120.425 85.4739C119.599 86.3163 118.478 86.7895 117.31 86.7895H90.8745C89.706 86.7895 88.5853 86.3163 87.7591 85.4739C86.9328 84.6315 86.4686 83.489 86.4686 82.2977V46.3628C86.4686 45.1715 86.9328 44.029 87.7591 43.1866C88.5853 42.3442 89.706 41.871 90.8745 41.871H117.31C118.478 41.871 119.599 42.3442 120.425 43.1866C121.251 44.029 121.715 45.1715 121.715 46.3628V82.2977Z" fill="#FFBCBC"/>
<path opacity="0.504" fill-rule="evenodd" clip-rule="evenodd" d="M112.904 27.4973L117.31 41.871H90.8745L95.2803 27.4973H112.904ZM117.31 86.7895L112.904 101.164H95.2803L90.8745 86.7895H117.31Z" fill="#EB595E"/>
<path opacity="0.504" fill-rule="evenodd" clip-rule="evenodd" d="M95.2803 59.8384H112.904V68.8221H95.2803V59.8384Z" fill="#FF7D84"/>
<path opacity="0.504" d="M112.904 53.1006C114.12 53.1006 115.107 52.0951 115.107 50.8547C115.107 49.6143 114.12 48.6088 112.904 48.6088C111.687 48.6088 110.701 49.6143 110.701 50.8547C110.701 52.0951 111.687 53.1006 112.904 53.1006Z" fill="#3D202C"/>
<path opacity="0.504" d="M104.092 53.1006C105.309 53.1006 106.295 52.0951 106.295 50.8547C106.295 49.6143 105.309 48.6088 104.092 48.6088C102.875 48.6088 101.889 49.6143 101.889 50.8547C101.889 52.0951 102.875 53.1006 104.092 53.1006Z" fill="#3D202C"/>
<path opacity="0.504" d="M95.2803 53.1006C96.4969 53.1006 97.4832 52.0951 97.4832 50.8547C97.4832 49.6143 96.4969 48.6088 95.2803 48.6088C94.0637 48.6088 93.0774 49.6143 93.0774 50.8547C93.0774 52.0951 94.0637 53.1006 95.2803 53.1006Z" fill="#3D202C"/>
<path opacity="0.504" fill-rule="evenodd" clip-rule="evenodd" d="M93.8117 59.8384V68.8221C93.8117 69.2192 93.9664 69.6001 94.2418 69.8808C94.5173 70.1616 94.8908 70.3194 95.2803 70.3194H112.904C113.293 70.3194 113.667 70.1616 113.942 69.8808C114.218 69.6001 114.372 69.2192 114.372 68.8221V59.8384C114.372 59.4413 114.218 59.0605 113.942 58.7797C113.667 58.4989 113.293 58.3411 112.904 58.3411H95.2803C94.8908 58.3411 94.5173 58.4989 94.2418 58.7797C93.9664 59.0605 93.8117 59.4413 93.8117 59.8384ZM96.7489 61.3357H111.435V67.3248H96.7489V61.3357V61.3357ZM112.904 76.3085H95.2803C94.8908 76.3085 94.5173 76.4663 94.2418 76.7471C93.9664 77.0279 93.8117 77.4087 93.8117 77.8058C93.8117 78.2029 93.9664 78.5838 94.2418 78.8646C94.5173 79.1453 94.8908 79.3031 95.2803 79.3031H112.904C113.293 79.3031 113.667 79.1453 113.942 78.8646C114.218 78.5838 114.372 78.2029 114.372 77.8058C114.372 77.4087 114.218 77.0279 113.942 76.7471C113.667 76.4663 113.293 76.3085 112.904 76.3085Z" fill="#3D202C"/>
<path opacity="0.504" d="M86.4686 65.8276C87.2797 65.8276 87.9372 65.1572 87.9372 64.3303C87.9372 63.5033 87.2797 62.833 86.4686 62.833C85.6575 62.833 85 63.5033 85 64.3303C85 65.1572 85.6575 65.8276 86.4686 65.8276Z" fill="#3D202C"/>
<path opacity="0.504" fill-rule="evenodd" clip-rule="evenodd" d="M86.4686 59.0898C86.8581 59.0898 87.2317 58.932 87.5071 58.6512C87.7825 58.3704 87.9372 57.9896 87.9372 57.5925V46.3628C87.9382 45.5698 88.2474 44.8094 88.7971 44.2483C89.3468 43.6872 90.0922 43.3709 90.8701 43.3688H117.313C118.091 43.3708 118.837 43.6869 119.387 44.2481C119.936 44.8093 120.246 45.5697 120.247 46.3628V82.2977C120.246 83.091 119.937 83.8517 119.387 84.413C118.837 84.9743 118.091 85.2905 117.313 85.2922H117.306H90.8701C90.0921 85.2902 89.3466 84.9739 88.7969 84.4126C88.2472 83.8513 87.9381 83.0908 87.9372 82.2977V71.068C87.9372 70.6709 87.7825 70.2901 87.5071 70.0093C87.2317 69.7285 86.8581 69.5708 86.4686 69.5708C86.0791 69.5708 85.7056 69.7285 85.4301 70.0093C85.1547 70.2901 85 70.6709 85 71.068V82.2977C85 85.2124 87.0524 87.6455 89.7614 88.1778L93.8784 101.611C93.9718 101.915 94.1582 102.181 94.4104 102.37C94.6625 102.559 94.9673 102.661 95.2803 102.661H112.904C113.217 102.661 113.522 102.559 113.774 102.37C114.026 102.181 114.212 101.915 114.306 101.61L118.423 88.1772C121.132 87.6455 123.184 85.2124 123.184 82.2982V70.3188H126.121C126.511 70.3188 126.884 70.1611 127.16 69.8803C127.435 69.5995 127.59 69.2187 127.59 68.8216C127.59 68.4245 127.435 68.0436 127.16 67.7628C126.884 67.482 126.511 67.3243 126.121 67.3243H123.184V61.3357H126.121C126.511 61.3357 126.884 61.1779 127.16 60.8971C127.435 60.6164 127.59 60.2355 127.59 59.8384C127.59 59.4413 127.435 59.0605 127.16 58.7797C126.884 58.4989 126.511 58.3411 126.121 58.3411H123.184V46.3628C123.184 43.4486 121.132 41.015 118.423 40.4833L114.306 27.0505C114.212 26.7459 114.026 26.4798 113.774 26.2908C113.521 26.1018 113.217 26 112.904 26H95.2803C94.9673 26 94.6624 26.102 94.4102 26.291C94.158 26.4801 93.9717 26.7464 93.8784 27.051L89.7614 40.4827C87.0524 41.015 85 43.4486 85 46.3628V57.5925C85 57.9896 85.1547 58.3704 85.4301 58.6512C85.7056 58.932 86.0791 59.0898 86.4686 59.0898V59.0898ZM111.824 99.6665H96.3603L92.8723 88.2868H115.312L111.824 99.6665ZM96.3603 28.9946H111.824L115.312 40.3737H92.8723L96.3603 28.9946V28.9946Z" fill="#3D202C"/>
</g>
<g opacity="0.504">
<path opacity="0.504" fill-rule="evenodd" clip-rule="evenodd" d="M121.715 82.2977C121.715 83.489 121.251 84.6315 120.425 85.4739C119.599 86.3163 118.478 86.7895 117.31 86.7895H90.8745C89.706 86.7895 88.5853 86.3163 87.7591 85.4739C86.9328 84.6315 86.4686 83.489 86.4686 82.2977V46.3628C86.4686 45.1715 86.9328 44.029 87.7591 43.1866C88.5853 42.3442 89.706 41.871 90.8745 41.871H117.31C118.478 41.871 119.599 42.3442 120.425 43.1866C121.251 44.029 121.715 45.1715 121.715 46.3628V82.2977Z" fill="#FFBCBC"/>
<path opacity="0.504" fill-rule="evenodd" clip-rule="evenodd" d="M112.904 27.4973L117.31 41.871H90.8745L95.2803 27.4973H112.904ZM117.31 86.7895L112.904 101.164H95.2803L90.8745 86.7895H117.31Z" fill="#EB595E"/>
<path opacity="0.504" fill-rule="evenodd" clip-rule="evenodd" d="M95.2803 59.8384H112.904V68.8221H95.2803V59.8384Z" fill="#FF7D84"/>
<path opacity="0.504" d="M112.904 53.1006C114.12 53.1006 115.107 52.0951 115.107 50.8547C115.107 49.6143 114.12 48.6088 112.904 48.6088C111.687 48.6088 110.701 49.6143 110.701 50.8547C110.701 52.0951 111.687 53.1006 112.904 53.1006Z" fill="#3D202C"/>
<path opacity="0.504" d="M104.092 53.1006C105.309 53.1006 106.295 52.0951 106.295 50.8547C106.295 49.6143 105.309 48.6088 104.092 48.6088C102.875 48.6088 101.889 49.6143 101.889 50.8547C101.889 52.0951 102.875 53.1006 104.092 53.1006Z" fill="#3D202C"/>
<path opacity="0.504" d="M95.2803 53.1006C96.4969 53.1006 97.4832 52.0951 97.4832 50.8547C97.4832 49.6143 96.4969 48.6088 95.2803 48.6088C94.0637 48.6088 93.0774 49.6143 93.0774 50.8547C93.0774 52.0951 94.0637 53.1006 95.2803 53.1006Z" fill="#3D202C"/>
<path opacity="0.504" fill-rule="evenodd" clip-rule="evenodd" d="M93.8117 59.8384V68.8221C93.8117 69.2192 93.9664 69.6001 94.2418 69.8808C94.5173 70.1616 94.8908 70.3194 95.2803 70.3194H112.904C113.293 70.3194 113.667 70.1616 113.942 69.8808C114.218 69.6001 114.372 69.2192 114.372 68.8221V59.8384C114.372 59.4413 114.218 59.0605 113.942 58.7797C113.667 58.4989 113.293 58.3411 112.904 58.3411H95.2803C94.8908 58.3411 94.5173 58.4989 94.2418 58.7797C93.9664 59.0605 93.8117 59.4413 93.8117 59.8384ZM96.7489 61.3357H111.435V67.3248H96.7489V61.3357V61.3357ZM112.904 76.3085H95.2803C94.8908 76.3085 94.5173 76.4663 94.2418 76.7471C93.9664 77.0279 93.8117 77.4087 93.8117 77.8058C93.8117 78.2029 93.9664 78.5838 94.2418 78.8646C94.5173 79.1453 94.8908 79.3031 95.2803 79.3031H112.904C113.293 79.3031 113.667 79.1453 113.942 78.8646C114.218 78.5838 114.372 78.2029 114.372 77.8058C114.372 77.4087 114.218 77.0279 113.942 76.7471C113.667 76.4663 113.293 76.3085 112.904 76.3085Z" fill="#3D202C"/>
<path opacity="0.504" d="M86.4686 65.8276C87.2797 65.8276 87.9372 65.1572 87.9372 64.3303C87.9372 63.5033 87.2797 62.833 86.4686 62.833C85.6575 62.833 85 63.5033 85 64.3303C85 65.1572 85.6575 65.8276 86.4686 65.8276Z" fill="#3D202C"/>
<path opacity="0.504" fill-rule="evenodd" clip-rule="evenodd" d="M86.4686 59.0898C86.8581 59.0898 87.2317 58.932 87.5071 58.6512C87.7825 58.3704 87.9372 57.9896 87.9372 57.5925V46.3628C87.9382 45.5698 88.2474 44.8094 88.7971 44.2483C89.3468 43.6872 90.0922 43.3709 90.8701 43.3688H117.313C118.091 43.3708 118.837 43.6869 119.387 44.2481C119.936 44.8093 120.246 45.5697 120.247 46.3628V82.2977C120.246 83.091 119.937 83.8517 119.387 84.413C118.837 84.9743 118.091 85.2905 117.313 85.2922H117.306H90.8701C90.0921 85.2902 89.3466 84.9739 88.7969 84.4126C88.2472 83.8513 87.9381 83.0908 87.9372 82.2977V71.068C87.9372 70.6709 87.7825 70.2901 87.5071 70.0093C87.2317 69.7285 86.8581 69.5708 86.4686 69.5708C86.0791 69.5708 85.7056 69.7285 85.4301 70.0093C85.1547 70.2901 85 70.6709 85 71.068V82.2977C85 85.2124 87.0524 87.6455 89.7614 88.1778L93.8784 101.611C93.9718 101.915 94.1582 102.181 94.4104 102.37C94.6625 102.559 94.9673 102.661 95.2803 102.661H112.904C113.217 102.661 113.522 102.559 113.774 102.37C114.026 102.181 114.212 101.915 114.306 101.61L118.423 88.1772C121.132 87.6455 123.184 85.2124 123.184 82.2982V70.3188H126.121C126.511 70.3188 126.884 70.1611 127.16 69.8803C127.435 69.5995 127.59 69.2187 127.59 68.8216C127.59 68.4245 127.435 68.0436 127.16 67.7628C126.884 67.482 126.511 67.3243 126.121 67.3243H123.184V61.3357H126.121C126.511 61.3357 126.884 61.1779 127.16 60.8971C127.435 60.6164 127.59 60.2355 127.59 59.8384C127.59 59.4413 127.435 59.0605 127.16 58.7797C126.884 58.4989 126.511 58.3411 126.121 58.3411H123.184V46.3628C123.184 43.4486 121.132 41.015 118.423 40.4833L114.306 27.0505C114.212 26.7459 114.026 26.4798 113.774 26.2908C113.521 26.1018 113.217 26 112.904 26H95.2803C94.9673 26 94.6624 26.102 94.4102 26.291C94.158 26.4801 93.9717 26.7464 93.8784 27.051L89.7614 40.4827C87.0524 41.015 85 43.4486 85 46.3628V57.5925C85 57.9896 85.1547 58.3704 85.4301 58.6512C85.7056 58.932 86.0791 59.0898 86.4686 59.0898V59.0898ZM111.824 99.6665H96.3603L92.8723 88.2868H115.312L111.824 99.6665ZM96.3603 28.9946H111.824L115.312 40.3737H92.8723L96.3603 28.9946V28.9946Z" fill="#3D202C"/>
</g>
<g opacity="0.504">
<path opacity="0.504" fill-rule="evenodd" clip-rule="evenodd" d="M353.251 87.2474H404.182L395.889 76.7908C390.876 80.452 384.965 82.3806 378.717 82.3806C372.468 82.3806 366.556 80.452 361.544 76.7908L353.251 87.2474ZM406.701 89.6808H350.734C350.505 89.6811 350.28 89.6169 350.086 89.4954C349.892 89.3738 349.736 89.2 349.637 88.9939C349.537 88.7878 349.497 88.5577 349.523 88.3302C349.548 88.1026 349.637 87.8868 349.779 87.7076L360.378 74.3441C360.579 74.0911 360.872 73.9279 361.193 73.8902C361.512 73.8501 361.835 73.9463 362.089 74.1474C366.865 77.9423 372.617 79.9473 378.717 79.9473C384.817 79.9473 390.568 77.9423 395.344 74.1474C395.469 74.0475 395.612 73.9734 395.766 73.9292C395.92 73.8851 396.081 73.8718 396.239 73.8902C396.561 73.9284 396.854 74.0914 397.054 74.3441L407.653 87.707C407.858 87.7073 408.061 87.7598 408.24 87.8595C408.42 87.9592 408.572 88.103 408.681 88.2772C408.79 88.4515 408.853 88.6506 408.865 88.856C408.876 89.0613 408.835 89.2662 408.746 89.4514C408.656 89.6365 408.521 89.796 408.353 89.9149C408.186 90.0337 407.99 90.108 407.786 90.1309C407.582 90.1537 407.375 90.1244 407.185 90.0456C406.995 89.9667 406.828 89.841 406.7 89.6801L406.701 89.6808Z" fill="#FFBCBC"/>
<path opacity="0.504" fill-rule="evenodd" clip-rule="evenodd" d="M407.916 88.4835H347.084C345.793 88.4837 344.555 88.9965 343.643 89.9092C342.73 90.8219 342.218 92.0596 342.218 93.3503V95.7836H412.784V93.3503C412.784 92.7112 412.658 92.0783 412.414 91.4878C412.169 90.8974 411.811 90.3609 411.359 89.909C410.907 89.457 410.37 89.0986 409.78 88.854C409.189 88.6094 408.557 88.4835 407.918 88.4835" fill="#FFBCBC"/>
<path opacity="0.504" fill-rule="evenodd" clip-rule="evenodd" d="M405.484 53.1999C405.484 37.7448 392.955 25.2164 377.5 25.2164C362.045 25.2164 349.517 37.7448 349.517 53.1999C349.517 68.6556 362.045 81.1834 377.5 81.1834C392.955 81.1834 405.484 68.6556 405.484 53.1999" fill="#FF7D84"/>
<path opacity="0.504" fill-rule="evenodd" clip-rule="evenodd" d="M387.234 53.1999C387.234 47.8246 382.875 43.4664 377.5 43.4664C372.125 43.4664 367.766 47.8246 367.766 53.1999C367.766 58.5752 372.125 62.9334 377.5 62.9334C382.875 62.9334 387.234 58.5752 387.234 53.1999Z" fill="#EB595E"/>
<path opacity="0.504" fill-rule="evenodd" clip-rule="evenodd" d="M377.5 25.2164C362.045 25.2164 349.517 37.7448 349.517 53.1999C352.074 53.1999 354.31 51.4068 354.786 48.8945C356.808 38.1986 366.224 30.0831 377.5 30.0831C388.776 30.0831 398.192 38.1986 400.215 48.8945C400.691 51.4068 402.926 53.1999 405.484 53.1999C405.484 37.7448 392.955 25.2164 377.5 25.2164" fill="#FF7D84"/>
<path opacity="0.504" fill-rule="evenodd" clip-rule="evenodd" d="M377.5 25.2164C376.887 25.2164 376.28 25.2437 375.675 25.2826C390.277 26.2246 401.833 38.359 401.833 53.1999C401.833 68.0407 390.277 80.1758 375.675 81.1172C376.28 81.1566 376.887 81.1834 377.5 81.1834C392.955 81.1834 405.484 68.6556 405.484 53.1999C405.484 37.7448 392.955 25.2164 377.5 25.2164" fill="#EB595E"/>
<path opacity="0.504" d="M377.5 25.2164C378.113 25.2164 378.72 25.2437 379.325 25.2826C364.723 26.2246 353.167 38.359 353.167 53.1999C353.167 68.0407 364.723 80.1758 379.324 81.1172C378.72 81.1566 378.112 81.1834 377.499 81.1834C362.044 81.1834 349.516 68.6556 349.516 53.1999C349.516 37.7448 362.044 25.2164 377.499 25.2164" fill="white"/>
<g opacity="0.504">
<path opacity="0.504" fill-rule="evenodd" clip-rule="evenodd" d="M343.433 94.5666H411.567V93.3503C411.566 92.3825 411.181 91.4547 410.497 90.7704C409.812 90.086 408.885 89.7011 407.917 89.6999H347.083C346.115 89.7011 345.188 90.086 344.503 90.7704C343.819 91.4547 343.434 92.3825 343.433 93.3503V94.5666V94.5666ZM412.784 97H342.216C341.893 96.9997 341.584 96.8714 341.356 96.6433C341.128 96.4153 341 96.1061 341 95.7836V93.3503C341 89.9959 343.729 87.2665 347.083 87.2665H407.917C411.271 87.2665 414 89.9959 414 93.3503V95.7836C414 96.1062 413.872 96.4156 413.644 96.6437C413.416 96.8718 413.106 97 412.784 97V97ZM377.5 26.4334C362.741 26.4334 350.734 38.4405 350.734 53.1999C350.734 67.9593 362.741 79.9664 377.5 79.9664C392.259 79.9664 404.266 67.9593 404.266 53.1999C404.266 38.4405 392.259 26.4334 377.5 26.4334ZM377.5 82.3997C361.399 82.3997 348.3 69.3004 348.3 53.1999C348.3 37.1 361.399 24 377.5 24C393.601 24 406.7 37.0994 406.7 53.1999C406.7 69.3004 393.601 82.3997 377.5 82.3997Z" fill="#3D202C"/>
<path opacity="0.504" fill-rule="evenodd" clip-rule="evenodd" d="M377.5 44.6834C372.804 44.6834 368.984 48.5037 368.984 53.1999C368.984 57.896 372.804 61.7164 377.5 61.7164C382.196 61.7164 386.016 57.896 386.016 53.1999C386.016 48.5037 382.196 44.6834 377.5 44.6834ZM377.5 64.1497C371.463 64.1497 366.55 59.2372 366.55 53.1999C366.55 47.1632 371.463 42.25 377.5 42.25C383.537 42.25 388.45 47.1632 388.45 53.1999C388.45 59.2372 383.537 64.1497 377.5 64.1497" fill="#3D202C"/>
<path opacity="0.504" fill-rule="evenodd" clip-rule="evenodd" d="M372.633 54.4169C372.311 54.4167 372.001 54.2884 371.773 54.0602C371.545 53.832 371.417 53.5225 371.417 53.1999C371.417 49.8455 374.146 47.1168 377.5 47.1168C377.818 47.124 378.12 47.2554 378.343 47.4828C378.565 47.7102 378.689 48.0155 378.689 48.3334C378.689 48.6514 378.565 48.9567 378.343 49.1841C378.12 49.4115 377.818 49.5429 377.5 49.5501C376.532 49.5513 375.605 49.9362 374.921 50.6204C374.236 51.3046 373.851 52.2323 373.85 53.1999C373.85 53.5227 373.722 53.8322 373.494 54.0604C373.266 54.2887 372.956 54.4169 372.633 54.4169V54.4169ZM352.035 87.2665H402.965L394.672 76.8112C389.66 80.4724 383.748 82.4004 377.501 82.4004C371.251 82.4004 365.339 80.4718 360.328 76.8118L352.034 87.2671L352.035 87.2665ZM405.484 89.6999H349.517C349.05 89.6999 348.624 89.4325 348.421 89.0125C348.322 88.8064 348.282 88.5766 348.307 88.3492C348.332 88.1218 348.421 87.9061 348.563 87.7267L359.161 74.3638C359.362 74.1105 359.656 73.9473 359.977 73.91C360.295 73.8712 360.619 73.966 360.872 74.1671C365.649 77.9614 371.4 79.9664 377.5 79.9664C383.601 79.9664 389.351 77.9614 394.128 74.1671C394.253 74.0674 394.396 73.9934 394.55 73.9493C394.704 73.9053 394.865 73.892 395.024 73.9104C395.183 73.9287 395.336 73.9783 395.476 74.0562C395.616 74.1341 395.739 74.2389 395.838 74.3645L406.436 87.7267C406.578 87.906 406.667 88.1216 406.692 88.3489C406.717 88.5761 406.677 88.8059 406.578 89.0117C406.479 89.2176 406.323 89.3914 406.13 89.5131C405.936 89.6348 405.712 89.6995 405.484 89.6999V89.6999ZM350.734 93.3503H342.37C342.052 93.343 341.75 93.2116 341.527 92.9842C341.305 92.7568 341.181 92.4515 341.181 92.1336C341.181 91.8156 341.305 91.5103 341.527 91.2829C341.75 91.0555 342.052 90.9242 342.37 90.9169H350.734C351.051 90.9242 351.354 91.0555 351.576 91.2829C351.798 91.5103 351.923 91.8156 351.923 92.1336C351.923 92.4515 351.798 92.7568 351.576 92.9842C351.354 93.2116 351.051 93.343 350.734 93.3503V93.3503ZM412.63 93.3503H404.267C403.944 93.3503 403.634 93.2221 403.406 92.9939C403.178 92.7657 403.05 92.4563 403.05 92.1336C403.05 91.8109 403.178 91.5014 403.406 91.2732C403.634 91.0451 403.944 90.9169 404.267 90.9169H412.63C412.953 90.9169 413.262 91.0451 413.491 91.2732C413.719 91.5014 413.847 91.8109 413.847 92.1336C413.847 92.4563 413.719 92.7657 413.491 92.9939C413.262 93.2221 412.953 93.3503 412.63 93.3503" fill="#3D202C"/>
<path opacity="0.504" fill-rule="evenodd" clip-rule="evenodd" d="M377.5 26.4334C363.212 26.4334 351.502 37.685 350.77 51.7938C352.196 51.3508 353.306 50.1707 353.59 48.6686C355.759 37.1948 365.815 28.8668 377.5 28.8668C389.185 28.8668 399.239 37.1948 401.41 48.6679C401.694 50.1701 402.804 51.3508 404.23 51.7932C403.496 37.6869 391.787 26.434 377.501 26.434L377.5 26.4334ZM405.484 54.4175C402.318 54.4175 399.6 52.1897 399.02 49.1211C397.067 38.795 388.016 31.3008 377.501 31.3008C366.984 31.3008 357.934 38.795 355.982 49.1211C355.401 52.1891 352.683 54.4169 349.517 54.4169C349.195 54.4167 348.886 54.2886 348.657 54.0607C348.429 53.8327 348.301 53.5236 348.301 53.2011C348.3 37.0994 361.399 24 377.5 24C393.601 24 406.7 37.0994 406.7 53.1999C406.7 53.3597 406.669 53.5179 406.607 53.6656C406.546 53.8132 406.457 53.9474 406.344 54.0604C406.231 54.1734 406.097 54.2631 405.949 54.3242C405.802 54.3854 405.643 54.4169 405.484 54.4169" fill="#3D202C"/>
</g>
</g>
<g opacity="0.504">
<g opacity="0.504">
<path opacity="0.504" fill-rule="evenodd" clip-rule="evenodd" d="M361.242 179.117H366.945V184.82H361.242V179.117ZM384.054 179.117H389.757V184.82H384.054V179.117ZM372.648 179.117H378.351V184.82H372.648V179.117ZM361.242 220.179H366.945V225.882H361.242V220.179ZM384.054 220.179H389.757V225.882H384.054V220.179ZM372.648 220.179H378.351V225.882H372.648V220.179ZM393.179 188.242H398.882V193.945H393.179V188.242ZM393.179 211.054H398.882V216.757H393.179V211.054ZM393.179 199.648H398.882V205.351H393.179V199.648ZM352.117 188.242H357.82V193.945H352.117V188.242ZM352.117 211.054H357.82V216.757H352.117V211.054ZM352.117 199.648H357.82V205.351H352.117V199.648Z" fill="#FFBCBC"/>
</g>
<path opacity="0.504" fill-rule="evenodd" clip-rule="evenodd" d="M357.82 184.82H393.18V220.18H357.82V184.82Z" fill="#EB595E"/>
<path opacity="0.504" fill-rule="evenodd" clip-rule="evenodd" d="M363.523 190.523H387.476V214.476H363.523V190.523Z" fill="#FFBCBC"/>
<path opacity="0.504" fill-rule="evenodd" clip-rule="evenodd" d="M387.476 189.097H363.523C363.336 189.097 363.151 189.134 362.978 189.206C362.805 189.277 362.647 189.382 362.515 189.515C362.382 189.647 362.277 189.805 362.206 189.978C362.134 190.151 362.097 190.336 362.097 190.523V214.476C362.097 215.264 362.736 215.902 363.523 215.902H387.476C387.663 215.902 387.849 215.865 388.022 215.794C388.195 215.722 388.352 215.617 388.484 215.484C388.617 215.352 388.722 215.195 388.794 215.022C388.865 214.849 388.902 214.663 388.902 214.476V190.523C388.902 190.336 388.865 190.151 388.794 189.978C388.722 189.805 388.617 189.647 388.484 189.515C388.352 189.382 388.195 189.277 388.022 189.206C387.849 189.134 387.663 189.097 387.476 189.097V189.097ZM386.051 213.051H364.949V191.949H386.05V213.05L386.051 213.051Z" fill="#3D202C"/>
<path opacity="0.504" fill-rule="evenodd" clip-rule="evenodd" d="M375.329 198.223H381.203C381.581 198.223 381.944 198.072 382.211 197.805C382.478 197.538 382.629 197.175 382.629 196.797C382.629 196.419 382.478 196.056 382.211 195.789C381.944 195.521 381.581 195.371 381.203 195.371H375.329C374.951 195.371 374.588 195.521 374.321 195.789C374.053 196.056 373.903 196.419 373.903 196.797C373.903 197.175 374.053 197.538 374.321 197.805C374.588 198.072 374.951 198.223 375.329 198.223V198.223ZM369.037 198.223C369.412 198.223 369.779 198.07 370.045 197.805C370.31 197.54 370.463 197.171 370.463 196.797C370.463 196.422 370.31 196.054 370.045 195.788C369.777 195.522 369.415 195.372 369.037 195.37C368.659 195.371 368.297 195.522 368.029 195.788C367.764 196.054 367.611 196.422 367.611 196.797C367.611 197.171 367.763 197.54 368.029 197.805C368.294 198.07 368.66 198.223 369.037 198.223ZM369.037 203.925H381.202C381.58 203.925 381.943 203.775 382.21 203.508C382.478 203.24 382.628 202.878 382.628 202.5C382.628 202.122 382.478 201.759 382.21 201.492C381.943 201.224 381.58 201.074 381.202 201.074H369.037C368.658 201.074 368.296 201.224 368.028 201.492C367.761 201.759 367.611 202.122 367.611 202.5C367.611 202.878 367.761 203.24 368.028 203.508C368.296 203.775 368.658 203.925 369.037 203.925V203.925ZM369.037 206.777C368.662 206.777 368.294 206.93 368.029 207.195C367.762 207.46 367.611 207.828 367.611 208.203C367.611 208.578 367.762 208.946 368.029 209.211C368.294 209.476 368.662 209.629 369.037 209.629C369.412 209.629 369.779 209.476 370.045 209.211C370.31 208.946 370.463 208.578 370.463 208.203C370.463 207.828 370.31 207.46 370.045 207.195C369.777 206.928 369.415 206.778 369.037 206.777V206.777ZM374.909 206.777C374.534 206.777 374.167 206.93 373.901 207.195C373.636 207.46 373.483 207.828 373.483 208.203C373.483 208.578 373.636 208.946 373.901 209.211C374.167 209.476 374.534 209.629 374.909 209.629C375.284 209.629 375.652 209.476 375.917 209.211C376.184 208.946 376.335 208.578 376.335 208.203C376.335 207.828 376.184 207.46 375.917 207.195C375.649 206.928 375.287 206.778 374.909 206.777V206.777Z" fill="#3D202C"/>
<path opacity="0.504" fill-rule="evenodd" clip-rule="evenodd" d="M381.203 206.777C380.828 206.777 380.46 206.93 380.195 207.195C379.93 207.46 379.777 207.828 379.777 208.203C379.777 208.578 379.93 208.946 380.195 209.211C380.46 209.476 380.828 209.629 381.203 209.629C381.578 209.629 381.946 209.476 382.211 209.211C382.476 208.946 382.629 208.578 382.629 208.203C382.629 207.828 382.476 207.46 382.211 207.195C381.943 206.928 381.581 206.778 381.203 206.777ZM375.519 168.851C375.893 168.851 376.259 168.699 376.526 168.434C376.791 168.169 376.944 167.801 376.944 167.426C376.944 167.051 376.791 166.683 376.526 166.418C376.258 166.152 375.896 166.002 375.519 166C375.143 166 374.776 166.152 374.511 166.418C374.246 166.683 374.093 167.051 374.093 167.426C374.093 167.801 374.246 168.169 374.511 168.434C374.776 168.699 375.144 168.852 375.519 168.852V168.851Z" fill="#570025"/>
<path opacity="0.504" fill-rule="evenodd" clip-rule="evenodd" d="M398.883 206.777C399.261 206.777 399.623 206.627 399.891 206.359C400.158 206.092 400.308 205.729 400.308 205.351V203.943H410.574C410.945 203.932 411.296 203.777 411.555 203.511C411.813 203.245 411.957 202.889 411.957 202.518C411.957 202.147 411.813 201.791 411.555 201.525C411.296 201.259 410.945 201.104 410.574 201.093H400.308V199.648C400.308 199.461 400.271 199.275 400.2 199.102C400.128 198.929 400.023 198.772 399.891 198.64C399.758 198.507 399.601 198.402 399.428 198.331C399.255 198.259 399.069 198.222 398.882 198.223H394.605V195.371H398.882C399.07 195.371 399.255 195.334 399.428 195.263C399.601 195.191 399.758 195.086 399.891 194.954C400.023 194.821 400.128 194.664 400.2 194.491C400.272 194.318 400.308 194.132 400.308 193.945V192.519H407.01C407.388 192.519 407.75 192.369 408.017 192.102C408.285 191.834 408.435 191.472 408.435 191.094V187.815H410.574C410.952 187.815 411.315 187.665 411.582 187.397C411.85 187.13 412 186.767 412 186.389C412 186.011 411.85 185.648 411.582 185.38C411.315 185.113 410.952 184.963 410.574 184.963H407.01C406.822 184.963 406.637 184.999 406.464 185.071C406.291 185.143 406.133 185.248 406.001 185.38C405.869 185.513 405.764 185.67 405.692 185.843C405.62 186.016 405.583 186.201 405.584 186.389V189.668H400.308V188.242C400.308 188.055 400.272 187.87 400.2 187.696C400.128 187.523 400.023 187.366 399.891 187.234C399.758 187.101 399.601 186.996 399.428 186.925C399.255 186.853 399.07 186.816 398.882 186.816H394.605V184.82C394.605 184.442 394.455 184.079 394.187 183.812C393.92 183.545 393.557 183.395 393.179 183.395H391.183V179.117C391.183 178.93 391.146 178.744 391.075 178.571C391.003 178.398 390.898 178.241 390.766 178.109C390.633 177.976 390.476 177.871 390.303 177.8C390.13 177.728 389.945 177.691 389.758 177.691H388.332V172.416H391.611C391.798 172.417 391.983 172.38 392.156 172.308C392.329 172.237 392.487 172.132 392.619 171.999C392.751 171.867 392.856 171.71 392.928 171.537C393 171.364 393.037 171.178 393.037 170.991V167.426C393.037 167.048 392.886 166.685 392.619 166.418C392.352 166.151 391.989 166 391.611 166C391.233 166 390.87 166.151 390.603 166.418C390.335 166.685 390.185 167.048 390.185 167.426V169.564H386.906C386.719 169.564 386.534 169.601 386.36 169.673C386.187 169.744 386.03 169.849 385.898 169.982C385.765 170.114 385.66 170.272 385.589 170.445C385.517 170.618 385.48 170.803 385.48 170.99V177.691H384.054C383.867 177.691 383.682 177.728 383.509 177.8C383.336 177.871 383.178 177.976 383.046 178.109C382.914 178.241 382.809 178.398 382.737 178.571C382.666 178.744 382.629 178.93 382.629 179.117V183.395H379.777V179.117C379.777 178.93 379.74 178.744 379.668 178.571C379.597 178.398 379.492 178.241 379.36 178.109C379.227 177.976 379.07 177.871 378.897 177.8C378.724 177.728 378.539 177.691 378.351 177.691H376.943V173.14C376.928 172.773 376.771 172.426 376.505 172.171C376.24 171.916 375.886 171.774 375.518 171.774C375.15 171.774 374.796 171.916 374.531 172.171C374.265 172.426 374.108 172.773 374.093 173.14V177.691H372.648C372.461 177.691 372.275 177.728 372.102 177.8C371.929 177.871 371.772 177.976 371.64 178.109C371.507 178.241 371.402 178.398 371.331 178.571C371.259 178.744 371.222 178.93 371.223 179.117V183.395H368.371V179.117C368.371 178.93 368.334 178.744 368.263 178.571C368.191 178.398 368.086 178.241 367.954 178.109C367.821 177.976 367.664 177.871 367.491 177.799C367.318 177.728 367.132 177.691 366.945 177.691H365.519V170.99C365.519 170.803 365.482 170.618 365.411 170.445C365.339 170.272 365.234 170.115 365.102 169.982C364.969 169.85 364.812 169.745 364.639 169.673C364.466 169.601 364.281 169.564 364.094 169.564H360.815V167.426C360.815 167.048 360.665 166.685 360.397 166.418C360.13 166.15 359.767 166 359.389 166C359.011 166 358.648 166.15 358.38 166.418C358.113 166.685 357.963 167.048 357.963 167.426V170.99C357.963 171.777 358.601 172.416 359.389 172.416H362.668V177.691H361.242C361.055 177.691 360.87 177.728 360.696 177.799C360.523 177.871 360.366 177.976 360.234 178.109C360.101 178.241 359.996 178.398 359.925 178.571C359.853 178.744 359.816 178.93 359.816 179.117V183.395H357.82C357.442 183.395 357.079 183.545 356.812 183.812C356.545 184.079 356.395 184.442 356.395 184.82V186.816H352.117C351.93 186.816 351.744 186.853 351.571 186.925C351.398 186.996 351.241 187.101 351.109 187.234C350.976 187.366 350.871 187.523 350.799 187.696C350.728 187.87 350.691 188.055 350.691 188.242V189.668H345.416V186.389C345.417 186.201 345.38 186.016 345.308 185.843C345.237 185.67 345.132 185.513 344.999 185.38C344.867 185.248 344.71 185.143 344.537 185.071C344.364 185 344.178 184.963 343.991 184.963H340.426C340.048 184.963 339.685 185.113 339.418 185.38C339.151 185.648 339 186.01 339 186.388C339 186.767 339.151 187.129 339.418 187.397C339.685 187.664 340.048 187.814 340.426 187.814H342.564V191.093C342.564 191.881 343.203 192.519 343.99 192.519H350.691V193.945C350.691 194.733 351.33 195.371 352.117 195.371H356.395V198.223H352.117C351.93 198.222 351.744 198.259 351.571 198.331C351.398 198.402 351.241 198.507 351.109 198.64C350.976 198.772 350.871 198.929 350.8 199.102C350.728 199.275 350.691 199.461 350.691 199.648V201.093H340.426C340.048 201.093 339.685 201.243 339.418 201.51C339.151 201.778 339 202.14 339 202.518C339 202.896 339.151 203.259 339.418 203.526C339.685 203.794 340.048 203.944 340.426 203.944H350.691V205.351C350.691 206.139 351.33 206.777 352.117 206.777H356.395V209.629H352.117C351.93 209.629 351.744 209.666 351.571 209.737C351.398 209.809 351.241 209.914 351.109 210.046C350.976 210.178 350.871 210.336 350.8 210.509C350.728 210.682 350.691 210.867 350.691 211.054V212.48H343.99C343.803 212.48 343.618 212.517 343.445 212.589C343.272 212.66 343.115 212.765 342.982 212.898C342.85 213.03 342.745 213.187 342.673 213.36C342.601 213.533 342.564 213.718 342.564 213.906V217.185H340.426C340.048 217.185 339.685 217.335 339.418 217.602C339.15 217.87 339 218.232 339 218.611C339 218.989 339.15 219.352 339.418 219.619C339.685 219.886 340.048 220.037 340.426 220.037H343.99C344.178 220.037 344.363 220 344.536 219.928C344.709 219.856 344.866 219.751 344.999 219.619C345.131 219.487 345.236 219.329 345.308 219.156C345.379 218.983 345.416 218.798 345.416 218.611V215.332H350.691V216.758C350.691 217.545 351.33 218.183 352.117 218.183H356.395V220.179C356.395 220.967 357.032 221.605 357.82 221.605H359.816V225.882C359.816 226.67 360.455 227.308 361.242 227.308H362.668V232.584H359.389C359.201 232.583 359.016 232.62 358.843 232.692C358.67 232.764 358.513 232.869 358.38 233.001C358.248 233.133 358.143 233.291 358.071 233.464C357.999 233.637 357.963 233.822 357.963 234.01V237.574C357.963 237.952 358.113 238.315 358.38 238.582C358.648 238.849 359.01 239 359.388 239C359.767 239 360.129 238.849 360.397 238.582C360.664 238.315 360.814 237.952 360.814 237.574V235.435H364.093C364.28 235.435 364.466 235.398 364.639 235.327C364.812 235.255 364.969 235.15 365.101 235.018C365.234 234.885 365.339 234.728 365.411 234.555C365.482 234.382 365.519 234.197 365.519 234.01V227.308H366.945C367.132 227.308 367.318 227.272 367.491 227.2C367.664 227.128 367.821 227.023 367.954 226.891C368.086 226.758 368.191 226.601 368.263 226.428C368.334 226.255 368.371 226.07 368.371 225.882V221.605H371.223V225.882C371.223 226.67 371.86 227.308 372.648 227.308H374.093V237.574C374.093 237.952 374.243 238.315 374.51 238.582C374.778 238.849 375.14 239 375.518 239C375.896 239 376.259 238.849 376.526 238.582C376.794 238.315 376.944 237.952 376.944 237.574V227.308H378.351C378.539 227.308 378.724 227.271 378.897 227.2C379.07 227.128 379.227 227.023 379.36 226.891C379.492 226.758 379.597 226.601 379.668 226.428C379.74 226.255 379.777 226.069 379.777 225.882V221.605H382.629V225.882C382.629 226.67 383.267 227.308 384.054 227.308H385.48V234.01C385.48 234.796 386.118 235.435 386.906 235.435H390.185V237.574C390.185 237.952 390.335 238.315 390.602 238.582C390.87 238.85 391.232 239 391.611 239C391.989 239 392.352 238.85 392.619 238.582C392.886 238.315 393.037 237.952 393.037 237.574V234.01C393.037 233.822 393 233.637 392.928 233.464C392.857 233.291 392.752 233.133 392.619 233.001C392.487 232.869 392.33 232.764 392.156 232.692C391.983 232.62 391.798 232.583 391.611 232.584H388.332V227.308H389.758C389.945 227.308 390.13 227.271 390.303 227.2C390.476 227.128 390.633 227.023 390.766 226.891C390.898 226.758 391.003 226.601 391.075 226.428C391.146 226.255 391.183 226.069 391.183 225.882V221.605H393.179C393.557 221.605 393.92 221.455 394.187 221.187C394.455 220.92 394.605 220.557 394.605 220.179V218.183H398.882C399.069 218.183 399.255 218.146 399.428 218.075C399.601 218.003 399.758 217.898 399.891 217.766C400.023 217.633 400.128 217.476 400.2 217.303C400.271 217.13 400.308 216.945 400.308 216.758V215.332H405.584V218.611C405.584 219.398 406.222 220.037 407.01 220.037H410.574C410.952 220.037 411.315 219.886 411.582 219.619C411.849 219.352 412 218.989 412 218.611C412 218.233 411.849 217.87 411.582 217.603C411.315 217.335 410.952 217.185 410.574 217.185H408.435V213.906C408.435 213.719 408.398 213.534 408.327 213.361C408.255 213.188 408.15 213.03 408.018 212.898C407.885 212.766 407.728 212.66 407.555 212.589C407.382 212.517 407.197 212.48 407.01 212.48H400.308V211.054C400.308 210.867 400.271 210.682 400.2 210.509C400.128 210.336 400.023 210.178 399.891 210.046C399.758 209.914 399.601 209.809 399.428 209.737C399.255 209.666 399.069 209.629 398.882 209.629H394.605V206.777H398.882H398.883ZM397.457 201.074V203.925H394.605V201.074H397.457ZM397.457 189.668V192.519H394.605V189.668H397.457V189.668ZM385.48 180.543H388.332V183.395H385.48V180.543ZM374.074 180.543H376.925V183.395H374.074V180.543ZM362.668 180.543H365.519V183.395H362.668V180.543H362.668ZM353.543 192.519V189.668H356.395V192.519H353.543ZM353.543 203.925V201.074H356.395V203.925H353.543ZM353.543 215.332V212.48H356.395V215.332H353.543ZM365.519 224.457H362.668V221.605H365.519V224.457ZM376.925 224.457H374.074V221.605H376.925V224.457ZM388.332 224.457H385.48V221.605H388.332V224.457ZM391.753 218.754H359.246V186.246H391.753V218.753L391.753 218.754ZM397.456 212.48V215.332H394.605V212.48H397.457H397.456Z" fill="#3D202C"/>
</g>
<g opacity="0.504">
<path opacity="0.504" fill-rule="evenodd" clip-rule="evenodd" d="M263.652 206.95V225.959H260.955C257.976 225.959 255.561 223.527 255.561 220.528V212.381C255.561 209.383 257.976 206.95 260.955 206.95H263.652Z" fill="#FF7D84"/>
<path opacity="0.504" fill-rule="evenodd" clip-rule="evenodd" d="M255.561 212.381V220.528H243.462C241.366 220.528 239.46 219.304 238.574 217.392L233.191 205.768L240.524 202.325L245.182 212.381H255.561V212.381Z" fill="#EB595E"/>
<path opacity="0.504" fill-rule="evenodd" clip-rule="evenodd" d="M254.214 186.908C256.103 190.986 254.35 195.832 250.301 197.734L220.969 211.506C220.648 211.656 220.301 211.742 219.947 211.757C219.593 211.773 219.239 211.718 218.906 211.596C218.574 211.474 218.268 211.287 218.007 211.046C217.746 210.805 217.534 210.515 217.385 210.191L211.686 197.887L250.794 179.525L254.214 186.908V186.908Z" fill="#FFBCBC"/>
<path opacity="0.504" fill-rule="evenodd" clip-rule="evenodd" d="M249.654 177.065L250.794 179.525L211.686 197.887C209.474 198.929 206.976 199.182 204.602 198.603C201.519 197.855 198.793 195.751 197.349 192.633L238.903 173.125C242.952 171.223 247.766 172.987 249.654 177.065V177.065Z" fill="#FF7D84"/>
<path opacity="0.504" fill-rule="evenodd" clip-rule="evenodd" d="M211.686 197.887L217.385 210.191L212.496 212.487C212.175 212.638 211.828 212.724 211.474 212.739C211.12 212.755 210.767 212.7 210.434 212.578C210.101 212.456 209.795 212.269 209.534 212.028C209.273 211.787 209.061 211.496 208.912 211.173L204.352 201.33C204.15 200.894 204.067 200.412 204.111 199.933C204.154 199.454 204.324 198.995 204.602 198.604C206.976 199.182 209.474 198.93 211.686 197.887V197.887Z" fill="#EB595E"/>
<path opacity="0.504" fill-rule="evenodd" clip-rule="evenodd" d="M234.09 194.859C233.929 194.934 233.785 195.041 233.666 195.172C233.546 195.304 233.453 195.457 233.392 195.625C233.332 195.793 233.305 195.97 233.312 196.149C233.32 196.327 233.362 196.502 233.437 196.663C233.512 196.825 233.618 196.97 233.748 197.09C233.879 197.211 234.032 197.304 234.198 197.365C234.364 197.426 234.541 197.454 234.718 197.446C234.895 197.438 235.069 197.396 235.229 197.32C235.553 197.168 235.804 196.893 235.926 196.554C236.049 196.216 236.033 195.843 235.882 195.516C235.731 195.19 235.457 194.937 235.121 194.814C234.785 194.691 234.414 194.707 234.09 194.859V194.859Z" fill="#3D202C"/>
<path opacity="0.504" fill-rule="evenodd" clip-rule="evenodd" d="M202.817 199.466C202.67 200.292 202.78 201.143 203.131 201.903L207.69 211.747C207.914 212.232 208.231 212.668 208.623 213.029C209.014 213.391 209.473 213.672 209.972 213.855C210.472 214.038 211.002 214.12 211.533 214.096C212.064 214.073 212.585 213.944 213.066 213.718L216.941 211.898C217.527 212.5 218.284 212.903 219.108 213.053C219.931 213.203 220.781 213.092 221.539 212.736L232.538 207.572L237.352 217.965C237.896 219.135 238.76 220.124 239.842 220.818C240.924 221.512 242.179 221.882 243.462 221.885H254.348C254.975 224.98 257.699 227.316 260.955 227.316H263.652C264.009 227.316 264.352 227.173 264.605 226.918C264.858 226.664 265 226.319 265 225.959V206.95C265 206.59 264.858 206.245 264.605 205.991C264.352 205.736 264.009 205.593 263.652 205.593H260.955C257.699 205.593 254.974 207.929 254.348 211.024H246.04L242.315 202.981L250.87 198.965C255.587 196.749 257.636 191.083 255.436 186.334L250.877 176.491C248.672 171.73 243.061 169.674 238.333 171.894L196.779 191.403C196.619 191.478 196.474 191.585 196.355 191.716C196.235 191.848 196.142 192.002 196.081 192.169C196.021 192.337 195.994 192.515 196.001 192.693C196.009 192.871 196.052 193.046 196.126 193.208C197.479 196.127 199.872 198.346 202.817 199.466ZM211.927 211.257C211.766 211.332 211.592 211.375 211.415 211.383C211.238 211.391 211.061 211.364 210.895 211.303C210.728 211.242 210.576 211.148 210.445 211.027C210.315 210.907 210.209 210.761 210.134 210.599L205.575 200.756C205.488 200.565 205.445 200.357 205.452 200.147C207.395 200.425 209.27 200.218 211.003 199.625L215.593 209.535L211.927 211.257H211.927ZM260.955 208.308H262.304V224.601H260.955C258.724 224.601 256.909 222.774 256.909 220.527V212.382C256.909 210.136 258.724 208.308 260.955 208.308ZM243.96 212.955C244.068 213.19 244.241 213.388 244.457 213.527C244.674 213.665 244.925 213.739 245.182 213.739H254.213V219.17H243.462C242.692 219.168 241.939 218.946 241.29 218.53C240.64 218.113 240.122 217.519 239.795 216.818L234.982 206.424L239.871 204.129L243.959 212.955H243.96ZM249.73 196.504L220.398 210.275C220.238 210.35 220.064 210.393 219.887 210.401C219.71 210.408 219.533 210.381 219.367 210.32C219.201 210.259 219.048 210.165 218.917 210.045C218.787 209.924 218.681 209.779 218.607 209.617L213.478 198.543L250.142 181.329L252.992 187.482C254.563 190.874 253.1 194.921 249.731 196.504H249.73ZM239.473 174.355C242.849 172.769 246.857 174.238 248.432 177.638L249.002 178.868L211.116 196.656C206.815 198.676 201.76 197.159 199.227 193.25L239.473 174.356V174.355Z" fill="#3D202C"/>
<path opacity="0.504" fill-rule="evenodd" clip-rule="evenodd" d="M246.31 189.121L238.979 192.563C238.818 192.639 238.674 192.745 238.555 192.877C238.435 193.008 238.342 193.162 238.282 193.33C238.221 193.497 238.194 193.675 238.202 193.853C238.21 194.032 238.252 194.206 238.327 194.368C238.402 194.53 238.508 194.675 238.638 194.795C238.769 194.916 238.922 195.009 239.088 195.07C239.255 195.131 239.431 195.158 239.608 195.151C239.785 195.143 239.959 195.1 240.12 195.024L247.451 191.581C247.611 191.506 247.755 191.399 247.875 191.268C247.994 191.137 248.087 190.983 248.148 190.815C248.208 190.648 248.235 190.47 248.228 190.292C248.22 190.113 248.177 189.939 248.102 189.777C248.028 189.615 247.922 189.47 247.791 189.35C247.661 189.229 247.508 189.136 247.341 189.075C247.175 189.014 246.998 188.987 246.821 188.995C246.645 189.002 246.471 189.045 246.31 189.121V189.121Z" fill="#3D202C"/>
</g>
<g opacity="0.504">
<path opacity="0.504" fill-rule="evenodd" clip-rule="evenodd" d="M209.471 83.6115C209.222 83.6113 208.977 83.5463 208.761 83.4228C208.545 83.2993 208.365 83.1217 208.238 82.9073C208.111 82.6929 208.042 82.4491 208.038 82.1999C208.034 81.9507 208.094 81.7046 208.213 81.4858L216.816 65.6775C216.999 65.3428 217.306 65.0944 217.671 64.9868C218.036 64.8792 218.428 64.9214 218.762 65.1039C219.096 65.2865 219.344 65.5945 219.452 65.9602C219.559 66.326 219.517 66.7195 219.335 67.0541L210.731 82.8625C210.607 83.0894 210.425 83.2786 210.203 83.4105C209.982 83.5423 209.728 83.6117 209.471 83.6115V83.6115ZM255.36 83.6115C255.102 83.6118 254.849 83.5424 254.627 83.4106C254.405 83.2788 254.223 83.0894 254.099 82.8625L245.495 67.0541C245.405 66.8884 245.348 66.7064 245.328 66.5187C245.308 66.331 245.325 66.1411 245.378 65.96C245.431 65.7788 245.52 65.61 245.638 65.463C245.756 65.316 245.902 65.1938 246.068 65.1034C246.233 65.013 246.414 64.9561 246.602 64.936C246.789 64.9159 246.979 64.9329 247.159 64.9862C247.34 65.0395 247.509 65.1279 247.655 65.2464C247.802 65.3649 247.924 65.5112 248.014 65.677L256.617 81.4854C256.737 81.7041 256.797 81.9503 256.793 82.1995C256.788 82.4488 256.719 82.6927 256.592 82.9072C256.466 83.1216 256.285 83.2993 256.069 83.4228C255.853 83.5463 255.609 83.6113 255.36 83.6115ZM202.302 50.5562C201.922 50.5561 201.557 50.4046 201.288 50.1352C201.019 49.8657 200.868 49.5002 200.868 49.1191V36.1849C200.878 35.8103 201.033 35.4542 201.301 35.1927C201.569 34.9311 201.928 34.7848 202.302 34.7848C202.676 34.7848 203.035 34.9311 203.303 35.1927C203.571 35.4542 203.726 35.8103 203.736 36.1849V49.1191C203.736 49.5003 203.585 49.8659 203.316 50.1355C203.047 50.4051 202.682 50.5566 202.302 50.5567V50.5562ZM262.528 50.5562C262.148 50.5561 261.783 50.4046 261.514 50.1352C261.245 49.8657 261.094 49.5002 261.094 49.1191V36.1849C261.104 35.8103 261.259 35.4542 261.527 35.1927C261.795 34.9311 262.154 34.7848 262.528 34.7848C262.902 34.7848 263.261 34.9311 263.529 35.1927C263.797 35.4542 263.952 35.8103 263.962 36.1849V49.1191C263.962 49.5003 263.811 49.8659 263.542 50.1355C263.273 50.4051 262.908 50.5566 262.528 50.5567" fill="#FF7D84"/>
<path opacity="0.504" fill-rule="evenodd" clip-rule="evenodd" d="M230.981 39.0605C227.814 39.0605 225.245 41.6345 225.245 44.8094V49.1206H236.717V44.8094C236.717 41.6345 234.149 39.0605 230.981 39.0605" fill="#FFBCBC"/>
<path opacity="0.504" fill-rule="evenodd" clip-rule="evenodd" d="M212.34 66.3656H249.622C250.383 66.3654 251.112 66.0626 251.65 65.5236C252.188 64.9847 252.49 64.2537 252.491 63.4914V51.9943C252.491 51.2319 252.188 50.5008 251.65 49.9617C251.113 49.4226 250.383 49.1197 249.622 49.1196H212.34C211.579 49.1199 210.85 49.4228 210.312 49.9619C209.774 50.501 209.472 51.232 209.472 51.9943V63.4914C209.472 64.2536 209.774 64.9845 210.312 65.5235C210.85 66.0624 211.579 66.3653 212.34 66.3656" fill="#FFBCBC"/>
<path opacity="0.504" fill-rule="evenodd" clip-rule="evenodd" d="M209.472 62.0548H203.736V53.4323H209.472V62.0548Z" fill="#FFBCBC"/>
<path opacity="0.504" fill-rule="evenodd" clip-rule="evenodd" d="M200.868 66.3656C199.291 66.3656 198 65.0722 198 63.4914V51.9943C198 50.412 199.291 49.1196 200.868 49.1196C202.445 49.1196 203.736 50.412 203.736 51.9943V63.4914C203.736 65.0722 202.445 66.3656 200.868 66.3656" fill="#FF7D84"/>
<path opacity="0.504" fill-rule="evenodd" clip-rule="evenodd" d="M252.49 62.0548H258.226V53.4323H252.49V62.0548Z" fill="#FFBCBC"/>
<path opacity="0.504" fill-rule="evenodd" clip-rule="evenodd" d="M261.094 66.3656C262.671 66.3656 263.962 65.0722 263.962 63.4914V51.9943C263.962 50.412 262.671 49.1196 261.094 49.1196C259.517 49.1196 258.226 50.412 258.226 51.9943V63.4914C258.226 65.0722 259.517 66.3656 261.094 66.3656V66.3656ZM203.736 36.1859H198V32.2782C198.001 31.7901 198.194 31.3221 198.538 30.977C198.883 30.6319 199.349 30.4378 199.836 30.4376H201.898C202.386 30.4376 202.853 30.6315 203.197 30.9768C203.542 31.3221 203.735 31.7904 203.735 32.2786V36.1864L203.736 36.1859ZM263.962 36.1859H258.226V32.2782C258.226 32.0369 258.274 31.7981 258.367 31.5754C258.459 31.3527 258.595 31.1505 258.765 30.9804C258.936 30.8103 259.139 30.6756 259.361 30.5841C259.584 30.4927 259.823 30.4462 260.063 30.4473L262.125 30.4376C262.612 30.4376 263.079 30.6315 263.424 30.9766C263.768 31.3218 263.962 31.79 263.962 32.2782V36.1859Z" fill="#FF7D84"/>
<path opacity="0.504" fill-rule="evenodd" clip-rule="evenodd" d="M238.151 54.8684H223.811L220.944 49.1201H241.019L238.151 54.8684Z" fill="#EB595E"/>
<path opacity="0.504" fill-rule="evenodd" clip-rule="evenodd" d="M230.981 72.1149C232.705 72.1149 234.232 72.8926 235.283 74.0982V66.3665H226.679V74.0982C227.73 72.8926 229.258 72.1149 230.981 72.1149Z" fill="#FFBCBC"/>
<path opacity="0.504" fill-rule="evenodd" clip-rule="evenodd" d="M236.717 77.8627C236.717 74.6879 234.149 72.1144 230.981 72.1144C227.814 72.1144 225.245 74.6879 225.245 77.8627C225.245 81.0375 227.814 83.6115 230.981 83.6115C234.149 83.6115 236.717 81.0375 236.717 77.8627" fill="#EB595E"/>
<path opacity="0.504" fill-rule="evenodd" clip-rule="evenodd" d="M212.34 50.5572C211.96 50.5578 211.595 50.7094 211.327 50.9788C211.058 51.2482 210.907 51.6133 210.906 51.9943V63.4914C210.907 63.8724 211.058 64.2377 211.327 64.507C211.596 64.7764 211.96 64.928 212.34 64.9285H249.622C250.003 64.928 250.367 64.7763 250.636 64.5069C250.905 64.2374 251.056 63.872 251.057 63.4909V51.9948C251.056 51.6136 250.905 51.2483 250.636 50.9788C250.367 50.7093 250.003 50.5577 249.622 50.5572H212.34V50.5572ZM249.622 67.8031H212.34C209.968 67.8031 208.038 65.8685 208.038 63.4914V51.9943C208.038 49.6172 209.968 47.6825 212.34 47.6825H249.622C251.994 47.6825 253.925 49.6172 253.925 51.9943V63.4914C253.925 65.8685 251.994 67.8026 249.622 67.8026V67.8031Z" fill="#3D202C"/>
<path opacity="0.504" fill-rule="evenodd" clip-rule="evenodd" d="M205.17 60.6167H208.038V54.8689H205.17V60.6177L205.17 60.6167ZM210.906 63.4914H202.302V51.9943H210.905V63.4914H210.906Z" fill="#3D202C"/>
<path opacity="0.504" fill-rule="evenodd" clip-rule="evenodd" d="M200.868 50.5562C200.488 50.5569 200.124 50.7085 199.855 50.978C199.586 51.2475 199.435 51.6128 199.434 51.9938V63.4904C199.435 63.8716 199.586 64.2371 199.855 64.5067C200.124 64.7762 200.488 64.9277 200.869 64.928C201.249 64.9275 201.613 64.7758 201.882 64.5063C202.151 64.2368 202.302 63.8714 202.302 63.4904V51.9933C202.301 51.6124 202.15 51.2472 201.881 50.9778C201.613 50.7085 201.248 50.5569 200.868 50.5562V50.5562ZM200.868 67.8022C198.496 67.8022 196.566 65.869 196.566 63.4904V51.9933C196.566 49.6167 198.497 47.6821 200.868 47.6821C203.24 47.6821 205.17 49.6167 205.17 51.9933V63.4904C205.17 65.869 203.24 67.8022 200.868 67.8022ZM253.925 54.8694V60.6177H256.792V54.8694H253.924H253.925ZM251.056 63.4919V51.9948H259.66V63.4919H251.056Z" fill="#3D202C"/>
<path opacity="0.504" fill-rule="evenodd" clip-rule="evenodd" d="M261.094 50.5562C260.714 50.5569 260.349 50.7085 260.081 50.978C259.812 51.2475 259.661 51.6128 259.66 51.9938V63.4904C259.66 63.8716 259.812 64.2371 260.081 64.5067C260.349 64.7762 260.714 64.9277 261.095 64.928C261.475 64.9275 261.839 64.7758 262.108 64.5063C262.377 64.2368 262.528 63.8714 262.528 63.4904V51.9933C262.527 51.6124 262.376 51.2472 262.107 50.9778C261.838 50.7085 261.474 50.5569 261.094 50.5562V50.5562ZM261.094 67.8022C258.722 67.8022 256.792 65.869 256.792 63.4904V51.9933C256.792 49.6167 258.723 47.6821 261.094 47.6821C263.466 47.6821 265.396 49.6167 265.396 51.9933V63.4904C265.396 65.869 263.465 67.8022 261.094 67.8022ZM241.019 62.0533H220.944C220.57 62.0436 220.215 61.8879 219.954 61.6195C219.693 61.351 219.547 60.991 219.547 60.6163C219.547 60.2415 219.693 59.8815 219.954 59.6131C220.215 59.3446 220.57 59.1889 220.944 59.1792H241.019C241.393 59.1889 241.748 59.3446 242.009 59.6131C242.27 59.8815 242.416 60.2415 242.416 60.6163C242.416 60.991 242.27 61.351 242.009 61.6195C241.748 61.8879 241.393 62.0436 241.019 62.0533H241.019ZM230.981 73.5514C228.61 73.5514 226.679 75.4861 226.679 77.8627C226.679 80.2398 228.61 82.1739 230.981 82.1739C233.353 82.1739 235.283 80.2393 235.283 77.8627C235.283 75.4856 233.353 73.5514 230.981 73.5514ZM230.981 85.0486C227.028 85.0486 223.811 81.825 223.811 77.8627C223.811 73.9008 227.028 70.6768 230.981 70.6768C234.934 70.6768 238.151 73.9004 238.151 77.8627C238.151 81.8245 234.934 85.0486 230.981 85.0486Z" fill="#3D202C"/>
<path opacity="0.504" fill-rule="evenodd" clip-rule="evenodd" d="M230.981 70.6778C231.976 70.6778 232.953 70.8902 233.849 71.2898V67.8036H228.114V71.2898C229.016 70.8869 229.993 70.6784 230.981 70.6778V70.6778ZM236.717 77.9256L234.203 75.0441C232.526 73.1192 229.437 73.1192 227.759 75.0441L225.245 77.9256V64.929H236.717V77.9256ZM208.037 83.6115C207.788 83.6113 207.544 83.5463 207.328 83.4228C207.112 83.2993 206.931 83.1217 206.804 82.9073C206.678 82.6929 206.609 82.4491 206.604 82.1999C206.6 81.9507 206.66 81.7046 206.779 81.4859L215.383 65.6775C215.565 65.3428 215.872 65.0944 216.237 64.9868C216.602 64.8792 216.995 64.9214 217.328 65.1039C217.662 65.2865 217.91 65.5945 218.018 65.9602C218.125 66.326 218.083 66.7195 217.901 67.0541L209.297 82.8625C209.173 83.0894 208.991 83.2786 208.769 83.4105C208.548 83.5423 208.294 83.6117 208.037 83.6115V83.6115ZM253.926 83.6115C253.668 83.6118 253.415 83.5424 253.193 83.4106C252.971 83.2788 252.789 83.0894 252.665 82.8625L244.061 67.0541C243.971 66.8884 243.914 66.7065 243.894 66.5187C243.874 66.331 243.891 66.1411 243.944 65.96C243.998 65.7788 244.086 65.61 244.204 65.463C244.322 65.316 244.468 65.1938 244.634 65.1034C244.799 65.013 244.981 64.9561 245.168 64.936C245.355 64.9159 245.545 64.9329 245.725 64.9862C245.906 65.0395 246.075 65.1279 246.221 65.2464C246.368 65.3649 246.49 65.5112 246.58 65.677L255.183 81.4854C255.303 81.7042 255.363 81.9503 255.359 82.1996C255.354 82.4488 255.285 82.6927 255.159 82.9072C255.032 83.1216 254.851 83.2993 254.635 83.4228C254.419 83.5463 254.175 83.6113 253.926 83.6115ZM226.679 47.6825H235.283V44.8084C235.283 42.4313 233.353 40.4971 230.981 40.4971C228.61 40.4971 226.679 42.4318 226.679 44.8084V47.6825V47.6825ZM238.151 50.5572H223.812V44.8084C223.812 40.848 227.028 37.623 230.982 37.623C234.935 37.623 238.152 40.848 238.152 44.8084V50.5572H238.151ZM199.434 34.7483H202.302V32.2777C202.302 32.1706 202.26 32.068 202.184 31.9923C202.109 31.9167 202.006 31.8742 201.899 31.8742H199.837C199.784 31.8741 199.732 31.8845 199.683 31.9048C199.634 31.9251 199.59 31.9548 199.552 31.9923C199.515 32.0299 199.485 32.0744 199.465 32.1235C199.445 32.1725 199.434 32.2251 199.434 32.2781V34.7488V34.7483ZM205.17 37.623H196.566V32.2781C196.567 31.409 196.912 30.5757 197.525 29.9611C198.139 29.3466 198.97 29.0009 199.837 29H201.899C202.766 29.0008 203.598 29.3464 204.211 29.961C204.824 30.5756 205.169 31.4089 205.17 32.2781V37.623H205.17Z" fill="#3D202C"/>
<path opacity="0.504" fill-rule="evenodd" clip-rule="evenodd" d="M212.34 37.622H189.397C189.023 37.6122 188.668 37.4565 188.407 37.1881C188.146 36.9197 188 36.5597 188 36.1849C188 35.8101 188.146 35.4502 188.407 35.1817C188.668 34.9133 189.023 34.7576 189.397 34.7478H212.34C212.714 34.7576 213.069 34.9133 213.33 35.1817C213.591 35.4502 213.737 35.8101 213.737 36.1849C213.737 36.5597 213.591 36.9197 213.33 37.1881C213.069 37.4565 212.714 37.6122 212.34 37.622" fill="#3D202C"/>
<path opacity="0.504" fill-rule="evenodd" clip-rule="evenodd" d="M199.434 49.1191H202.302V36.1849H199.434V49.1191ZM259.66 34.7483H262.528V32.2777C262.528 32.1706 262.485 32.068 262.41 31.9923C262.334 31.9167 262.232 31.8742 262.125 31.8742L260.071 31.8839C259.838 31.8839 259.66 32.0569 259.66 32.2781V34.7488V34.7483ZM265.396 37.623H256.792V32.2781C256.792 30.4761 258.259 29.0102 260.063 29.0102L262.118 29C263.929 29 265.395 30.4702 265.395 32.2781V37.623H265.396Z" fill="#3D202C"/>
<path opacity="0.504" fill-rule="evenodd" clip-rule="evenodd" d="M272.566 37.623H249.622C249.249 37.6132 248.893 37.4575 248.632 37.1891C248.371 36.9206 248.225 36.5607 248.225 36.1859C248.225 35.8111 248.371 35.4511 248.632 35.1827C248.893 34.9143 249.249 34.7586 249.622 34.7488H272.566C272.939 34.7586 273.295 34.9143 273.556 35.1827C273.817 35.4511 273.963 35.8111 273.963 36.1859C273.963 36.5607 273.817 36.9206 273.556 37.1891C273.295 37.4575 272.939 37.6132 272.566 37.623" fill="#3D202C"/>
<path opacity="0.504" fill-rule="evenodd" clip-rule="evenodd" d="M259.66 49.1191H262.528V36.1849H259.66V49.1191ZM224.698 53.4314H237.265L238.699 50.5572H223.263L224.698 53.4314V53.4314ZM238.151 56.3055H223.812C223.545 56.3056 223.284 56.2313 223.058 56.091C222.831 55.9507 222.648 55.75 222.528 55.5112L219.66 49.7624C219.44 49.317 219.463 48.7878 219.724 48.3638C219.852 48.1555 220.032 47.9836 220.246 47.8644C220.459 47.7452 220.7 47.6826 220.944 47.6825H241.019C241.263 47.6825 241.504 47.7452 241.717 47.8645C241.931 47.9838 242.11 48.1558 242.239 48.3642C242.367 48.5726 242.44 48.8105 242.451 49.0552C242.462 49.2999 242.41 49.5434 242.301 49.7624L239.433 55.5107C239.314 55.7496 239.131 55.9505 238.905 56.0909C238.679 56.2313 238.418 56.3057 238.151 56.3055V56.3055Z" fill="#3D202C"/>
</g>
</g>
<defs>
<filter id="filter0_d" x="0" y="0" width="462" height="247" filterUnits="userSpaceOnUse" color-interpolation-filters="sRGB">
<feFlood flood-opacity="0" result="BackgroundImageFix"/>
<feColorMatrix in="SourceAlpha" type="matrix" values="0 0 0 0 0 0 0 0 0 0 0 0 0 0 0 0 0 0 127 0"/>
<feOffset dy="4"/>
<feGaussianBlur stdDeviation="2"/>
<feColorMatrix type="matrix" values="0 0 0 0 0 0 0 0 0 0 0 0 0 0 0 0 0 0 0.25 0"/>
<feBlend mode="normal" in2="BackgroundImageFix" result="effect1_dropShadow"/>
<feBlend mode="normal" in="SourceGraphic" in2="effect1_dropShadow" result="shape"/>
</filter>
</defs>
</svg>
