<svg xmlns="http://www.w3.org/2000/svg" xmlns:xlink="http://www.w3.org/1999/xlink" width="538" height="378" viewBox="0 0 538 378">
    <defs>
        <path id="a" d="M74.52 140.67a46.63 46.63 0 0 1-1.183-.731c-1.665-11.63-7.458-18.826-13.73-21.993-.256-12.08 17.677-7.18 13.567-18.282-1.409-3.807-4.988-4.575-9.46-4.575-1.512 0-3.128.088-4.794.177-1.668.088-3.388.176-5.11.176-7.268 0-14.578-1.57-18.192-11.327-5.817-15.707 12.192-17.983 6.584-22.433-1.632-1.293-3.942-1.6-6.57-1.6-1.191 0-2.448.063-3.735.127-1.287.062-2.605.125-3.92.125-4.185 0-8.347-.638-11.392-3.946-1.659-1.801-2.67-3.985-2.766-6.356-.13-3.202 1.412-6.745 5.289-10.149 3.185-2.797 5.426-7.213-1.942-7.213-.89 0-1.918.065-3.102.204a13.28 13.28 0 0 1-1.537.091c-8.268 0-14.006-7.969-11.304-14.179.873-2.005 2.626-3.83 5.458-5.14.21-.098.425-.192.646-.283 2.297-.947 4.55-1.278 6.693-1.278 2.475 0 4.804.441 6.884.88 1.205.256 2.327.51 3.346.68.74.123 1.423.2 2.046.2.172 0 .338-.006.501-.018.494-.038.937-.1 1.336-.182 5.06-1.047 2.806-5.493 4.453-9.097.629-1.38 1.834-2.638 4.24-3.532C37.998.579 39.053.388 40.02.388c3.06 0 5.22 1.929 7.309 4.16 2.508 2.68 4.914 5.8 8.65 6.538.468.092.92.135 1.36.135 2.65 0 4.872-1.544 7.317-3.088 2.443-1.544 5.109-3.089 8.649-3.089 2.19 0 4.716.591 7.732 2.14 2.422 1.246 4.091 3.591 5.28 6.461 3.948 9.528 2.6 24.833 5.96 24.83.603 0 1.359-.494 2.323-1.603 1.695-1.948 3.715-3.235 5.886-3.907a12.663 12.663 0 0 1 3.767-.564c7.6 0 15.747 6.494 17.883 17.631a30.78 30.78 0 0 1 .537 5.786c-8.48 6.436-15.793 14.05-22.085 22.625-15.367-24.892-40.79-47.987-82.843-55.636C55.803 33.281 80.25 51.885 96.681 84.085c-8.15 12.48-14.395 26.735-19.13 42.186-1.295 4.222-2.325 9.074-3.03 14.398"/>
        <linearGradient id="b" x1="70.991%" x2="48.952%" y1="111.105%" y2="-3.244%">
            <stop offset="0%" stop-color="#FF7D84"/>
            <stop offset="100%" stop-color="#E5A8C2"/>
        </linearGradient>
        <path id="d" d="M79.565 61.183C63.09 29.067 38.579 10.511.42.065c42.163 7.629 67.654 30.664 83.06 55.492a124.644 124.644 0 0 0-3.915 5.626"/>
        <path id="f" d="M16.49 76.77c-1.384 0-2.547-1.77-4.009-3.541-1.187-1.437-2.571-2.876-4.429-3.366C14.825 41.05 29.358 24.07 56.602 12.65 28.862 21.474 14.5 39.894 7.146 58.101 7.626 46.823 4.918 36.127.051 26.46a8.862 8.862 0 0 1 3.435-.716c1.914 0 3.81.675 5.442 2.13.647.578 1.138.838 1.512.838 2.973 0-1.607-16.535 4.67-20.86 2.214-1.527 4.072-2.058 5.703-2.058 1.853 0 3.413.684 4.87 1.367 1.456.683 2.81 1.366 4.251 1.366.46 0 .932-.07 1.417-.233C35.789 6.807 36.395.137 41.239.137c.446 0 .927.056 1.453.18 5.974 1.394 1.738 7.355 7.031 7.355.125 0 .256-.003.393-.009 2.184-.109 5.499-2.251 9.523-2.251.903 0 1.84.107 2.809.37 8.729 2.364 5.087 12.902-2.681 12.98-7.092.073-5.154 3.172-2.63 4.879 4.771 3.226 5.086 7.297 2.957 10.312-3.864 5.473-12.728 2.257-15.84 5.46-2.299 2.366 3.053 3.023 5.358 7.09.906 1.597 1.341 3.717.663 6.671C48.8 59.6 44.382 61.24 39.83 61.85c-1.439-.828-3.166-1.286-5.012-1.286-4.679 0-10.118 2.943-13.523 10.261-2.062 4.43-3.528 5.945-4.806 5.945"/>
        <linearGradient id="g" x1="32.082%" x2="42.891%" y1="135.555%" y2="-1.617%">
            <stop offset="0%" stop-color="#543D84"/>
            <stop offset="100%" stop-color="#E5A8C2"/>
        </linearGradient>
        <path id="i" d="M2.892 57.501a5.284 5.284 0 0 0-1.353-.174c-.178 0-.361.008-.549.026-.206.02-.408.045-.609.074a62.122 62.122 0 0 0 1.617-11.643C9.255 27.646 23.43 9.296 50.807.504 23.918 11.882 9.575 28.798 2.892 57.502"/>
        <path id="k" d="M112.006 114.339c-10.984 0-21.87-3.184-27.458-13.868-5.438-10.402 11.577-12.3 4.07-20.274-1.274-1.35-2.71-1.88-4.287-1.88-2.824 0-6.093 1.699-9.65 3.398-3.556 1.698-7.401 3.397-11.381 3.397-3.528 0-7.161-1.336-10.793-5.192a20.323 20.323 0 0 1-1.214-1.408C43.206 68.16 55.563 60.8 49.66 59.07a5.387 5.387 0 0 0-1.527-.21c-2.373 0-5.028 1.346-7.87 2.694-2.841 1.347-5.873 2.694-8.998 2.694a9.973 9.973 0 0 1-4.298-.955c-4.705-2.206-7.282-7.368-3.977-14.56 1.245-2.705 1.627-6.061-1.287-6.061-1.187 0-2.917.555-5.357 1.935a10.751 10.751 0 0 1-5.332 1.415c-7.67 0-14.242-8.156-7.247-15.353 5.217-5.368 12.69-4.497 15.948-6.169 7.184-3.681-2.742-8.09 3.455-14.018 1.572-1.504 3.123-2.053 4.673-2.053 2.12 0 4.24 1.027 6.406 2.055 2.167 1.027 4.382 2.055 6.696 2.055.47 0 .943-.043 1.421-.137C48.93 11.122 47.843.64 59.322.64c.607 0 1.25.028 1.927.09 10.116.914 16.569 22.28 20.184 22.279.632 0 1.177-.653 1.64-2.18 1.57-5.186 5.973-7.897 11.067-7.897 2.437 0 5.031.62 7.55 1.889 6.272 3.16 12.065 10.342 13.73 21.95l.001.006c.237 1.646.49 3.08.764 4.323-.703 6.945-.872 14.594-.39 22.652-18.02-16.646-43.18-31.365-75.81-31.365-7.695 0-15.798.817-24.33 2.622 6.154-.729 12.055-1.101 17.737-1.101 32.639 0 58.094 12.275 83.295 39.645 1.556 12.733 4.736 26.148 9.958 39.204-4.568.917-9.615 1.584-14.639 1.583"/>
        <linearGradient id="l" x1="100.522%" x2="31.149%" y1="94.67%" y2="7.586%">
            <stop offset="0%" stop-color="#570025"/>
            <stop offset="100%" stop-color="#FF7D84"/>
        </linearGradient>
        <path id="n" d="M101.396 42.398C76.209 14.62 50.769 2.162 18.148 2.162 12.47 2.162 6.572 2.54.422 3.28 8.949 1.448 17.048.62 24.739.62c32.61 0 57.756 14.938 75.764 31.832.192 3.256.488 6.578.893 9.947"/>
        <path id="p" d="M28.55 60.814c-11.2 0-23.966-10.41-27.003-13.032C22.777 31.623 40.29 23.588 57.97 23.588c11.083 0 22.236 3.16 34.404 9.456-13.473-8.514-26.35-11.67-38.058-11.67-25.474 0-45.371 14.968-53.563 22.273a88.662 88.662 0 0 1 .055-4.208C8.573 29.495 13.31 19.603 15.61 10.004c.204-.029.41-.055.618-.074.19-.018.376-.026.557-.026.485 0 .942.062 1.373.174 1.86.488 3.247 1.92 4.436 3.351 1.465 1.764 2.63 3.527 4.015 3.527 1.28 0 2.748-1.508 4.814-5.92C34.834 3.749 40.282.817 44.968.817c1.85 0 3.58.457 5.021 1.282 2.387 1.366 3.977 3.744 3.987 6.738.005 1.243.31 1.746.854 1.746 1.151 0 3.37-2.272 6.024-4.543 2.654-2.273 5.744-4.546 8.64-4.546.47 0 .935.06 1.391.19 8.453 2.388 5.405 9.038 9.36 11.455 1.054.643 2.203.814 3.375.814.66 0 1.325-.053 1.985-.107.66-.055 1.313-.108 1.948-.108 1.84 0 3.518.454 4.707 2.677 2.69 5.031-4.143 5.412-.446 9.31 1.677 1.769 6.377 2.968 8.572 7.434 2.42 4.921-.843 8.114-4.667 8.114-1.908 0-3.952-.792-5.505-2.56-1.625-1.848-2.76-2.541-3.523-2.541-1.24 0-1.495 1.828-1.265 3.508.34 2.477-.067 4.349-.946 5.652-.94 1.397-2.426 2.14-4.113 2.27a6.622 6.622 0 0 1-.487.017c-2.043 0-3.753-1-5.285-2.287-2.667-2.241-4.803-5.347-7.252-5.544a3.142 3.142 0 0 0-.232-.011c-2.053 0-.788 2.567-.892 5.555a7.698 7.698 0 0 1-.367 2.165c-.456 1.375-1.41 2.733-3.291 3.879-.23.14-.473.278-.734.41-1.653.856-3.159 1.214-4.546 1.214-1.872 0-3.524-.654-5.027-1.624-1.406-.908-2.68-2.095-3.879-3.28-.98-.974-1.91-1.945-2.82-2.764-.33-.3-.66-.578-.987-.83-1.038-.796-2.064-1.313-3.126-1.313a3.48 3.48 0 0 0-1.61.41c-.276.144-.518.291-.73.44-.566.404-.911.836-1.096 1.293-.695 1.727.93 3.809 1.744 6.044.503 1.385.697 2.831-.168 4.285-.236.398-.55.793-.957 1.19-2.93 2.854-6.419 3.963-10.076 3.963"/>
        <linearGradient id="q" x1="8.363%" x2="83.086%" y1="66.54%" y2="34.77%">
            <stop offset="0%" stop-color="#85223F"/>
            <stop offset="100%" stop-color="#E66A76"/>
        </linearGradient>
        <path id="s" d="M1.532 27.412c-.434-.389-.666-.61-.666-.61S.817 26.101.78 24.89a81.709 81.709 0 0 1-.034-1.735C8.862 15.634 28.574.226 53.81.226c11.598 0 24.356 3.25 37.703 12.013C79.46 5.76 68.41 2.504 57.431 2.504c-17.517 0-34.867 8.273-55.899 24.908"/>
        <path id="u" d="M14.076 31.899c-1.055-2.521.598-6.385 1.662-9.634-2.364 6.493-9.38 8.04-12.082 8.4-.674.089-1.08.105-1.08.105.047-.205.095-.407.143-.61C4.575 22.588 7.93 17.68 7.93 17.68c-1.608 1.253-3.1 1.64-4.33 1.64-1.978 0-3.275-1.002-3.275-1.002 4.149-5.64 3.273-11.744 7.988-14.659 4.263-2.637 5.686-.225 8.85-3.4a49.54 49.54 0 0 1 4.534 2.638l-5.89 7.245a2.804 2.804 0 0 0-.633 1.784 2.822 2.822 0 0 0 2.825 2.816c.822 0 1.637-.356 2.195-1.043l5.895-7.249a49.68 49.68 0 0 1 3.637 4.02c-1.846 3.107.563 4.387-2.133 10.685C24.678 27.963 14.077 31.9 14.077 31.9"/>
        <linearGradient id="v" x1="14.238%" x2="83.699%" y1="97.123%" y2="5.186%">
            <stop offset="0%" stop-color="#EE9F44"/>
            <stop offset="100%" stop-color="#DC3D3E"/>
        </linearGradient>
        <path id="x" d="M1.218 38.136a2.827 2.827 0 0 1-.412-3.977L28.002.648a1.042 1.042 0 0 1 1.467-.153l2.769 2.248c.449.362.516 1.019.154 1.466L5.193 37.722a2.825 2.825 0 0 1-3.975.414"/>
        <radialGradient id="y" cx="-.168%" cy="102.122%" r="10.368%" fx="-.168%" fy="102.122%" gradientTransform="matrix(.77651 .53102 -.6553 .68059 .669 .327)">
            <stop offset="0%" stop-color="#435272"/>
            <stop offset="100%" stop-color="#1A304A"/>
        </radialGradient>
    </defs>
    <g fill="none" fill-rule="evenodd">
        <ellipse cx="269" cy="253" fill="#E8ECED" rx="269" ry="125"/>
        <g transform="translate(42 47.515)">
            <mask id="c" fill="#fff">
                <use xlink:href="#a"/>
            </mask>
            <path fill="url(#b)" d="M74.52 140.67a46.63 46.63 0 0 1-1.183-.731c-1.665-11.63-7.458-18.826-13.73-21.993-.256-12.08 17.677-7.18 13.567-18.282-1.409-3.807-4.988-4.575-9.46-4.575-1.512 0-3.128.088-4.794.177-1.668.088-3.388.176-5.11.176-7.268 0-14.578-1.57-18.192-11.327-5.817-15.707 12.192-17.983 6.584-22.433-1.632-1.293-3.942-1.6-6.57-1.6-1.191 0-2.448.063-3.735.127-1.287.062-2.605.125-3.92.125-4.185 0-8.347-.638-11.392-3.946-1.659-1.801-2.67-3.985-2.766-6.356-.13-3.202 1.412-6.745 5.289-10.149 3.185-2.797 5.426-7.213-1.942-7.213-.89 0-1.918.065-3.102.204a13.28 13.28 0 0 1-1.537.091c-8.268 0-14.006-7.969-11.304-14.179.873-2.005 2.626-3.83 5.458-5.14.21-.098.425-.192.646-.283 2.297-.947 4.55-1.278 6.693-1.278 2.475 0 4.804.441 6.884.88 1.205.256 2.327.51 3.346.68.74.123 1.423.2 2.046.2.172 0 .338-.006.501-.018.494-.038.937-.1 1.336-.182 5.06-1.047 2.806-5.493 4.453-9.097.629-1.38 1.834-2.638 4.24-3.532C37.998.579 39.053.388 40.02.388c3.06 0 5.22 1.929 7.309 4.16 2.508 2.68 4.914 5.8 8.65 6.538.468.092.92.135 1.36.135 2.65 0 4.872-1.544 7.317-3.088 2.443-1.544 5.109-3.089 8.649-3.089 2.19 0 4.716.591 7.732 2.14 2.422 1.246 4.091 3.591 5.28 6.461 3.948 9.528 2.6 24.833 5.96 24.83.603 0 1.359-.494 2.323-1.603 1.695-1.948 3.715-3.235 5.886-3.907a12.663 12.663 0 0 1 3.767-.564c7.6 0 15.747 6.494 17.883 17.631a30.78 30.78 0 0 1 .537 5.786c-8.48 6.436-15.793 14.05-22.085 22.625-15.367-24.892-40.79-47.987-82.843-55.636C55.803 33.281 80.25 51.885 96.681 84.085c-8.15 12.48-14.395 26.735-19.13 42.186-1.295 4.222-2.325 9.074-3.03 14.398" mask="url(#c)"/>
        </g>
        <g transform="translate(59 70.515)">
            <mask id="e" fill="#fff">
                <use xlink:href="#d"/>
            </mask>
            <path fill="#FFE4E4" d="M79.565 61.183C63.09 29.067 38.579 10.511.42.065c42.163 7.629 67.654 30.664 83.06 55.492a124.644 124.644 0 0 0-3.915 5.626" mask="url(#e)"/>
        </g>
        <g transform="translate(430 192.515)">
            <mask id="h" fill="#fff">
                <use xlink:href="#f"/>
            </mask>
            <path fill="url(#g)" d="M16.49 76.77c-1.384 0-2.547-1.77-4.009-3.541-1.187-1.437-2.571-2.876-4.429-3.366C14.825 41.05 29.358 24.07 56.602 12.65 28.862 21.474 14.5 39.894 7.146 58.101 7.626 46.823 4.918 36.127.051 26.46a8.862 8.862 0 0 1 3.435-.716c1.914 0 3.81.675 5.442 2.13.647.578 1.138.838 1.512.838 2.973 0-1.607-16.535 4.67-20.86 2.214-1.527 4.072-2.058 5.703-2.058 1.853 0 3.413.684 4.87 1.367 1.456.683 2.81 1.366 4.251 1.366.46 0 .932-.07 1.417-.233C35.789 6.807 36.395.137 41.239.137c.446 0 .927.056 1.453.18 5.974 1.394 1.738 7.355 7.031 7.355.125 0 .256-.003.393-.009 2.184-.109 5.499-2.251 9.523-2.251.903 0 1.84.107 2.809.37 8.729 2.364 5.087 12.902-2.681 12.98-7.092.073-5.154 3.172-2.63 4.879 4.771 3.226 5.086 7.297 2.957 10.312-3.864 5.473-12.728 2.257-15.84 5.46-2.299 2.366 3.053 3.023 5.358 7.09.906 1.597 1.341 3.717.663 6.671C48.8 59.6 44.382 61.24 39.83 61.85c-1.439-.828-3.166-1.286-5.012-1.286-4.679 0-10.118 2.943-13.523 10.261-2.062 4.43-3.528 5.945-4.806 5.945" mask="url(#h)"/>
        </g>
        <g transform="translate(436 205.515)">
            <mask id="j" fill="#fff">
                <use xlink:href="#i"/>
            </mask>
            <path fill="#FFE4E4" d="M2.892 57.501a5.284 5.284 0 0 0-1.353-.174c-.178 0-.361.008-.549.026-.206.02-.408.045-.609.074a62.122 62.122 0 0 0 1.617-11.643C9.255 27.646 23.43 9.296 50.807.504 23.918 11.882 9.575 28.798 2.892 57.502" mask="url(#j)"/>
        </g>
        <g transform="translate(0 150.515)">
            <mask id="m" fill="#fff">
                <use xlink:href="#k"/>
            </mask>
            <path fill="url(#l)" d="M112.006 114.339c-10.984 0-21.87-3.184-27.458-13.868-5.438-10.402 11.577-12.3 4.07-20.274-1.274-1.35-2.71-1.88-4.287-1.88-2.824 0-6.093 1.699-9.65 3.398-3.556 1.698-7.401 3.397-11.381 3.397-3.528 0-7.161-1.336-10.793-5.192a20.323 20.323 0 0 1-1.214-1.408C43.206 68.16 55.563 60.8 49.66 59.07a5.387 5.387 0 0 0-1.527-.21c-2.373 0-5.028 1.346-7.87 2.694-2.841 1.347-5.873 2.694-8.998 2.694a9.973 9.973 0 0 1-4.298-.955c-4.705-2.206-7.282-7.368-3.977-14.56 1.245-2.705 1.627-6.061-1.287-6.061-1.187 0-2.917.555-5.357 1.935a10.751 10.751 0 0 1-5.332 1.415c-7.67 0-14.242-8.156-7.247-15.353 5.217-5.368 12.69-4.497 15.948-6.169 7.184-3.681-2.742-8.09 3.455-14.018 1.572-1.504 3.123-2.053 4.673-2.053 2.12 0 4.24 1.027 6.406 2.055 2.167 1.027 4.382 2.055 6.696 2.055.47 0 .943-.043 1.421-.137C48.93 11.122 47.843.64 59.322.64c.607 0 1.25.028 1.927.09 10.116.914 16.569 22.28 20.184 22.279.632 0 1.177-.653 1.64-2.18 1.57-5.186 5.973-7.897 11.067-7.897 2.437 0 5.031.62 7.55 1.889 6.272 3.16 12.065 10.342 13.73 21.95l.001.006c.237 1.646.49 3.08.764 4.323-.703 6.945-.872 14.594-.39 22.652-18.02-16.646-43.18-31.365-75.81-31.365-7.695 0-15.798.817-24.33 2.622 6.154-.729 12.055-1.101 17.737-1.101 32.639 0 58.094 12.275 83.295 39.645 1.556 12.733 4.736 26.148 9.958 39.204-4.568.917-9.615 1.584-14.639 1.583" mask="url(#m)"/>
        </g>
        <g transform="translate(15 182.515)">
            <mask id="o" fill="#fff">
                <use xlink:href="#n"/>
            </mask>
            <path fill="#FFE4E4" d="M101.396 42.398C76.209 14.62 50.769 2.162 18.148 2.162 12.47 2.162 6.572 2.54.422 3.28 8.949 1.448 17.048.62 24.739.62c32.61 0 57.756 14.938 75.764 31.832.192 3.256.488 6.578.893 9.947" mask="url(#o)"/>
        </g>
        <g transform="translate(420 252.515)">
            <mask id="r" fill="#fff">
                <use xlink:href="#p"/>
            </mask>
            <path fill="url(#q)" d="M28.55 60.814c-11.2 0-23.966-10.41-27.003-13.032C22.777 31.623 40.29 23.588 57.97 23.588c11.083 0 22.236 3.16 34.404 9.456-13.473-8.514-26.35-11.67-38.058-11.67-25.474 0-45.371 14.968-53.563 22.273a88.662 88.662 0 0 1 .055-4.208C8.573 29.495 13.31 19.603 15.61 10.004c.204-.029.41-.055.618-.074.19-.018.376-.026.557-.026.485 0 .942.062 1.373.174 1.86.488 3.247 1.92 4.436 3.351 1.465 1.764 2.63 3.527 4.015 3.527 1.28 0 2.748-1.508 4.814-5.92C34.834 3.749 40.282.817 44.968.817c1.85 0 3.58.457 5.021 1.282 2.387 1.366 3.977 3.744 3.987 6.738.005 1.243.31 1.746.854 1.746 1.151 0 3.37-2.272 6.024-4.543 2.654-2.273 5.744-4.546 8.64-4.546.47 0 .935.06 1.391.19 8.453 2.388 5.405 9.038 9.36 11.455 1.054.643 2.203.814 3.375.814.66 0 1.325-.053 1.985-.107.66-.055 1.313-.108 1.948-.108 1.84 0 3.518.454 4.707 2.677 2.69 5.031-4.143 5.412-.446 9.31 1.677 1.769 6.377 2.968 8.572 7.434 2.42 4.921-.843 8.114-4.667 8.114-1.908 0-3.952-.792-5.505-2.56-1.625-1.848-2.76-2.541-3.523-2.541-1.24 0-1.495 1.828-1.265 3.508.34 2.477-.067 4.349-.946 5.652-.94 1.397-2.426 2.14-4.113 2.27a6.622 6.622 0 0 1-.487.017c-2.043 0-3.753-1-5.285-2.287-2.667-2.241-4.803-5.347-7.252-5.544a3.142 3.142 0 0 0-.232-.011c-2.053 0-.788 2.567-.892 5.555a7.698 7.698 0 0 1-.367 2.165c-.456 1.375-1.41 2.733-3.291 3.879-.23.14-.473.278-.734.41-1.653.856-3.159 1.214-4.546 1.214-1.872 0-3.524-.654-5.027-1.624-1.406-.908-2.68-2.095-3.879-3.28-.98-.974-1.91-1.945-2.82-2.764-.33-.3-.66-.578-.987-.83-1.038-.796-2.064-1.313-3.126-1.313a3.48 3.48 0 0 0-1.61.41c-.276.144-.518.291-.73.44-.566.404-.911.836-1.096 1.293-.695 1.727.93 3.809 1.744 6.044.503 1.385.697 2.831-.168 4.285-.236.398-.55.793-.957 1.19-2.93 2.854-6.419 3.963-10.076 3.963" mask="url(#r)"/>
        </g>
        <g transform="translate(420 273.515)">
            <mask id="t" fill="#fff">
                <use xlink:href="#s"/>
            </mask>
            <path fill="#FFE4E4" d="M1.532 27.412c-.434-.389-.666-.61-.666-.61S.817 26.101.78 24.89a81.709 81.709 0 0 1-.034-1.735C8.862 15.634 28.574.226 53.81.226c11.598 0 24.356 3.25 37.703 12.013C79.46 5.76 68.41 2.504 57.431 2.504c-17.517 0-34.867 8.273-55.899 24.908" mask="url(#t)"/>
        </g>
        <path fill="#FFBCBC" d="M224.474 81.57c-59.48 5.868-90.188 43.197-105.37 92.906-12.551 41.086-.086 141.231 90.973 165.033 58.792 15.366 155.25 16.579 206.788-41.303 46.323-52.024 7.826-104.051-32.55-120.554-73.611-30.085-49.079-107.008-159.84-96.083"/>
        <path fill="#FF7D84" d="M281.992 254.515c-10.378-.332-20.225-1.517-29.45-3.431 1.577-.435 3.184-.911 4.819-1.427 7.89 1.605 16.471 3.143 25.047 4.606-.145.089-.27.165-.416.252m-50.569-9.443c-38.162-14.09-61.42-41.99-61.423-71.45-.003-40.506 9.731-57.306 34.184-69.107.565 21.538 4.978 58.116 5.864 64.335l.012.075.001.017c.058.395.099.653.121.761v.002l.006.029c0 .001.002.001.002.003v.003l.001.001v.003c.373 1.32 1.494 44.874 3.548 47.893 1.25 1.837 3.54 3.253 5.138 4.081 2.936 5.974 9.067 15.683 19.973 21.9-2.56.566-5.04 1.05-7.427 1.454m62.123-53.958l-4.198-39.846s4.882 6.114 11.652 13.57l-5.002 25.885-2.452.391"/>
        <path fill="#FFE4E4" d="M257.151 341.515c-14.418 0-27.496-1.8-39.322-5.02 7.944-2.926 16.078-6.446 24.368-10.6 28.928 8.291 54.846 9.021 63.086 9.021 1.762 0 2.717-.033 2.717-.033-18.54 4.578-35.454 6.632-50.849 6.632m-68.62-17.083c-4.85-2.77-9.4-5.815-13.657-9.08 8.471-1.123 17.61-3.089 27.39-6.092 4.834 2.8 9.768 5.293 14.74 7.516-9.81 3.338-19.33 5.87-28.473 7.656m-31.382-25.67c-26.11-29.626-35.825-67.948-33.917-92.13 2.128-26.975 23.47-73.117 23.47-73.117-6.515 24.022-17.372 70.86 4.993 121.006 7.49 16.793 18.169 30.082 30.48 40.601-8.886 1.8-17.246 2.974-25.026 3.64M401.771 294.515s22.69-29.39 9.367-57.84c-6.169-13.174-24.474-22.017-35.154-29.566a610.718 610.718 0 0 0 12.821-17.647c11.731 3.345 24.336 15.338 32.072 32.212 9.899 21.594 10.545 51.928-19.106 72.841m-29.605-90.364c-5.044-4.415-6.293-8.501.704-12.942 2.884-1.83 6.112-2.694 9.514-2.694.89 0 1.79.06 2.7.176a552.047 552.047 0 0 1-12.918 15.46"/>
        <path fill="#3D202C" d="M400.24 334.515s31.286 5.107 34.051 7.376c2.766 2.266-3.267 5.372-6.033 5.848-2.765.479-35.95 2.148-39.972-1.67-4.022-3.82-1.513-9.18-1.513-9.18l13.467-2.374M303.271 286.515s-8.667 6.665-8.257 11.345c.41 4.68 11.705 16.934 23.672 22.716 4.582 2.213 11.77.515 6.409-5.094-2.235-2.337-7.719-13.391-10.377-19.903-2.864-7.01-11.447-9.064-11.447-9.064"/>
        <path fill="#570025" d="M217 216.53s8.166 25.996 34.707 31.779c34.459 7.505 87.561 13.635 90.806 17.64 3.248 4.003 42.157 72.561 48.898 76.566L401 336.79s-38.678-92.986-43.921-97.49c-5.244-4.505-75.907-34.78-75.907-34.78S255.203 177.747 217 216.53"/>
        <path fill="#3D202C" d="M231.272 237.515C225.044 231.97 221.161 225.58 219 221.2c1.026.53 1.767.817 1.767.817s11.78-9.8 21.69-12.063c.559-.128 1.22-.274 1.97-.439 17.788 5.442 45.96 14.01 47.002 14.01h.018c.054-.011.304-.077.726-.191a277.952 277.952 0 0 1-9.59 4.653c-4.024-.906-8.212-2.45-11.874-3.047-6.049-.986-12.791-3.083-19.227-3.083-3.612 0-7.125.66-10.365 2.547-4.879 2.843-8.459 7.712-9.845 13.111M323 223.572c-1.923-.191-3.856-.383-5.796-.684-2.071-.32-4.032-.756-5.993-.996.587-.4 1.165-.797 1.755-1.208 3.226.948 6.83 1.945 10.034 2.888"/>
        <path fill="#C2A043" d="M379 326.515c-13.91-21.81-34.547-58.335-36.867-61.234a.021.021 0 0 0-.005-.007l.005.007c2.32 2.899 22.957 39.425 36.867 61.234m-36.905-61.279c-.206-.234-.575-.473-1.095-.72.52.246.889.486 1.095.72"/>
        <path fill="#3D202C" d="M391.229 342.515c-1.903-1.122-6.358-7.326-11.853-15.758-14.047-21.557-34.89-57.658-37.232-60.523l-.005-.006-.001-.002c0-.002-.002-.003-.003-.005-.002-.001-.002-.001-.002-.003l-.004-.003-.002-.001c0-.002-.001-.003-.003-.005l-.001-.003-.005-.004-.001-.002-.005-.004v-.002a.021.021 0 0 0-.006-.004c-.208-.232-.581-.47-1.106-.713 6.581-7.288 13.167-15.015 18.288-21.962l.135.245c-8.05 20.435.37 41.072 10.829 59.001 7.571 12.982 15.357 25.857 24.748 37.518l-3.771 2.236"/>
        <path fill="#C2A043" d="M314 259.515"/>
        <path fill="#3D202C" d="M313.54 259.515a2447.12 2447.12 0 0 0-9.54-1.511 61.58 61.58 0 0 1 4.508-7.163 14.894 14.894 0 0 0 1.466-1.9c1.288-1.585 2.786-3.571 4.447-5.68a583.205 583.205 0 0 0 17.237-14.568 9.587 9.587 0 0 1 1.342-.178c-.008.08-.058.153-.155.22a1.083 1.083 0 0 0-.062.047c-2.03 1.484-8.938 9.17-19.242 30.733"/>
        <path fill="#570025" d="M337.09 194.765s35.746 13.027 32.73 30.315c-3.018 17.29-55.847 68.528-55.847 68.528s-7.328 4.255-11.973-5.668c16.8-45.196 28.347-58.723 30.925-60.603 2.576-1.88-28.71-8.276-28.744-10.525-.032-2.25 23.658-24.913 32.91-22.047"/>
        <path fill="#234662" d="M333 227.515c.014-.183-.17-.394-.524-.627h.002c.351.233.536.444.521.627m-7.5-3.254c-.799-.243-1.635-.493-2.499-.746h.002c.862.253 1.7.503 2.497.746"/>
        <path fill="#18344F" d="M324 224.515h-.002c-3.193-.98-6.783-2.016-9.998-3 3.215.984 6.805 2.02 10 3M331.861 227.693c.024-.02.052-.042.08-.062.124-.09.188-.188.198-.294-.01.106-.074.204-.196.294l-.082.062"/>
        <path fill="#3D202C" d="M332.524 228.515c-.551 0-.676-.133-.257-.454l.063-.047c.094-.068.143-.143.15-.223.014-.168-.157-.36-.484-.574a665.013 665.013 0 0 0 4.347-3.979c3.576 1.124 8.872 1.77 10.308 2.986-6.514.981-12.406 2.291-14.127 2.291m-7.023-3.703c-.741-.223-1.52-.451-2.323-.683-3.252-.936-6.906-1.927-10.178-2.867a312.368 312.368 0 0 0 7.836-5.506c10.55-3.073 21.086-6.283 26.242-8.258a541.46 541.46 0 0 1-7.859 6.52c-2.35 1.343-4.283 2.797-5.36 4.307a514.313 514.313 0 0 1-8.358 6.487m26-16.026a690.922 690.922 0 0 0 3.826-3.787c.904.59 1.798 1.207 2.673 1.843-1.58.406-3.9 1.074-6.5 1.944m-.756-4.415l.52-1.856c.324.186.65.374.975.567-.497.43-.998.863-1.495 1.289"/>
        <path fill="#EEDBBD" d="M230.738 73.896L229 88.753s17.765 25.815 28 13.372l-.964-20.8s-16.608-9.843-25.298-7.429"/>
        <path fill="#DDBF94" d="M249.394 100.515c-3.955 0-10.278-3.142-20.394-13.097l1.55-13.518c.94-.265 1.971-.385 3.065-.385 8.914 0 21.937 7.874 21.937 7.874L256 91.25h-.01v.08c0 .905-.178 9.185-6.596 9.185"/>
        <path fill="#EEDBBD" d="M275.107 33.201c6.394 7.573 4.14 18.36-1.202 31.121-4.665 11.148-14.07 23.138-17.966 23.193-4.196.06-22.903-5.743-25.516-11.736-2.614-5.994-8.55-15.003-9.211-22.475-.609-6.874-.96-16.401 14.686-24.598 7.268-3.806 30.247-6.117 39.209 4.495"/>
        <path fill="#302A3B" d="M240.555 35.146s3.07 4.382 10.706 7.464c9.711 3.918 21.688 4.46 27.425 3.357 6.474-1.244 14.158-9.078 11.917-19.279 0 0-6.519 1.345-14.566-6.094-8.343-7.71-27.018-17.724-39.903-.933 0 0-12.243-6.063-17.621 11.474-2.881 9.39-2.515 29.342 8.894 38.38l-1.42-9.12s-6.732-3.733-5.016-10.573c1.134-4.511 4.435-4.79 6.511-3.482 2.78 1.752 2.303 4.106 2.988 7.587 1.073.687 3.113-1.491 3.734-6.217.605-4.581 6.029-2.925 6.35-12.564"/>
        <path fill="#474E57" d="M227.079 84.515s-16.25.455-21.489 4.758c-5.24 4.305 4.117 79.298 4.49 80.613.375 1.316 1.499 44.733 3.557 47.742 2.058 3.007 6.924 4.887 6.924 4.887s11.791-9.774 21.71-12.03c9.919-2.256 52.277-10.713 52.277-10.713l-5.116-48.304s19.963 24.87 35.184 35.397c3.706 2.564 20.197-1.313 16.968-5.513-10.98-14.284-16.968-23.243-39.175-57.39-14.548-22.364-31.262-32.578-46.421-33.078 0 0 .506 24.684-28.91-6.369"/>
        <path fill="#CAB746" d="M256.042 90.516l-.084-.002.084.002"/>
        <path fill="#A8AD88" d="M256.007 90.515h-.014.014"/>
        <path fill="#292B2E" d="M251.373 114.515l-.077-.001a66.681 66.681 0 0 1-2.481-.177 20.322 20.322 0 0 0-4.54-2.66c-5.653-2.409-11.456-5.403-15.718-9.975-4.364-4.683-5.975-10.59-7.557-16.666 3.796-.436 6.756-.52 6.756-.52 11.334 12.14 18.215 15.866 22.393 15.865 6.279 0 6.453-8.417 6.453-9.336v-.082h.01l.064.002c.718.028 1.441.092 2.165.163-.456 1.274-.473 2.641-.246 3.998.814 4.873-8.614 6.445 4.405 14.322-.485 1.065-8.824 1.443-10.896 5.026-.296.023-.559.041-.731.041"/>
        <path fill="#CDAC3A" d="M294 190.515l-.549-5.137.549 5.137m-83.878-21.244"/>
        <path fill="#292B2E" d="M221.687 222.515s-4.882-1.865-6.947-4.849c-2.065-2.985-3.192-46.061-3.568-47.367v-.003l-.001-.001v-.002-.001c0-.002-.002-.002-.002-.003l-.006-.029v-.001a16.684 16.684 0 0 1-.121-.753l-.002-.017-.012-.074c-.558-3.857-2.51-19.51-4.028-35.9 1.617-.645 3.094-1.573 4.181-2.883a122.944 122.944 0 0 0 3.263-4.117c8.283 8.996-.86 25.808 6.156 33.782 3.135 3.563 16.854 10.946 20.903 11.204-9.575 6.154-14.544 1.575-20.154 5.968-3.71 2.904-2.405 5.044.642 7.273 4.713 3.444 10.708 4.335 16.663 4.335 3.294 0 6.578-.273 9.622-.538 6.064-.528 11.899-1.88 17.875-2.95a37.779 37.779 0 0 1 6.684-.609c5.175 0 10.028 1.112 15.335 2.914a5.876 5.876 0 0 0 1.91.323c1.68 0 3.215-.747 4.371-1.903l.549 5.12-63.925 10.008v4.361s6.055 1.837 14.368 4.342c-.752.163-1.416.308-1.977.435-9.95 2.238-21.78 11.935-21.78 11.935M292.241 171.515c-1.943-3.238-10.29-28.08-12.241-50 7.235 19.308 10.669 12.781 12.828 22.076 1.006 4.33 5.332 10.036 10.172 15.539l-1.14 5.77c-6.841-7.38-11.775-13.43-11.775-13.43l2.156 20.045"/>
        <path fill="#FDEAE6" d="M230.945 80.515s9.95 13.75 23.055 18.531c0 0-5.342 11.283-6.297 11.467-.954.183-17.023-12.933-23.703-25.258 3.012-.784 4.788-1.701 6.945-4.74"/>
        <path fill="#FDEAE6" d="M256.075 88.515c-.499 3.113-1.847 9.516-3.075 10.154 0 0 7.17 9.972 8.591 9.845 1.42-.129-1.316-17.606-1.316-17.606s-3.05-.959-4.2-2.393"/>
        <path fill="#CBE3DE" d="M231 200.691v4.411s60.561 18.6 61.5 18.412c.937-.19 58.5-16.265 58.5-18.412 0-2.147-43.212-16.587-43.212-16.587L231 200.691"/>
        <path fill="#88ACB4" d="M231 200.692s47.624 14.9 59.998 18.296c1.12.308 1.32 4.564 1.501 4.527.938-.19 58.501-18.412 58.501-18.412l-43.212-16.588L231 200.692"/>
        <path fill="#517D8B" d="M289.398 210.515l-5.442-1.264 8.39-2.197-.546 2.786-2.402.675m-9.927-2.307l-5.094-1.184 9.446-2.184 4.934 1.075-9.286 2.293m-9.3-2.16l-4.78-1.112 9.706-1.993 4.648 1.012-9.573 2.092m20.552-.616l-4.897-1.052 5.448-1.259 1.77.367-.283 1.441-2.038.503m-29.281-1.411l-4.495-1.046 9.917-1.823 4.386.954-9.808 1.915m20.334-.51l-4.617-.992 5.618-1.154 4.528.937-5.529 1.209m-28.543-1.398l-4.234-.986 17.484-2.893 4.068.846-17.318 3.033m35.906-.212l-4.499-.919 5.087-1.045 3.864.762-.047.238-4.405.964m-15.801-.203l-4.36-.935 5.761-1.06 4.287.887-5.688 1.108m7.575-1.477l-4.258-.87 5.228-.961 4.185.825-5.155 1.006m12.808-.182l-2.304-.448 2.492-.512-.188.96m-5.938-1.158l-4.158-.812 4.769-.877 4.083.774-4.694.915m-14.286-.317l-4.034-.822L295 193.515l-.261 1.33-21.24 3.718m20.543-.905l-4.057-.76 4.366-.803.138.026-.296 1.508-.15.029"/>
        <path fill="#88ACB4" d="M303.983 152.907L291 219.665l.905 3.85 58.08-18.239L365 150.706l-1.109-1.19-59.908 3.39"/>
        <path fill="#CBE3DE" d="M305.262 154.261L365 150.515l-14.995 54.713L292 223.515l13.262-69.254"/>
        <path fill="#DAECE8" d="M292 220.515l12.844-66.075L336 152.515c-14.23 22.94-29.998 44.92-44 68"/>
        <path fill="#ABC6C8" d="M334 210.965l2-.9-2 .9M351 152.131l15-1.232-15 1.232"/>
        <path fill="#DAECE8" d="M323.626 213.515c6.224-4.621 12.636-9.726 19.221-15.346a1314.08 1314.08 0 0 1-6.204 11.294l-2.182.68-10.835 3.372M311 213.272c13.198-20.686 27.36-40.77 39.962-61.826l15.038-.93-2.616 9.422c-5.006 9.235-9.93 18.515-14.894 27.771-12.895 10.012-25.449 18.465-37.49 25.563"/>
        <path fill="#EEDBBD" d="M235.966 185.699s13.204-2.663 15.749 0c2.544 2.665.908 4.187.908 4.187s5.634 4.948 5.815 5.52c.182.57 4.18 5.898 1.818 8.562-2.362 2.664-7.996 2.855-9.814 2.284-1.816-.571-5.995-5.709-9.085-6.28-3.09-.57-10.357-4.457-10.357-4.457l4.966-9.816"/>
        <path fill="#474E57" d="M207.134 87.515s-27.526 12.92-35.294 46.647c-7.766 33.726 8.54 49.436 58.607 62.353l4.553-11.66s-34.722-7.057-38.961-31.731c-1.503-8.75 5.432-16.01 11.65-20.626 5.758-4.272 9.102-11.104 8.606-18.277-.727-10.487-2.893-24.007-9.161-26.706"/>
        <g transform="translate(408 104.515)">
            <mask id="w" fill="#fff">
                <use xlink:href="#u"/>
            </mask>
            <path fill="url(#v)" d="M14.076 31.899c-1.055-2.521.598-6.385 1.662-9.634-2.364 6.493-9.38 8.04-12.082 8.4-.674.089-1.08.105-1.08.105.047-.205.095-.407.143-.61C4.575 22.588 7.93 17.68 7.93 17.68c-1.608 1.253-3.1 1.64-4.33 1.64-1.978 0-3.275-1.002-3.275-1.002 4.149-5.64 3.273-11.744 7.988-14.659 4.263-2.637 5.686-.225 8.85-3.4a49.54 49.54 0 0 1 4.534 2.638l-5.89 7.245a2.804 2.804 0 0 0-.633 1.784 2.822 2.822 0 0 0 2.825 2.816c.822 0 1.637-.356 2.195-1.043l5.895-7.249a49.68 49.68 0 0 1 3.637 4.02c-1.846 3.107.563 4.387-2.133 10.685C24.678 27.963 14.077 31.9 14.077 31.9" mask="url(#w)"/>
        </g>
        <path fill="#990838" d="M439.155 115.515s-3.194-4.367-6.727-7.261c-3.533-2.894-8.428-5.15-8.428-5.15l14.57-24.589L460 96.068l-20.845 19.447M513.957 9.515L512 7.953l5.76-6.98a1.276 1.276 0 0 1 1.774-.18c.54.432.624 1.212.183 1.743l-5.76 6.98"/>
        <path fill="#FF7D84" d="M498.807 72.832c19.79-27.47 20.25-54.96 16.098-66.023-11.627-1.805-38.31 4.306-60.99 29.42C432.465 59.98 428.381 78.713 426 95.68c2.33.768 5.507 1.167 11.942 6.414 6.435 5.246 7.479 8.29 8.705 10.421 16.035-5.833 33.441-13.705 52.16-39.683"/>
        <path fill="#990838" d="M486.647 64.967c-5.22 6.432-14.667 7.415-21.099 2.196-6.432-5.221-7.415-14.667-2.195-21.099 5.22-6.433 14.666-7.416 21.098-2.195 6.434 5.22 7.415 14.666 2.196 21.098"/>
        <path fill="#FFBCBC" d="M484.54 61.447c-3.827 4.717-10.754 5.438-15.47 1.608-4.719-3.826-5.438-10.754-1.612-15.471 3.83-4.717 10.756-5.438 15.473-1.61 4.718 3.828 5.438 10.756 1.61 15.473"/>
        <path fill="#9585B2" d="M468 48.515c2.047-2.632 5.01-3.998 8-4-2.99.003-5.955 1.368-8 4"/>
        <path fill="#FFE4E4" d="M465.226 57.515c-.623-3.031.032-6.308 2.065-8.917l.002-.001.022-.03h.002l.022-.03.002-.001c.009-.011.016-.022.024-.03l.046-.059.006-.006a10.504 10.504 0 0 1 8.177-3.926h.018c2.343.002 4.702.791 6.662 2.411l.026.022c.003.001.004.003.007.006l.02.015.006.006.018.015.009.006.016.016a.04.04 0 0 1 .009.007l.016.014.01.008.016.013.009.008.016.015a.033.033 0 0 1 .008.006l.018.015.02.019a.04.04 0 0 0 .01.007 34.134 34.134 0 0 1 .042.037l.006.004a.232.232 0 0 0 .02.019v.001A10.78 10.78 0 0 1 486 53.27a55.29 55.29 0 0 1-2.817.962c-3.58 1.13-4.311 1.294-8.127 1.978a117.821 117.821 0 0 1-9.83 1.306"/>
        <path fill="#C92C56" d="M511.213 49.515c7.298-18.603 6.684-34.841 3.658-42.708-8.473-1.284-24.807 1.47-41.871 12.3 6.947 3.426 13.976 7.855 20.737 13.234 6.761 5.38 12.628 11.212 17.476 17.174"/>
        <path fill="#990838" d="M510.16 54.515a92.583 92.583 0 0 0 1.84-4.393c-4.826-6.001-10.667-11.872-17.397-17.286-6.73-5.415-13.728-9.873-20.644-13.32a96.314 96.314 0 0 0-3.959 2.69c7.322 3.524 14.76 8.19 21.899 13.933 7.137 5.744 13.273 12 18.26 18.376"/>
        <path fill="#CFE5EF" d="M484 90.515c4.881-4.798 9.865-10.656 14.945-17.922a3.44 3.44 0 0 1 .055-.078c-.02.026-.037.052-.055.078-5.08 7.266-10.064 13.124-14.945 17.922"/>
        <path fill="#EB595E" d="M446.89 112.515c-1.088-1.862-2.034-4.421-6.638-8.545l14.64-17.845c11.562-4.523 22.691-10.23 33.586-16.555 7.416-4.306 14.701-8.876 21.522-14.055-2.56 5.539-5.825 11.228-9.937 16.92 0 .002-.002.003-.003.005-.026.038-.054.074-.081.112-.007.007-.013.016-.019.025-.009.014-.02.028-.03.041a.241.241 0 0 1-.023.032l-.028.04-.03.042c-.008.009-.014.02-.022.028-.01.015-.023.034-.035.049a.306.306 0 0 1-.02.027c-.013.02-.027.038-.042.059l-.011.015a3.407 3.407 0 0 0-.057.077c-5.261 7.19-10.421 12.987-15.476 17.735l-1.676-1.345c-12.591 8.863-21.892 14.634-31.305 17.941a39.507 39.507 0 0 1 1.13 3.168 200.233 200.233 0 0 1-5.446 2.03m-11.109-12.132c-5.003-3.582-7.72-3.968-9.78-4.638l.023-.157.001-.012c.055-.384.112-.77.17-1.156 6.22-1.14 12.29-2.69 18.236-4.582l-8.65 10.545"/>
        <path fill="#C92C56" d="M441 56.266l-2.124-1.737c-7.379-.243-35.786 2.419-49.563 36.804-.65 1.62-.268 3.395.971 4.409 1.029.841 2.467 1.008 3.772.442 5.556-2.41 21.336-8.398 35.812-5.821C431.183 80.54 434.92 70.32 441 56.266"/>
        <path fill="#FFFFFE" d="M390.001 95.516c0-.002 0-.002-.002-.002.002 0 .002 0 .002.002"/>
        <path fill="#FFBCBC" d="M391.542 96.515a3.418 3.418 0 0 1-1.24-.63l-.001-.002a.16.16 0 0 0-.017-.014c-.837-.687-1.282-1.722-1.284-2.825 0-.527.102-1.071.313-1.598 13.288-33.27 40.191-36.93 48.701-36.93.312 0 .6.004.862.013L441 56.27c-.262-.009-.547-.014-.86-.014-8.509 0-35.414 3.661-48.702 36.932-.456 1.14-.394 2.35.104 3.326"/>
        <path fill="#C92C56" d="M481.82 88.515l2.126 1.74c1.752 7.238 5.014 35.843-25.54 56.54-1.441.974-3.243.963-4.482-.052-1.029-.843-1.488-2.229-1.206-3.636 1.197-5.982 3.764-22.802-1.718-36.569 9.268-3.322 18.424-9.12 30.82-18.023"/>
        <path fill="#FFBCBC" d="M456.09 147.515a3.45 3.45 0 0 1-2.224-.788 3.433 3.433 0 0 1-.866-1.094c.318.088.648.133.982.133.77 0 1.558-.236 2.263-.713 30.592-20.695 27.326-49.302 25.572-56.538l2.127 1.74c.473 1.95 1.056 5.454 1.056 9.937 0 12.127-4.27 31.428-26.53 46.535l-.097.067c-.71.48-1.507.721-2.283.721"/>
        <g transform="translate(423 79.515)">
            <mask id="z" fill="#fff">
                <use xlink:href="#x"/>
            </mask>
            <path fill="url(#y)" d="M1.218 38.136a2.827 2.827 0 0 1-.412-3.977L28.002.648a1.042 1.042 0 0 1 1.467-.153l2.769 2.248c.449.362.516 1.019.154 1.466L5.193 37.722a2.825 2.825 0 0 1-3.975.414" mask="url(#z)"/>
        </g>
        <path fill="#E36542" d="M425.03 117.875c-1.195-.996-1.377-2.798-.406-4.027l26.818-33.941a1.009 1.009 0 0 1 1.446-.155l2.73 2.277c.443.366.51 1.031.153 1.484l-26.82 33.943a2.736 2.736 0 0 1-3.92.42"/>
        <path fill="#FFBCBC" d="M426.787 118.515c-.619 0-1.24-.21-1.756-.64a2.896 2.896 0 0 1-1.031-2.217 2.897 2.897 0 0 1 .624-1.81l26.817-33.94a1.006 1.006 0 0 1 1.447-.155l2.73 2.277c.253.208.382.515.382.823a1.081 1.081 0 0 1-.23.66l-26.82 33.943a2.75 2.75 0 0 1-2.163 1.06"/>
    </g>
</svg>
