<svg xmlns="http://www.w3.org/2000/svg" width="177" height="115" viewBox="0 0 177 115">
    <g fill="none" fill-rule="evenodd" opacity=".504">
        <path fill="#FF7D84" d="M44.234 112.067a2.949 2.949 0 0 1-2.586-4.362l17.694-32.44a2.949 2.949 0 1 1 5.179 2.825l-17.695 32.44a2.95 2.95 0 0 1-2.592 1.537M138.612 112.067a2.95 2.95 0 0 1-2.593-1.537l-17.695-32.44a2.949 2.949 0 1 1 5.18-2.826l17.694 32.44a2.949 2.949 0 0 1-2.586 4.363M29.491 44.235a2.95 2.95 0 0 1-2.949-2.949V14.744a2.95 2.95 0 0 1 5.898 0v26.542a2.95 2.95 0 0 1-2.949 2.95M153.354 44.235a2.95 2.95 0 0 1-2.949-2.949V14.744a2.95 2.95 0 0 1 5.898 0v26.542a2.95 2.95 0 0 1-2.949 2.95"/>
        <path fill="#FFBCBC" d="M88.474 20.645c-6.515 0-11.797 5.282-11.797 11.797v8.847h23.593v-8.847c0-6.515-5.282-11.797-11.796-11.797"/>
        <path fill="#FFBCBC" d="M50.135 76.677h76.677a5.9 5.9 0 0 0 5.899-5.898V47.186a5.9 5.9 0 0 0-5.899-5.899H50.135a5.9 5.9 0 0 0-5.898 5.899v23.593a5.9 5.9 0 0 0 5.898 5.898"/>
        <path fill="#FFBCBC" d="M44.237 67.831H32.44V50.137h11.797z"/>
        <path fill="#FF7D84" d="M26.542 76.677c-3.244 0-5.898-2.654-5.898-5.898V47.186c0-3.247 2.654-5.899 5.898-5.899 3.244 0 5.898 2.652 5.898 5.899v23.593c0 3.244-2.654 5.898-5.898 5.898"/>
        <path fill="#FFBCBC" d="M132.71 67.831h11.797V50.137H132.71z"/>
        <path fill="#FF7D84" d="M150.405 76.677c3.244 0 5.898-2.654 5.898-5.898V47.186c0-3.247-2.654-5.899-5.898-5.899-3.244 0-5.898 2.652-5.898 5.899v23.593c0 3.244 2.654 5.898 5.898 5.898M32.44 14.746H20.644V6.727A3.778 3.778 0 0 1 24.42 2.95h4.241a3.778 3.778 0 0 1 3.778 3.778v8.019zM156.303 14.746h-11.796V6.727a3.76 3.76 0 0 1 3.778-3.757l4.24-.02a3.778 3.778 0 0 1 3.778 3.777v8.019z"/>
        <path fill="#EB595E" d="M103.22 53.084H73.727L67.83 41.288h41.287z"/>
        <path fill="#FFBCBC" d="M88.474 88.475c3.544 0 6.685 1.596 8.847 4.07V76.679H79.626v15.866c2.162-2.474 5.303-4.07 8.848-4.07"/>
        <path fill="#EB595E" d="M100.27 100.27c0-6.515-5.282-11.796-11.796-11.796-6.515 0-11.797 5.281-11.797 11.796s5.282 11.797 11.797 11.797c6.514 0 11.796-5.282 11.796-11.797"/>
        <path fill="#3D202C" d="M50.135 44.237a2.954 2.954 0 0 0-2.949 2.949v23.593a2.954 2.954 0 0 0 2.95 2.949h76.676a2.954 2.954 0 0 0 2.95-2.95V47.187a2.954 2.954 0 0 0-2.95-2.95H50.135zm76.677 35.39H50.135c-4.878 0-8.847-3.97-8.847-8.848V47.186c0-4.878 3.97-8.848 8.847-8.848h76.677c4.878 0 8.848 3.97 8.848 8.848v23.593c0 4.878-3.97 8.847-8.848 8.847z"/>
        <path fill="#3D202C" d="M35.39 64.88h5.898V53.085h-5.899v11.797zm11.796 5.899H29.49V47.186h17.695v23.593z"/>
        <path fill="#3D202C" d="M26.542 44.235a2.954 2.954 0 0 0-2.949 2.95v23.592a2.952 2.952 0 0 0 2.95 2.95 2.952 2.952 0 0 0 2.948-2.95V47.184a2.954 2.954 0 0 0-2.949-2.949m0 35.39c-4.878 0-8.847-3.967-8.847-8.848V47.184c0-4.877 3.97-8.847 8.847-8.847 4.878 0 8.847 3.97 8.847 8.847v23.593c0 4.881-3.97 8.848-8.847 8.848M135.66 53.086v11.796h5.898V53.086h-5.899zM129.76 70.78V47.187h17.695V70.78h-17.695z"/>
        <path fill="#3D202C" d="M150.405 44.235a2.954 2.954 0 0 0-2.949 2.95v23.592a2.952 2.952 0 0 0 2.95 2.95 2.952 2.952 0 0 0 2.948-2.95V47.184a2.954 2.954 0 0 0-2.949-2.949m0 35.39c-4.878 0-8.847-3.967-8.847-8.848V47.184c0-4.877 3.97-8.847 8.847-8.847 4.878 0 8.847 3.97 8.847 8.847v23.593c0 4.881-3.97 8.848-8.847 8.848M109.117 67.828H67.83a2.95 2.95 0 0 1 0-5.898h41.288a2.95 2.95 0 0 1 0 5.898M88.474 91.423c-4.878 0-8.848 3.97-8.848 8.847 0 4.878 3.97 8.847 8.848 8.847 4.877 0 8.847-3.97 8.847-8.847 0-4.878-3.97-8.847-8.847-8.847m0 23.593c-8.131 0-14.746-6.615-14.746-14.746 0-8.13 6.615-14.746 14.746-14.746 8.13 0 14.745 6.615 14.745 14.746 0 8.13-6.615 14.746-14.745 14.746"/>
        <path fill="#3D202C" d="M88.474 85.526c2.046 0 4.055.436 5.898 1.256v-7.154H82.576v7.154a14.517 14.517 0 0 1 5.898-1.256zm11.796 14.873l-5.17-5.913c-3.45-3.95-9.803-3.95-13.253 0l-5.17 5.913v-26.67h23.593v26.67zM41.285 112.067a2.949 2.949 0 0 1-2.586-4.362l17.694-32.44a2.949 2.949 0 1 1 5.179 2.825l-17.695 32.44a2.95 2.95 0 0 1-2.592 1.537M135.663 112.067a2.95 2.95 0 0 1-2.593-1.537l-17.695-32.44a2.949 2.949 0 1 1 5.18-2.826l17.694 32.44a2.949 2.949 0 0 1-2.586 4.363M79.626 38.338h17.695V32.44c0-4.878-3.97-8.847-8.847-8.847-4.878 0-8.848 3.97-8.848 8.847v5.898zm23.593 5.899H73.73V32.44c0-8.127 6.614-14.745 14.745-14.745 8.13 0 14.746 6.618 14.746 14.745v11.797zM23.593 11.796h5.898v-5.07a.828.828 0 0 0-.828-.828h-4.241a.828.828 0 0 0-.829.829v5.07zm11.796 5.899H17.695V6.727A6.734 6.734 0 0 1 24.422 0h4.24a6.734 6.734 0 0 1 6.728 6.727v10.968z"/>
        <path fill="#3D202C" d="M50.135 17.693H2.95a2.95 2.95 0 0 1 0-5.898h47.186a2.95 2.95 0 0 1 0 5.898"/>
        <path fill="#3D202C" d="M23.593 41.286h5.898V14.744h-5.898zM147.456 11.796h5.898v-5.07a.828.828 0 0 0-.828-.828l-4.226.02c-.478 0-.844.355-.844.809v5.07zm11.796 5.899h-17.694V6.727c0-3.698 3.017-6.706 6.727-6.706L152.51 0c3.725 0 6.741 3.017 6.741 6.727v10.968z"/>
        <path fill="#3D202C" d="M173.998 17.695h-47.186a2.95 2.95 0 0 1 0-5.898h47.186a2.95 2.95 0 0 1 0 5.898"/>
        <path fill="#3D202C" d="M147.456 41.286h5.898V14.744h-5.898zM75.551 50.135h25.846l2.95-5.898H72.601l2.95 5.898zm27.669 5.898H73.729a2.952 2.952 0 0 1-2.64-1.63l-5.898-11.797c-.454-.914-.407-2 .13-2.87a2.953 2.953 0 0 1 2.51-1.398h41.287a2.948 2.948 0 0 1 2.636 4.268l-5.898 11.796a2.943 2.943 0 0 1-2.636 1.631z"/>
    </g>
</svg>
