<svg xmlns="http://www.w3.org/2000/svg" xmlns:xlink="http://www.w3.org/1999/xlink" width="85" height="24" viewBox="0 0 85 24">
    <defs>
        <path id="a" d="M0 .31h11.972v23.4H0z"/>
        <path id="c" d="M0 .31h38.908v23.4H0z"/>
    </defs>
    <g fill="none" fill-rule="evenodd">
        <g transform="translate(73.028)">
            <mask id="b" fill="#fff">
                <use xlink:href="#a"/>
            </mask>
            <path fill="#FF7D84" d="M0 22.229c1.14.116 2.277.241 3.413.37l2.508-6.531 2.384 7.134c1.224.162 2.446.331 3.665.509L7.791 11.2 11.971.31h-3.54l-.036.053-2.259 5.883L4.154.311H.658l3.61 10.802L0 22.23" mask="url(#b)"/>
        </g>
        <path fill="#FF7D84" d="M70.035 21.572V.616h-3.591v20.662c1.198.091 2.396.19 3.591.294M42.636 20.94c1.015 0 2.029.007 3.041.016v-8.149h4.518v-3.47h-4.518V3.474h5.203V0h-8.979v20.943l.735-.003"/>
        <g>
            <mask id="d" fill="#fff">
                <use xlink:href="#c"/>
            </mask>
            <path fill="#FF7D84" d="M31.643 20.71c1.25-.043 2.503-.079 3.757-.109V3.661h3.508V.31H28.134v3.35h3.51v17.05M3.547 23.247V10.344l4.378 12.382c1.346-.151 2.695-.293 4.047-.427V.311H8.424v13.364L3.7.311H0v23.4h.022c1.173-.162 2.348-.316 3.526-.464" mask="url(#d)"/>
        </g>
        <path fill="#FF7D84" d="M24.542 3.904V.616h-8.979v20.956c2.98-.245 5.97-.45 8.972-.616v-3.29c-1.736.096-3.468.206-5.196.328v-5.257h4.517V9.45H19.34V3.904h5.203M58.248 17.3V0h-3.776v20.511c3.004.107 5.996.257 8.979.445v-3.371a327.684 327.684 0 0 0-5.203-.285"/>
    </g>
</svg>
