<svg xmlns="http://www.w3.org/2000/svg" width="24" height="24" viewBox="0 0 24 24">
    <g fill="none" fill-rule="evenodd">
        <path fill="#FFF" d="M19 0a5 5 0 0 1 5 5v14a5 5 0 0 1-5 5H5a5 5 0 0 1-5-5V5a5 5 0 0 1 5-5h14zM6.5 13.5H5V21h12v-7.5h-1.5v6h-9v-6zm8.25 3.75h-7.5v1.5h7.5v-1.5zm-7.282-2.777l-.14 1.512 7.316.659.133-1.44-7.31-.731zm.755-3.165l-.394 1.465 6.98 1.875.372-1.384-6.957-1.956zm1.638-3.502l-.772 1.307 6.223 3.649.772-1.308L9.86 7.806zm3.618-3.324l-1.254.855 4.004 5.872 1.254-.855-4.004-5.872zM18.034 3l-1.494.26 1.215 7 1.495-.259L18.034 3z"/>
    </g>
</svg>
