<svg xmlns="http://www.w3.org/2000/svg" width="111" height="24" viewBox="0 0 111 24">
    <g fill="#FF7D84" fill-rule="evenodd">
        <path d="M0 0h11.55c-.002 3.834 0 7.668-.002 11.502H0V0M12.19 0h11.55l-.001 11.502H12.192C12.19 7.668 12.19 3.834 12.19 0M49.477 4.331c.538-.077 1.121.096 1.478.492.418.434.495 1.124.185 1.63-.342.572-1.11.838-1.777.7-.694-.117-1.272-.722-1.24-1.398-.02-.71.612-1.344 1.354-1.424M30.798 4.794h3.548c1.105 2.833 2.217 5.664 3.323 8.497.282.708.546 1.425.842 2.128 1.421-3.54 2.862-7.072 4.272-10.617 1.137-.018 2.275-.004 3.414-.007-.003 4.791-.002 9.582-.001 14.373-.821-.002-1.642.007-2.462-.005.009-3.535 0-7.07.004-10.607a6.216 6.216 0 0 0-.015-.476c-.048.074-.09.15-.128.23-1.41 3.619-2.847 7.227-4.248 10.85-.584.02-1.169.001-1.754.01-1.454-3.618-2.89-7.246-4.337-10.867a2.743 2.743 0 0 0-.123-.22c-.03 1.55-.005 3.1-.013 4.65v6.435c-.774.002-1.548 0-2.322 0V4.795M56.154 8.869a6.28 6.28 0 0 1 3.488.01c.234.067.46.16.67.286-.013.767 0 1.534-.007 2.3-.757-.592-1.718-.968-2.68-.843a2.742 2.742 0 0 0-1.95 1.11c-.588.784-.724 1.826-.623 2.785.076.751.38 1.501.949 2 .592.538 1.422.73 2.197.67.766-.091 1.488-.423 2.107-.887.006.727-.003 1.453.005 2.179-.96.585-2.11.736-3.21.68-1.124-.06-2.245-.496-3.059-1.306-.884-.873-1.364-2.119-1.42-3.366-.058-1.297.2-2.65.928-3.733.61-.924 1.565-1.578 2.605-1.885M76.336 9.102a4.24 4.24 0 0 1 2.086 2.123c.443.989.55 2.1.475 3.171-.073 1.047-.4 2.095-1.05 2.927-.665.883-1.668 1.481-2.742 1.704a6.813 6.813 0 0 1-2.796-.003c-1.099-.236-2.115-.878-2.76-1.812-.756-1.082-.97-2.458-.874-3.754.065-1.1.404-2.21 1.102-3.072.764-.967 1.936-1.537 3.14-1.69 1.146-.147 2.355-.081 3.42.406zm-2.57 1.669l-.186.006c-.543.031-1.092.217-1.495.597-.555.508-.809 1.265-.877 2.002-.076.81-.021 1.663.345 2.402a2.273 2.273 0 0 0 1.424 1.187c.605.159 1.265.145 1.851-.082.502-.198.9-.615 1.116-1.108.328-.732.36-1.556.32-2.346-.056-.721-.259-1.478-.784-2-.49-.502-1.218-.697-1.9-.652zM82.917 8.714c1.065-.196 2.18-.053 3.189.346v2.212a3.936 3.936 0 0 0-2.42-.746c-.43.017-.903.208-1.1.635-.155.423-.047.978.335 1.231.653.457 1.432.65 2.109 1.06.532.312 1.05.721 1.32 1.31.507 1.104.292 2.563-.6 3.386-.852.832-2.078 1.061-3.206 1.017-.8-.054-1.605-.219-2.341-.56.003-.777-.005-1.552.003-2.327a4.93 4.93 0 0 0 2.09.942c.527.09 1.1.094 1.59-.152.47-.244.554-.941.275-1.367-.261-.33-.644-.51-1.006-.688-.678-.319-1.392-.585-1.988-1.063a2.5 2.5 0 0 1-.86-1.365c-.184-.8-.127-1.702.318-2.4.509-.815 1.392-1.304 2.292-1.471M95.741 9.177c.95.478 1.685 1.341 2.053 2.34.288.763.388 1.587.372 2.4.002 1.214-.324 2.46-1.081 3.424-.71.932-1.794 1.538-2.94 1.729-1.119.182-2.302.135-3.366-.287a4.443 4.443 0 0 1-2.428-2.37c-.473-1.094-.523-2.324-.376-3.493.155-1.168.68-2.31 1.577-3.087.734-.649 1.68-1.016 2.641-1.14 1.193-.15 2.46-.069 3.548.484zm-2.719 1.367l-.177.008c-.631.038-1.258.33-1.666.857-.448.564-.64 1.31-.692 2.035-.054.75 0 1.527.27 2.227.226.589.653 1.1 1.205 1.35.511.236 1.087.278 1.634.19a2.1 2.1 0 0 0 1.334-.769c.329-.425.503-.962.59-1.5a6.646 6.646 0 0 0-.019-2.184c-.116-.613-.369-1.222-.826-1.628-.496-.467-1.185-.626-1.83-.578zM65.807 8.98c.656-.411 1.489-.446 2.205-.195-.004.826 0 1.652-.002 2.478a2.443 2.443 0 0 0-1.606-.393c-.674.08-1.208.62-1.485 1.238-.3.656-.358 1.397-.339 2.113v4.95H62.24c-.002-3.448.003-6.897-.002-10.345.782-.01 1.563-.006 2.345-.002-.004.592 0 1.184-.002 1.777.254-.645.632-1.27 1.227-1.622M48.763 8.632c.641-.003 1.283-.012 1.925.004-.008 3.511 0 7.023-.003 10.535h-1.92c-.003-3.513 0-7.026-.002-10.539M0 12.46c3.85.002 7.7 0 11.549.002v11.501H0V12.461M12.191 12.462c3.85-.002 7.7-.001 11.549-.001v11.502H12.19l.001-11.501M111 18.819c-.713.3-1.509.39-2.28.337-.731-.052-1.489-.309-1.966-.872-.551-.635-.693-1.496-.704-2.3-.006-1.728 0-3.456-.003-5.184-1.217-.001-2.433-.002-3.65 0v8.135h-2.494c0-2.711-.003-5.421.001-8.132-.578-.01-1.157.003-1.735-.009.002-.643.005-1.287-.001-1.932.575-.012 1.151-.007 1.728-.003.042-.856-.093-1.736.172-2.57a3.299 3.299 0 0 1 1.406-1.856c1.063-.67 2.437-.732 3.635-.413.01.688.001 1.378.005 2.067-.57-.243-1.24-.4-1.838-.163-.475.182-.758.653-.832 1.125-.09.598-.031 1.204-.046 1.805 1.216.003 2.432.001 3.648.002.009-.764-.01-1.528.01-2.291.827-.228 1.645-.483 2.468-.723.006 1.006-.01 2.013.009 3.019.822-.011 1.644-.003 2.467-.005v1.706c-.855-.034-1.71-.009-2.565-.012.004 1.18 0 2.361.002 3.543.013.654-.036 1.31.042 1.963.047.384.19.81.558 1.008.616.338 1.397.19 1.963-.18v1.935z"/>
    </g>
</svg>
