<svg xmlns="http://www.w3.org/2000/svg" width="40" height="40" viewBox="0 0 40 40">
    <g fill="#C92C56" fill-rule="evenodd">
        <path fill-rule="nonzero" d="M0 39.72l2 .253.247-2.092.125-1.023-1.998-.266-.25 2.07L0 39.72zm2.764-5.978c.138-1.062.276-2.098.415-3.108l-1.993-.298c-.14 1.016-.28 2.057-.418 3.125l1.996.281zm.858-6.214c.157-1.064.314-2.096.473-3.095l-1.988-.342a284.41 284.41 0 0 0-.476 3.119l1.99.318zm-1-6.552l1.983.37.277-1.569c.093-.512.186-1.013.28-1.504l-1.977-.408c-.189.994-.376 2.031-.562 3.11zm3.154-5.764c.228-1.073.458-2.084.69-3.03l-1.952-.519c-.237.97-.472 2-.705 3.095l1.967.454zm1.487-6.016a39.76 39.76 0 0 1 .958-2.897l-1.873-.771c-.342.902-.68 1.92-1.012 3.055l1.927.613zm2.2-5.565c.608-1.012 1.154-1.493 1.579-1.55L10.789 0C9.644.151 8.652 1.025 7.755 2.517l1.707 1.114zm3.126-.379c.442.626.896 1.48 1.355 2.558l1.841-.851c-.514-1.207-1.036-2.189-1.573-2.95l-1.623 1.243zm2.42 5.432c.294.898.589 1.883.884 2.954l1.936-.578a66.425 66.425 0 0 0-.914-3.054l-1.906.678zm1.64 5.892c.232.96.464 1.972.696 3.037l1.964-.464c-.235-1.081-.47-2.11-.707-3.086l-1.953.513zm3.31 5.699l-1.973.426.295 1.507c.098.512.196 1.034.294 1.565l1.978-.396a226.258 226.258 0 0 0-.594-3.102zm1.153 6.237l-1.982.372.345 2.04.172 1.05 1.986-.35-.347-2.094-.174-1.018zm1.02 6.254l-1.99.333.312 2.052c.052.347.104.697.155 1.05l1.991-.318-.312-2.094a425.48 425.48 0 0 0-.157-1.023zM22.148 40h.996c.113-.783.233-1.544.358-2.282l-2.684-.162.298 2.444h1.032l.997-.307-.112-.798L22.149 40zm1.933-5.329c.22-1.037.455-2.04.707-3.008l-1.944-.549a68.752 68.752 0 0 0-.73 3.106l1.967.451zm1.565-5.976a47.338 47.338 0 0 1 1.024-2.877l-1.863-.798a49.493 49.493 0 0 0-1.072 3.011l1.911.664zm2.244-5.673c.44-.918.911-1.815 1.414-2.693l-1.73-1.075a43.892 43.892 0 0 0-1.486 2.83l1.802.938zm3.029-5.287A41.59 41.59 0 0 1 32 16.21l-1.593-1.284c-.391.526-.77 1.06-1.135 1.602l1.648 1.207z" opacity=".303"/>
        <circle cx="32" cy="12" r="8"/>
    </g>
</svg>
