<svg xmlns="http://www.w3.org/2000/svg" width="41" height="40" viewBox="0 0 41 40">
    <g fill="#C92C56" fill-rule="evenodd">
        <path d="M26.297 4.439l3.596 1.753-9.206 18.875-3.595-1.753z"/>
        <path d="M18.8 23.787l2.407-3.194 9.19 6.845-2.812 2.97zM23.723 12.977l3.355-2.179 5.991 9.225-3.355 2.179zM11.652 10.032l1.652-3.756 11.873 2.31-.764 3.927z"/>
        <path d="M9.297 16.963l-3.019-2.624 7.026-8.063 3.21 2.385zM29.686 22.425l-2.068-3.438 10.824-5.047 1.69 3.626zM18.912 19.848l3.277 2.294-8.604 12.287-2.103-1.298-1.28-.79z"/>
        <path d="M13.548 29.718l-2.066 3.413-11.078-6.91 2.12-3.391zM26.396 29l4-1.562V40h-4z"/>
        <circle cx="28.396" cy="5" r="5"/>
    </g>
</svg>
