<svg xmlns="http://www.w3.org/2000/svg" xmlns:xlink="http://www.w3.org/1999/xlink" width="98" height="31" viewBox="0 0 98 31">
    <defs>
        <path id="a" d="M.847.608h23.497v23.706H.847z"/>
    </defs>
    <g fill="none" fill-rule="evenodd">
        <g>
            <mask id="b" fill="#fff">
                <use xlink:href="#a"/>
            </mask>
            <path fill="#FF7D84" d="M13.078 11.394v3.24h7.877c-.242 1.818-.858 3.147-1.795 4.083-1.152 1.132-2.948 2.37-6.082 2.37-4.85 0-8.64-3.845-8.64-8.613 0-4.768 3.79-8.613 8.64-8.613 2.612 0 4.528 1.014 5.934 2.318L21.33 3.9C19.374 2.03 16.748.608 13.078.608 6.433.608.847 5.928.847 12.46c0 6.532 5.586 11.853 12.23 11.853 3.59 0 6.297-1.16 8.414-3.319 2.17-2.133 2.853-5.15 2.853-7.573 0-.75-.053-1.448-.174-2.028H13.078" mask="url(#b)"/>
        </g>
        <path fill="#FF7D84" d="M33.984 21.275c-2.263 0-4.218-2.003-4.218-4.863 0-2.888 1.955-4.863 4.218-4.863s4.217 1.975 4.217 4.863c0 2.86-1.954 4.863-4.217 4.863zm0-12.765c-4.313 0-7.833 3.318-7.833 7.902 0 4.542 3.52 7.902 7.833 7.902 4.312 0 7.832-3.346 7.832-7.902 0-4.584-3.52-7.902-7.832-7.902zM67.723 21.275c-2.394 0-4.218-2.073-4.218-4.863 0-2.832 1.824-4.863 4.218-4.863 2.367 0 4.217 2.072 4.217 4.89.014 2.805-1.85 4.836-4.217 4.836zm4.048-11.025h-.118c-.749-.91-2.195-1.74-4.022-1.74-3.812 0-7.138 3.387-7.138 7.778 0 4.364 3.326 7.777 7.138 7.777 1.827 0 3.273-.83 4.022-1.767h.118v1.085c0 2.972-1.564 4.565-4.075 4.565-2.05 0-3.325-1.5-3.851-2.772l-2.918 1.232C61.768 28.47 63.989 31 67.697 31c3.93 0 7.256-2.356 7.256-8.1V8.912H71.77v1.34zM51.456 21.275c-2.264 0-4.218-2.003-4.218-4.863 0-2.888 1.954-4.863 4.218-4.863 2.263 0 4.217 1.975 4.217 4.863 0 2.86-1.954 4.863-4.217 4.863zm0-12.765c-4.313 0-7.833 3.318-7.833 7.902 0 4.542 3.52 7.902 7.833 7.902 4.312 0 7.832-3.346 7.832-7.902 0-4.584-3.52-7.902-7.832-7.902zM77.656 24.314h3.324V.608h-3.324zM91.203 11.549c1.418 0 2.63.747 3.03 1.804l-7.23 3.059c0-3.44 2.382-4.863 4.2-4.863zm-.04 9.65c-1.754 0-2.996-.802-3.806-2.393l10.49-4.367-.35-.897c-.649-1.768-2.647-5.032-6.71-5.032-4.038 0-7.4 3.196-7.4 7.902 0 4.434 3.322 7.902 7.777 7.902 3.591 0 5.67-2.217 6.535-3.496l-2.674-1.795c-.89 1.306-2.106 2.176-3.861 2.176z"/>
    </g>
</svg>
