<svg xmlns="http://www.w3.org/2000/svg" xmlns:xlink="http://www.w3.org/1999/xlink" width="522" height="324" viewBox="0 0 522 324">
    <defs>
        <path id="a" d="M3.77.817C2.297.76 1.061.545.545.005c.516.54 1.752.755 3.225.812"/>
        <linearGradient id="b" x1="-9.712%" x2="2938.777%" y1="39.575%" y2="18.469%">
            <stop offset="0%" stop-color="#C3C5C0"/>
            <stop offset="100%" stop-color="#C3C5C0"/>
        </linearGradient>
        <path id="d" d="M.545 5.805c-.29-.302-.365-.58-.26-.835-.105.255-.03.533.26.835m10.08-3.285c2.935-.259 5.557-.38 6.375-.44A674.644 674.644 0 0 1 66.132.264l-1.833.003a674.644 674.644 0 0 0-47.3 1.813c-.817.06-3.439.181-6.373.44"/>
        <linearGradient id="e" x1="-.009%" x2="118.205%" y1="50.158%" y2="49.926%">
            <stop offset="0%" stop-color="#C3C5C0"/>
            <stop offset="100%" stop-color="#C3C5C0"/>
        </linearGradient>
        <path id="g" d="M4.795.886c-.07 0-.137 0-.2-.003a1294.884 1294.884 0 0 1 .2.002"/>
        <linearGradient id="h" x1="-1376.532%" x2="222.213%" y1="59.04%" y2="53.442%">
            <stop offset="0%" stop-color="#141414"/>
            <stop offset="100%" stop-color="#141414"/>
        </linearGradient>
        <path id="j" d="M3.563 1.618c.112-.304-.099-.638-.705-1.002-.497-.3-1.463-.37-2.47-.37 1.007 0 1.973.07 2.47.37.606.364.817.698.706 1.002h-.001"/>
        <linearGradient id="k" x1="-2251.061%" x2="100.099%" y1="87.22%" y2="58.579%">
            <stop offset="0%" stop-color="#141414"/>
            <stop offset="100%" stop-color="#141414"/>
        </linearGradient>
    </defs>
    <g fill="none" fill-rule="evenodd">
        <ellipse cx="261" cy="285.185" fill="#E8ECED" rx="261" ry="37.99"/>
        <path fill="#6B727A" d="M171.918 215.872c-.966-17.66 1.063-35.67.887-53.439.635-6.159-.395-12.433-3.015-18.223-.162-.36-.338-.727-.661-1.003-1.006-.854-2.723-.4-4.055.054-12.78 4.354-27.874 3.329-39.525-2.818-2.302 2.898-2.962 6.452-3.53 9.885-.918 5.552-1.924 11.093-2.17 16.668l-.003.032h.001a53.863 53.863 0 0 0-.054 3.597c.16 6.95 1.784 13.799 3.053 20.65.827 4.468 1.555 8.968 1.624 13.495.057 3.706-.572 7.093.431 10.72 2.47 8.935 2.477 18.668 3.521 27.796 1.12 9.776 2.224 19.552 3.138 29.342l.109 1.17c.596.131 9.707 1.864 9.707-.086.731-19 1.462-38.003 2.191-57.005.308-7.996-.391-35.01 2.062-42.628l3.033.251c5.555 25.145 12.137 69.191 17.692 94.336.49 2.215 1.083 4.603 2.849 6.03 1.765 1.427 5.063 1.027 5.585-1.18-1.63-19.213-1.818-38.42-2.87-57.644"/>
        <path fill="#E8DBCE" d="M155.605 43.94c0-6.5-5.665-11.767-12.654-11.767-6.99 0-12.655 5.268-12.655 11.767 0 1.085.17 2.131.466 3.129.011.255.017.517.013.79-.037 2.344.07 4.705.528 7.018.893 4.5 3.222 8.685 7.628 11.245 1.468.853 3.154 1.502 4.908 1.49 2.36-.018 4.524-1.23 6.163-2.736 5.415-4.974 5.882-12.449 5.5-19.503.062-.47.103-.947.103-1.433"/>
        <path fill="#FFBCBC" d="M173.324 154.799l-.13-36.484c-.036-10.246-2.37-21.119-3.89-31.239-.837-5.569-1.823-7.505-4.35-12.471-.36-.708-.42-1.185-3.766-2.262-.728-.234-2.454-1.215-3.344-1.064-4.37.738-8.817-.917-13.187-.18-4.622.782-12.376-1.558-15.98 1.603-4.87 4.272-5.208 14.42-5.982 21.06-1.045 8.956-3.524 18.04-3.961 27.051-.384 7.908-.593 15.825-.739 23.741-.076 4.128-1.582 18.477 2.126 21.238 2.167 1.614 7.971 2.273 13.943 2.471a121.474 121.474 0 0 0 .817.025c2.432.064 4.862.056 7.065.008 3.25-.07 6.002-.227 7.493-.363 6.967-.635 13.848-2.055 20.672-3.624 1.212-.279 2.55-.652 3.213-1.76.476-.797.003-6.807 0-7.75"/>
        <path fill="#1A1A1A" d="M135.537 282.494c-.862.724.31 1.298.874 1.352a9.466 9.466 0 0 0 3.09-.2c.266-.064.536-.145.75-.315.168-.135.29-.316.41-.495.33-.493 1.112-1.273 1.237-1.845.101-.472-.182-.931-.404-1.362-.47-.914-1.274-1.854-1.234-2.942-.945.104-1.874.026-2.77-.053-1.212-.107-2.366-.214-3.424.131-.155.774-.734 1.407-.464 2.013-.179-.4-5.544.95-6.18 1.075-1.024.2-2.053.37-3.092.463-.222.019-.499.006-.794-.008-.782-.037-1.691-.073-2.022.514-.161.286-.215.621-.239.95-.018.25-.02.506.061.744.14.408.514.701.92.85 2.71.997 5.413.415 8.133-.166 1.708-.365 3.422-.73 5.148-.706M172.723 281.392c.838.778-.295 1.401-.84 1.461a8.236 8.236 0 0 1-2.992-.207c-.257-.068-.52-.154-.726-.337-.163-.145-.282-.34-.399-.532-.321-.532-1.082-1.371-1.203-1.99-.101-.508.172-1.004.385-1.47.452-.988 1.226-2.768 1.183-3.941 2.151.257 5.267.263 7.05.904-.47.912-.338 1.44-.597 2.094.171-.432 5.37 1.009 5.985 1.141.991.213 1.988.394 2.994.49.784.074 2.284-.334 2.727.537.157.309.21.67.235 1.024.018.27.022.548-.056.804-.134.442-.496.76-.888.922-4.262 1.764-8.524-.984-12.858-.9"/>
        <path fill="#3D202C" d="M161.636 36.056c-.194-.5-.587-1.05-1.02-1.617-.387-2.264-1.355-4.39-2.746-5.726-.83-.796-1.799-1.029-2.688-.864a9.675 9.675 0 0 0-3.491-.763c-1.236-.773-2.594-1.333-3.962-1.607-7.24-1.446-15.144 1.52-19.27 7.615-.614-2.567-5.455-2.96-5.866.083-.407 3.02.63 5.676 3.625 6.91 2.603 1.074 4.287.189 5.78-1.305.063-.032.126-.054.188-.09 2.556-1.517 5.406-3.3 8.409-4.055 2.241.793 4.408 2.611 6.19 4.282 1.024.96 2.255 1.853 3.524 2.304.196.445.417.856.66 1.233-.035 1.579.959 3.276 2.975 3.457a7.492 7.492 0 0 0 2.318-.156c-.051.196-.105.395-.147.574-.2.854-.405 3.781-1.344 4.228-2.095.997-1.83 4.137 0 5.207 1.799 1.051 4.81-.254 4.536-2.604-.068-.59.448-1.742.64-2.301.28-.819.654-1.531.89-2.39.251-.92.43-1.688.502-2.646.028-.359-.195-2.225-.05-2.413.533-.692.547-1.473.257-2.158a6.78 6.78 0 0 0 .09-5.199"/>
        <g transform="translate(414.7 283.04)">
            <mask id="c" fill="#fff">
                <use xlink:href="#a"/>
            </mask>
            <path fill="url(#b)" d="M3.77.817C2.297.76 1.061.545.545.005c.516.54 1.752.755 3.225.812" mask="url(#c)"/>
        </g>
        <g transform="translate(414.7 277.24)">
            <mask id="f" fill="#fff">
                <use xlink:href="#d"/>
            </mask>
            <path fill="url(#e)" d="M.545 5.805c-.29-.302-.365-.58-.26-.835-.105.255-.03.533.26.835m10.08-3.285c2.935-.259 5.557-.38 6.375-.44A674.644 674.644 0 0 1 66.132.264l-1.833.003a674.644 674.644 0 0 0-47.3 1.813c-.817.06-3.439.181-6.373.44" mask="url(#f)"/>
        </g>
        <path fill="#564A47" d="M419.45 5.722a9.843 9.843 0 0 0 .07-3.115c-.14-1.004-.65-2.179-1.676-2.298-1.015-.119-1.764.873-2.199 1.774-2.012 4.167-2.273 8.917-2.511 13.531-.963-.234-.44.377 3.764.05-.139-1.915 1.369-3.51 2.158-5.26.84-1.867 2.21-3.692 1.931-5.722l-.818-.012c-.243.35-.481.7-.719 1.052"/>
        <path fill="#1C1E21" d="M471.453 216.82c-.969-17.659 1.061-35.67.887-53.438.633-6.16-.394-12.433-3.016-18.224-.162-.359-.336-.727-.66-1.002-1.004-.854-2.721-.4-4.055.054-12.783 4.354-27.875 3.328-39.527-2.818-2.303 2.898-2.958 6.451-3.526 9.885-.923 5.552-1.926 11.092-2.175 16.668v.032a53.117 53.117 0 0 0-.053 3.597c.163 6.95 1.781 13.799 3.051 20.649.83 4.469 1.555 8.969 1.624 13.496.058 3.706-.568 7.092.435 10.72 2.471 8.935 2.477 18.668 3.52 27.796 1.12 9.775 2.222 19.552 3.139 29.342l.104 1.169c.597.132 9.71 1.865 9.71-.085.73-19.002 1.46-38.003 2.192-57.005.307-7.996-.395-35.01 2.059-42.628l3.033.25c5.556 25.146 12.14 69.192 17.696 94.337.487 2.214 1.079 4.603 2.848 6.03 1.763 1.426 5.063 1.027 5.585-1.18-1.63-19.213-1.821-38.42-2.871-57.644"/>
        <path fill="#564A47" d="M455.207 44.908c0-6.534-5.695-11.831-12.72-11.831-7.029 0-12.724 5.297-12.724 11.83 0 1.092.174 2.144.47 3.147.011.256.017.52.011.794-.035 2.357.07 4.73.528 7.055.899 4.525 3.242 8.733 7.673 11.307 1.473.857 3.167 1.51 4.936 1.497 2.372-.017 4.547-1.237 6.194-2.75 5.447-5 5.916-12.516 5.528-19.608.064-.473.104-.952.104-1.441"/>
        <path fill="#333" d="M436.705 67.032c.592.795 1.2 1.61 2.088 2.148 1.056.64 2.39.813 3.666.835 1.56.027 3.196-.17 4.448-.99.9-.587 3.098-2.36 3.66-3.213 1.891-2.87 3.092-4.849 4.095-8.051.307-.976.568-1.975.545-2.988-.377-.156-.83.092-1.015.423-.18.33-.162.713-.174 1.08-.075 1.965-1.061 3.802-2.076 5.549-.9 1.537-3.167 2.89-4.553 4.104-1.392 1.215-3.289 2.077-5.232 1.95-.255-.016-.516-.05-.736-.162-.476-.236-.667-.75-.807-1.218-.145-.468-.307-.982-.765-1.247-.453-.266-1.259-.02-1.2.462.04.31.405.541.405.854.006.36-.504.577-.893.478-.394-.099-.673-.395-.922-.677-.61-.674-1.212-1.35-1.821-2.024-.261-.286-.551-.52-.923-.363.493 1.065 1.491 2.083 2.21 3.05"/>
        <path fill="#3D202C" d="M439.692 274.905a50.448 50.448 0 0 0-10.933.409 42.505 42.505 0 0 1-9.042 4.51c-.934.335-1.914.659-2.604 1.31-.69.652-.969 1.747-.325 2.434.563.6 1.56.665 2.436.673 6.74.063 13.48-.446 20.109-1.517.4-.064.817-.142 1.107-.394.227-.202.337-.486.418-.763.679-2.234.244-4.716-1.166-6.662M474.052 272a44.587 44.587 0 0 0-9.57 2.054 35.847 35.847 0 0 1-7.093 5.38c-.754.44-1.56.88-2.042 1.56-.475.683-.51 1.692.197 2.199.615.442 1.503.345 2.28.216a104.911 104.911 0 0 0 17.446-4.454c.342-.117.696-.251.9-.519.162-.213.202-.48.22-.738.162-2.077-.714-4.2-2.338-5.698"/>
        <path fill="#FFBCBC" d="M416.962 15.973c.284-1.781.325-4.1-1.056-4.612-1.432-.529-2.795 1.434-3.607 3.095a9511.183 9511.183 0 0 1-5.365 10.946c-3.48 7.114-7.024 14.396-8.462 22.245-.586 3.2-.69 6.886 1.189 8.961 1.165 1.29 2.865 1.679 4.5 1.918 8.15 1.193 7.32-8.03 8.468-15.256l4.333-27.297"/>
        <path fill="#333" d="M421.092 168.117a10.61 10.61 0 0 0 2.859.035c1.868-.228 3.671-.943 5.063-2.085 1.184-.975 2.065-2.21 2.813-3.481a26.027 26.027 0 0 0 2.692-6.34c-.21-.004-.412-.01-.621-.017a44.96 44.96 0 0 1-1.044 3.211c-.945 2.58-2.656 5.66-5.365 7.215-2.285 1.312-5.063 1.07-7.731.96-.389-.015-.488.553-.093.606l.07.006c.017-.105.052-.196.11-.242.255-.194.945.086 1.247.132"/>
        <path fill="#333" d="M431.752 163.302c1.2-2.198 2.175-4.592 2.929-7.052l-.162-.003a26.027 26.027 0 0 1-2.692 6.339c-.748 1.27-1.63 2.506-2.813 3.481-1.392 1.142-3.195 1.857-5.063 2.085a10.61 10.61 0 0 1-2.86-.035c-.301-.046-.991-.326-1.246-.132-.058.046-.093.137-.11.242 4.75.638 9.819-.906 12.017-4.925"/>
        <path fill="#FFBCBC" d="M472.857 155.747c-.041-12.16-.087-24.322-.128-36.483-.035-10.247-2.372-21.119-3.892-31.24-.835-5.568-1.821-7.504-4.35-12.47-.36-.708-.417-1.185-3.764-2.262-.73-.234-2.453-1.215-3.347-1.065-4.367.738-8.816-.917-13.183-.179-4.623.781-12.377-1.558-15.979 1.603-4.872 4.271-5.208 14.42-5.986 21.06-1.044 8.956-3.52 18.04-3.961 27.051-.383 7.908-.592 15.824-.737 23.74-.075 4.129-1.583 18.478 2.123 21.239 2.17 1.614 7.975 2.273 13.943 2.471.215.008.43.015.65.02l.168.005c2.43.064 4.866.056 7.065.008 3.253-.071 6.003-.227 7.493-.364 6.966-.635 13.85-2.054 20.671-3.623 1.213-.279 2.552-.652 3.214-1.76.475-.798.005-6.808 0-7.75"/>
        <path fill="#FFBCBC" d="M419.78 92.824c1.787 1.88 3.782 3.66 6.056 4.227 2.268.567 4.855-.433 5.638-2.894.725-2.247-.192-4.89-1.184-7.167-2.546-5.817-5.718-11.252-8.88-16.667l-10.004-17.13c-1.015-1.73-2.106-3.544-3.683-4.469-2.767-1.617-8.874.74-9.205 4.471-.296 3.349 4.425 11.427 5.8 14.568 4.025 9.165 8.845 18.082 15.463 25.06"/>
        <path fill="#FF7D84" d="M442.354 73.737c.22-.28.453-.62.314-.935-.105-.24-.389-.371-.656-.478a49.658 49.658 0 0 0-3.642-1.326c-.406-.129-.87-.249-1.241-.058-.192.1-.325.27-.447.433-.766 1.008-1.531 2.017-2.303 3.025-.121.159-.243.332-.237.523.005.227.191.414.365.582a31.915 31.915 0 0 1 2.32 2.492c.522.622 1.131 2.101 2.152 1.452.783-.496 1.067-2.015 1.467-2.764a20.532 20.532 0 0 1 1.908-2.946M446.513 77.561c.133.642.22 1.298.481 1.908.035.084.076.17.157.224.25.161.563-.103.725-.333a30.773 30.773 0 0 1 4.878-5.345c.365-.317.748-.638.963-1.05.214-.411.226-.945-.116-1.28-.227-.22-.563-.32-.882-.412l-2.105-.602c-.424-.122-.87-.245-1.311-.19-.406.05-.766.244-1.108.44-.853.485-3.213 1.5-3.3 2.502-.052.56.69 1.42.916 1.947.308.71.54 1.445.702 2.191"/>
        <path fill="#FFBCBC" d="M474.388 39.136a998.415 998.415 0 0 1-12.482 45.224c-.528 1.747-1.061 3.536-.893 5.338.168 1.802 1.195 3.651 3.04 4.424 2.18.918 4.9.044 6.565-1.511 1.67-1.556 2.511-3.65 3.26-5.692 6.838-18.651 9.616-38.469 8.137-58.038-.157-2.017-.348-4.087.319-6.019.348-1.02.881-2.263.052-3.032-.98-.904-3.289-.878-4.06.045-.998 1.202-.748 4.968-1.038 6.505-.8 4.28-1.833 8.522-2.9 12.756"/>
        <path fill="#564A47" d="M477.294 9.58a9.81 9.81 0 0 1 .29-3.101c.255-.982.893-2.09 1.931-2.089 1.02 0 1.653 1.073 1.978 2.019 1.514 4.372 1.224 9.12.916 13.73.986-.12.4.426-3.74-.387.359-1.886-.946-3.645-1.526-5.476-.62-1.951-1.77-3.924-1.259-5.908l.812.084c.203.376.4.752.598 1.128"/>
        <path fill="#333" d="M448.288 52.789c-.18.81-.418 1.393-1.102 1.726a16.393 16.393 0 0 1-3.538.078c-.986-.092-1.323-.09-1.41-1.097a7.57 7.57 0 0 1-.029-.52.502.502 0 0 0-.005-.408c0-.43.023-.862.052-1.284 1.92-.007 3.845.011 5.765.02.14.103.232.228.29.38 0 .308.006.616.006.925-.012.06-.018.116-.03.18zm-11.809.874c-.023.076-.064.145-.099.212-1.328.161-2.72.347-4.042.277-.661-.035-1.178-.174-1.549-.485l.006-.021c.006-.857.017-1.715.023-2.572l2.633-.008c1.033.033 2.071.066 3.103.106.047.424.093.91.093 1.378-.04.372-.104.742-.168 1.113zm17.4-3.716c-1.322.437-2.65.896-3.99 1.298-.134-.483-.412-.88-.917-1.1-.725-.313-1.676-.193-2.436-.191-1.56.004-3.126.026-4.686 0a.382.382 0 0 0-.389.264c-.22.005-.44.002-.667.008a.464.464 0 0 0-.458.44c0 .586-.012 1.17.017 1.755-.29-.02-.574-.044-.846-.05a48.272 48.272 0 0 0-1.833-.013c-.018-.333-.04-.657-.064-.949.012-.266.046-.53.052-.8a.454.454 0 0 0-.446-.444h-.105l-.081-.018c-1.398-.074-2.801-.162-4.205-.246-.974-.058-2.28-.394-3.202-.052-1.328.493-1.13 2.21-.968 3.613-.122.608-.151 1.188.127 1.55.22.288.546.324.865.384 1.032.197 2.262.025 3.317.03 1.027.003 3.271.501 4.136-.295.394-.367.539-1.05.574-1.79l.064.006c.023.144.11.272.295.31.8.16 1.607.21 2.413.168.186.69.638 1.286 1.462 1.603 1.096.42 2.58.095 3.747.154.66.033 1.281.013 1.838-.214.47-.06.946-.132 1.415-.222a.409.409 0 0 0 .267-.22.406.406 0 0 0 .313-.285c.203-.669.493-1.674.493-2.582 1.363-.46 2.75-.876 4.124-1.294.522-.16.29-.99-.226-.818z"/>
        <path fill="#1A1A1A" d="M344.653 282.623c-.816.684.294 1.228.826 1.279a8.944 8.944 0 0 0 2.924-.19c.25-.06.506-.137.708-.298.16-.127.275-.299.388-.467.312-.467 1.053-1.205 1.17-1.746.096-.447-.172-.88-.38-1.288-.446-.865-1.207-1.754-1.168-2.782-2.102.231-4.118-.494-5.859.073-.147.733-.694 1.331-.44 1.904-.168-.378-5.243.9-5.844 1.017-.969.19-1.941.35-2.925.437-.765.068-2.232-.285-2.662.479-.153.271-.203.588-.226.898-.017.237-.02.48.057.704.132.387.486.664.87.805 4.17 1.534 8.326-.886 12.561-.825"/>
        <path fill="#740C32" d="M346.601 186.03l-14.346-.379c-.298-.618.94-.085.93.601a314.64 314.64 0 0 0 5.764 64.582c1.782 9.16 3.983 18.323 4.019 27.654l5.887-.01 2-87.562c.033-1.476-.027-3.169-1.167-4.108-.834-.688-2.005-.749-3.087-.778M387.051 274.226c2.657-.03 5.29-.98 7.355-2.65-4.663-8.229-9.33-16.458-13.997-24.687-1.475-2.603-2.958-5.222-3.966-8.038-1.24-3.463-2.032-7.113-2.215-10.786-2.015-40.32-2.015-40.32 1-49.003.392-1.13 7.723-5.28 0 0-2.836 1.94-13.581.345-16.98.847-.745.11-1.556.254-2.053.819-.569.646.28 2.902-.462 2.466-6.062-3.565-2.014 1.284-1.108 12.495.32 3.942 4.473 29.061 5.659 32.834 2.095 6.669 4.926 13.563 9.182 19.109 6.554 8.537 10.935 16.402 17.585 26.594"/>
        <path fill="#EB595E" d="M382.237 128.96c-1.108-15.406-3.842-31.326-12.499-44.456-6.218-9.432-14.772-20.395-26.772-10.533-1.086.892-8.533-2.464-9.266-1.337-1.825-.493-3.87.019-5.085 2.154-4.067 7.145-5.528 15.032-6.18 23.14-.747 9.302-.972 18.669-1.252 27.993-.131 4.323-.23 8.647-.307 12.97-1.67 11.561-2.498 23.186-.603 34.81.096.586.29 1.089.556 1.519.044 2.918.096 5.835.162 8.753.042 1.867 1.438 4.322 3.506 4.605 18.278 2.5 36.546 1.835 54.564-2.205 2.113-.474 3.405-2.57 3.506-4.604.87-17.572.93-35.253-.33-52.809"/>
        <path fill="#E8DBCE" d="M289.753 23.55c.299-2.026 1.118-4.157.297-6.033l-.792.212-.406 1.21a9.722 9.722 0 0 0-.783-3.016c-.408-.928-1.218-1.919-2.24-1.753-1.01.164-1.46 1.324-1.632 2.31-.792 4.557.252 9.198 1.29 13.7a15.733 15.733 0 0 0 4.843-.963 11.675 11.675 0 0 1-.577-5.668"/>
        <path fill="#EB595E" d="M327.61 98.178c7.674 2.856 15.382-18.9 5.717-22.232-8.754-3.017-22.827-2.069-30.925-7.264-3.886-2.494-6.51-6.362-7.395-11.236a610.254 610.254 0 0 1-4.584-29.215l-6.316.354.13 36.797c.008 2.363.033 4.815.912 7.04.853 2.158 2.422 3.873 4.017 5.413 10.59 10.221 26.272 15.814 38.445 20.343"/>
        <path fill="#FF7D84" d="M294.01 54.553c-3.173-.024-6.379.545-9.456 1.27-.581.136-.345 1.023.233.874 3.046-.784 6.091-1.126 9.213-1.443.45-.046.483-.697.01-.7M308.512 88.55c-1.117-4.165-1.487-11.647 2.12-14.909.351-.317-.153-.769-.51-.498-4.221 3.195-3.658 11.266-2.817 15.72.144.767 1.412.454 1.207-.312M294.483 57.441c-1.301-.263-2.633.06-3.924.287-1.877.328-3.737.753-5.585 1.215-.84.21-.501 1.475.339 1.269 1.387-.34 2.774-.677 4.168-.991 1.577-.356 3.261-.949 4.885-.988.452-.011.59-.696.117-.792M313.92 89.98c-1.227-5.178-2.012-9.993.865-14.81.334-.56-.467-1.195-.928-.699-4.081 4.4-2.782 10.714-1.562 15.93.24 1.034 1.87.61 1.626-.42"/>
        <path fill="#E8DBCE" d="M348.363 64.686c1.053-1.83 1.654-4.182 1.62-6.93-.063-5.074-.693-10.271-3-14.696-2.655-5.095-8.812-9.83-14.709-7.903-6.907 2.257-5.758 11.72-4.819 17.994.747 4.985 2.832 9.918 6.617 12.984 5.653 4.579 11.528 3.359 14.291-1.45"/>
        <path fill="#1A1A1A" d="M391.715 278.118c-.505 1.032.829 1.084 1.374.901a9.629 9.629 0 0 0 2.802-1.463c.226-.17.44-.356.574-.604.098-.194.139-.414.174-.63.104-.596.516-1.649.394-2.234-.098-.482-.55-.794-.94-1.105-.811-.66-2.244-1.864-2.656-2.896-1.978 1.147-4.976 2.489-6.445 3.809.805.586.881 1.097 1.382 1.551-.33-.3-4.783 3.177-5.325 3.556a30.256 30.256 0 0 1-2.696 1.708c-.726.401-2.328.693-2.42 1.635-.032.334.056.668.17.985.086.24.19.482.364.67.3.324.77.443 1.21.415 4.786-.306 7.833-4.51 12.038-6.298"/>
        <path fill="#FF7D84" d="M362.814 87.139c-.303-.682-.614-1.363-.93-2.043-12.433 2.418-24.85 4.552-37.447 5.6-.075.682-.162 1.363-.233 2.046 13.036-.889 26.005-2.987 38.61-5.603M322.764 130.426c.017.66.046 1.319.067 1.978 17.397-1.184 34.69-3.752 51.493-7.274a210.17 210.17 0 0 0-.476-2.525c-16.822 3.532-33.783 6.373-51.084 7.821M326.335 169.01c.076.48.149.96.227 1.44 3.7-.444 7.368-.948 10.962-1.44a357.863 357.863 0 0 0 40.656-7.98c-.032-.688-.062-1.377-.097-2.066-10.452 2.695-21.064 5.029-31.976 6.926-6.235 1.084-12.936 2.253-19.772 3.12M322.969 136.41c.014.313.039.627.055.94 17.64-1.207 35.208-3.784 52.204-6.967-.062-.395-.133-.788-.197-1.182-13.44 2.339-26.851 4.65-40.602 6.16-3.808.418-7.63.758-11.46 1.049M323.91 95.9c-.03.328-.058.657-.087.986 13.764-1.127 27.456-3.054 40.842-5.407-.163-.398-.315-.796-.481-1.192-11.1 1.904-22.225 3.699-33.581 4.946-2.227.244-4.457.465-6.692.667M327.565 176.183c17.587-1.053 34.987-4.224 50.846-9.253-.01-.35-.025-.7-.037-1.048-16.43 5.029-33.512 8.062-51.02 9.144.069.386.14.771.211 1.157"/>
        <path fill="#E8DBCE" d="M304.837 132.948c-.764.272-1.545.552-2.18 1.057-.635.505-1.112 1.285-1.039 2.093.073.808.838 1.555 1.638 1.42a.791.791 0 0 0 .129.664c1.654.466 3.307-.569 4.82-1.383a21.432 21.432 0 0 1 3.663-1.551c1.07-.34 2.276-.676 2.84-1.646.411-.707.365-1.601.11-2.378-.254-.776-.697-1.475-1.067-2.204l-5.966 1.106c-.324.06-.662.126-.92.33-.259.204-.405.592-.233.873.431.045.843.254 1.134.577l-2.929 1.042"/>
        <path fill="#EB595E" d="M365.558 88.538c-1.567-6.992-10.563-8.468-12.32.342-1.592 7.98-2.123 16.126-5.725 23.82-1.73 3.694-4.833 6.471-9.042 7.876a560.147 560.147 0 0 1-25.32 7.786l1.094 5.427c10.862-1.64 21.726-3.278 32.588-4.916 2.093-.316 4.264-.658 6.127-1.71 1.806-1.021 3.132-2.605 4.299-4.188 7.748-10.51 10.812-23.227 8.3-34.437"/>
        <path fill="#FF7D84" d="M336.03 121.817c.371 2.753 1.272 5.456 2.294 8.029.194.485.95.165.747-.316-1.072-2.538-1.751-5.132-2.418-7.796-.095-.383-.678-.327-.622.083M364.364 104.812c-3.554 1.512-10.137 2.81-13.473.11-.326-.263-.663.233-.379.507 3.352 3.24 10.434 1.698 14.277.389.662-.226.227-1.283-.425-1.006M338.531 121.03c-.072 1.162.38 2.274.74 3.364a68.778 68.778 0 0 0 1.766 4.68c.29.701 1.37.242 1.083-.46a187.613 187.613 0 0 1-1.393-3.481c-.51-1.321-1.244-2.703-1.48-4.104-.065-.39-.689-.42-.716.001M364.962 99.938c-4.437 1.74-8.607 3.05-13.23 1.186-.539-.217-1.001.56-.504.895 4.402 2.962 9.836 1.012 14.308-.726.885-.344.308-1.701-.574-1.355"/>
        <path fill="#3D202C" d="M367.919 43.698c-1.026-1.664-2.522-2.391-4.037-2.45.012-.084.03-.167.042-.251 2-1.688 2.757-4.77.38-7.461-.671-.76-1.334-1.252-2.045-1.595-2.31-1.715-4.72-3.175-7.428-4.325a5.586 5.586 0 0 0-.658-.227c-.724-4.186-3.848-7.822-8.896-8.602-1.17-.18-2.432-.173-3.686-.002-4.999-2.482-10.77-.057-13.698 4.289a7.266 7.266 0 0 0-.685.384c-1.643 1.053-2.74 2.813-3.103 4.713-.068.015-.137.023-.207.04-4.35 1.12-7.147 5.64-5.773 9.939.678 2.12 2.686 3.916 5.024 3.824l3.326-.132c1.205-.047 2.284-.544 3.148-1.295.228.11.46.214.703.304.804.3 1.631.483 2.46.54.756 1.12 1.85 2.023 3.087 2.607 2.97 1.4 5.66 1.319 8.318.654.215.21.442.414.695.604.392.294.79.53 1.194.722-.444.66-.811 1.396-1.111 2.174-1.057 2.737 1.192 5.573 3.638 6.408.492.168.987.268 1.484.313-1.04 2.723.3 6.465 3.407 7.12 3.976.839 7.831-.323 10.392-3.563 1.777-2.248 2.088-4.511 2.308-6.99 2.372-1.838 3.67-4.58 1.72-7.742"/>
        <path fill="#292B2E" d="M217.09 211.482c.82-18.108-.9-36.577-.75-54.797a43.108 43.108 0 0 1 2.554-18.687c.138-.368.287-.746.56-1.028.852-.876 2.308-.41 3.438.056 10.83 4.464 23.622 3.412 33.496-2.89 1.95 2.97 2.51 6.615 2.992 10.137.778 5.692 1.63 11.373 1.84 17.091l.002.033h-.002c.044 1.227.07 2.456.046 3.688-.136 7.127-1.511 14.15-2.587 21.174-.701 4.582-1.318 9.197-1.376 13.84-.049 3.799.484 7.272-.366 10.992-2.093 9.162-2.099 19.142-2.984 28.502-.948 10.024-1.884 20.05-2.659 30.088l-.092 1.2c-.505.134-8.227 1.912-8.227-.088l-1.857-58.454c-.26-8.2-.539-16.519-2.617-24.33-.856.085-1.714.17-2.57.257l-14.125 77.353c-.415 2.27-.918 4.72-2.414 6.183s-4.291 1.053-4.733-1.21c1.382-19.702 1.54-39.398 2.432-59.11"/>
        <path fill="#736357" d="M245.234 274.181a36.291 36.291 0 0 1 8.853.374 32.984 32.984 0 0 0 7.322 4.115c.756.306 1.552.602 2.11 1.197.558.594.784 1.594.263 2.22-.456.549-1.262.607-1.975.615a85.831 85.831 0 0 1-16.284-1.385c-.322-.058-.664-.129-.896-.36-.186-.183-.273-.443-.34-.695a7.696 7.696 0 0 1 .947-6.08M220.859 273.89c-2.96-.06-5.928.244-8.816.904a32.983 32.983 0 0 1-7.061 4.548c-.736.35-1.513.694-2.034 1.321-.521.627-.686 1.639-.128 2.233.487.52 1.295.53 2.007.494a85.862 85.862 0 0 0 16.171-2.36c.318-.077.655-.168.873-.412.174-.195.246-.46.299-.716a7.699 7.699 0 0 0-1.311-6.012"/>
        <path fill="#F0E5D4" d="M250.568 32.522c-.067-.969-.15-1.99-.7-2.791-.846-1.234-2.5-1.56-3.985-1.73-6.35 0-12.616.288-19.015.598-.538.025-1.113.065-1.537.397-.452.354-.62.956-.716 1.522-.45 2.627.405 5.375.368 8.061-.039 2.754.073 5.526.55 8.242.93 5.285 3.358 10.2 7.95 13.207 1.53 1.002 3.287 1.764 5.115 1.75 2.459-.02 4.714-1.445 6.423-3.214 6.362-6.585 6.172-16.907 5.547-26.042"/>
        <path fill="#3D202C" d="M244.254 58.029c-1.19 2.61-4.142 3.375-7.196 2.513-1.655-.467-3.77-2.008-5.481-2.17 1.313 1.781 3.122 3.644 5.29 4.094 2.166.45 4.575-.117 6.155-1.667.757-.743 1.642-1.792 1.232-2.77M249.49 22.186c-2.051-1.577-4.634-1.935-7.142-2.053-2.742-.13-5.314-.775-8.096-.334-1.439.229-2.85.644-4.303.762-1.452.118-3.005-.097-4.152-.997-.494-.388-.961-.919-1.589-.942-.878-.032-1.428.92-1.734 1.744-1.563 4.216-2.174 8.946-1.542 13.412.512 3.62 3.145 7.3 4.542 10.717.053.127.108.259.213.347.249.21.66.056.831-.22.172-.277.174-.621.177-.947.017-2.56.275-5.287 1.049-7.74.956-3.026 1.904-1.808 4.586-1.99 4.031-.272 8.39-3.538 12.396-1.488 1.327.68 2.294 1.884 3.219 3.052 1.35 1.706 2.771 3.616 2.681 5.79 1.905-.96 2.34-3.439 2.508-5.564.386-4.87.229-10.57-3.644-13.549"/>
        <path fill="#570025" d="M264.816 126.623l-.9-8.149c-1.877-16.955-3.794-34.102-9.539-50.113-1.423-3.967-5.045-8.522-8.884-4.445-.469.498-.988 1.034-1.698 1.524-3.826 2.64-8.962 2.369-13.156.801-3.664-1.371-5.875-6.604-10.391-4.636-4.254 1.855-6.18 9.28-6.756 13.524-1.056 7.764-1.516 15.773-2.331 23.605-1.453 13.96-2.907 27.932-3.481 41.96-.239 5.815-.33 11.68-1.557 17.363 3.097.81 6.346.583 9.541.572 7.492-.026 14.934 1.16 22.41 1.655 5.973.395 12.064.344 17.909-1.117.95-.238 12.141-2.623 12.078-3.199l-3.245-29.345"/>
        <path fill="#F0F0F0" d="M267.535 152.73c.174-.033.234-.124.134-.298-.65-1.139-1.658-3.233-2.694-5.686-.78-12.184-2.01-24.396-4.137-36.39-2.625-14.794-8.285-28.521-11.66-43.07-.994-4.28-6.105-3.897-8.008-.906-.146.033-.294.062-.442.092-1.627-1.43-3.606-2.622-6.036-3.497-2.711-.975-5.531 1.552-5.53 4.212.001 2.836-.044 5.68-.112 8.527a433.223 433.223 0 0 0-8.456 70.319l.002.08c-.264 1.214-.53 2.427-.806 3.637-.593 1.83-1.227 3.915-1.301 5.532-.038.158-.074.317-.113.476-.507 2.07.662 3.863 2.595 4.57 14.797 5.409 30.616 4.535 44.798-2.228.196-.094.37-.198.533-.309l.372-.156.66-.51c.51-.51.801-1.165.896-1.871a3.433 3.433 0 0 0-.695-2.524"/>
        <path fill="#E8DBCE" d="M282.657 24.326a9.738 9.738 0 0 1 1.402-2.781c.595-.821 1.596-1.618 2.56-1.24.953.374 1.148 1.602 1.107 2.602-.19 4.622-2.19 8.938-4.157 13.119a15.724 15.724 0 0 1-4.53-1.966 11.672 11.672 0 0 0 1.762-5.417c.136-2.042-.213-4.298.984-5.96l.73.377.142 1.266"/>
        <path fill="#570025" d="M222.138 97.55c-5.886 3.966-3.868-18.971-4.16-21.792-.337-3.264-.836-8.75 1.94-11.242 4.91-4.407 18.286.847 24.134 1.502 6.337.711 12.819.108 18.917-1.758 1.363-.417 2.734-.911 3.857-1.791 3.038-2.382 11.721-29.56 12.331-29.391l6.099 1.68c-1.847 8.395-3.63 16.806-5.54 25.186-1.471 6.463-1.743 13.998-6.4 19.164-2.954 3.275-7.25 5.022-11.536 6.056-11.395 2.748-29.516 5.564-39.642 12.386"/>
        <g transform="translate(121.22 280.72)">
            <mask id="i" fill="#fff">
                <use xlink:href="#g"/>
            </mask>
            <path fill="url(#h)" d="M4.795.886c-.07 0-.137 0-.2-.003a1294.884 1294.884 0 0 1 .2.002" mask="url(#i)"/>
        </g>
        <g transform="translate(128.18 281.3)">
            <mask id="l" fill="#fff">
                <use xlink:href="#j"/>
            </mask>
            <path fill="url(#k)" d="M3.563 1.618c.112-.304-.099-.638-.705-1.002-.497-.3-1.463-.37-2.47-.37 1.007 0 1.973.07 2.47.37.606.364.817.698.706 1.002h-.001" mask="url(#l)"/>
        </g>
        <path fill="#3D202C" d="M105.262 281.562c-.519-.553-1.259-.83-1.962-1.113a30.677 30.677 0 0 1-6.814-3.83 33.792 33.792 0 0 0-8.24-.348 7.164 7.164 0 0 0-.881 5.658c.063.235.144.477.317.648.216.215.535.28.834.335a79.933 79.933 0 0 0 15.154 1.289c.663-.007 1.413-.062 1.837-.572.485-.584.275-1.514-.245-2.067M77.858 281.36c-.535-.514-1.272-.744-1.974-.986a30.034 30.034 0 0 1-6.848-3.39 33.012 33.012 0 0 0-8.063.081 7.006 7.006 0 0 0-.571 5.57c.073.227.165.458.343.617.222.198.536.246.831.284 4.924.633 9.908.794 14.862.482.647-.04 1.377-.132 1.765-.652.443-.595.19-1.492-.345-2.006"/>
        <path fill="#F0E5D4" d="M104.765 165.818l-.001-.033c-.193-5.772-.979-11.507-1.697-17.254-.444-3.555-.96-7.234-2.759-10.233-9.106 6.363-20.904 7.424-30.891 2.917-1.042-.47-2.385-.94-3.17-.056-.252.285-.39.666-.517 1.038-2.047 5.994-2.853 12.488-2.356 18.864-.138 18.394 1.448 37.038.693 55.318-.822 19.9-.968 39.783-2.243 59.671.408 2.285 4.399 2.947 5.778 1.47 1.38-1.477.431-4.198.814-6.49l13.026-78.088 2.37-.26c1.917 7.887 2.172 16.284 2.413 24.562l1.713 59.01c0 2.018 7.121.224 7.587.088l.085-1.21c.715-10.135 1.578-20.256 2.452-30.374.817-9.45.822-19.525 2.753-28.774.784-3.755.292-7.261.336-11.097.054-4.687.623-9.345 1.27-13.97.992-7.092 2.26-14.181 2.386-21.375a74.443 74.443 0 0 0-.042-3.724"/>
        <path fill="#E8DBCE" d="M84.256 64.412c-.27-4.194-2.086-8.114-3.941-11.885-1.495-3.038-3.123-6.16-5.813-8.218-.535-.41-1.136-.782-1.807-.843-.574-.052-1.14.128-1.688.307-5.182 1.685-10.434 3.404-14.98 6.406-.331.22-.678.468-.817.84-.124.334-.059.704.01 1.053 2.103 10.5 6.636 24.365 17.159 26.96 5.103-2.464 4.19-.571 9.485-2.595-1.42-2.763 2.591-8.924 2.392-12.025"/>
        <path fill="#570025" d="M96.631 73.087c-1.193-1.397-2.955-2.163-3.687-3.875-.789-1.846-1.27-4.36-1.673-6.303-1.155-5.558-2.832-10.771-4.999-16.031a6.108 6.108 0 0 0-.274-.574c1.155-2.593.662-5.78-2.274-7.836-.756-.53-1.877-.98-3.252-1.346-1.054-.644-2.584-.96-4.016-.836-.142.012-.284.037-.426.052-10.775-1.17-27.53 1.303-26.723 9.923-.328.384-.561.8-.637 1.255-.224 1.343.152 2.187.869 2.684a8.34 8.34 0 0 0-.87 2.978 7.626 7.626 0 0 0-1.283 2.325c-1.257 3.656-.593 7.673.538 11.265 1.037 3.298 2.843 6.336 2.908 9.88.071 3.915-2.6 4.43-5.95 5.272-6.612 1.66-10.349 5.477-10.463 12.597-.053 3.278.836 6.824 2.87 9.443 1.979 2.551 5.341 5.677 8.317 6.938 1.3.552 2.673.54 3.896.148 5.618.949 11.48-.116 15.206-4.922.488-.63.896-1.295 1.232-1.985 1.472-1.303 2.56-3.086 3.012-5.453.99-5.176-2.685-9.37-7.36-9.927a7.15 7.15 0 0 0-2.192-1.93c2.87-2.099 5.465-4.095 6.603-7.693 2.355-7.453-1.967-15.73-7.792-20.25-.636-.493-.448-.944-1.124-1.055-.047-.179-.095-.358-.134-.537 2.833-.581 2.121-4.389.664-6.713.742-.901 1.655-1.528 2.676-2 1.138.059 2.288.211 3.064.323 2.112.303 4.13.543 6.27.71 2.723.21 5.608.95 8.41 1.016.063.086.137.178.191.259.137.203.3.333.471.425 1.363 3.047 2.405 6.165 3.306 9.39.643 2.303.866 4.572 1.201 6.845-1.13.55-1.996 1.664-2.109 3.461-.254 4.068.417 8.51 2.527 12.044.53.888 1.426 1.7 1.836 2.646.105.24.25.287.36.276-.134.087-.36.262-.724.595-1.38 1.264-2.526 2.203-2.892 4.163-1.609 8.617 9.388 10.746 14.164 5.19 4.665-5.425 4.934-17.367.263-22.837"/>
        <path fill="#FF7D84" d="M109.043 191.061c.017-5.288-.763-10.61-1.192-15.883-.43-5.292-.794-10.586-1.365-15.864-1.126-10.392-2.542-20.773-4.146-31.086-2.704-17.392-7.74-34.766-20.507-45.993-3.687.942-7.585 1.098-11.516 1.115-.089.23-.169.474-.23.742-6.036 26.8-8.468 54.184-12.989 81.284-.573 3.434-1.394 7.016-2.048 10.604-1.353 3.759-3.208 7.83-3.676 11.942a6.634 6.634 0 0 0-.702 1.777c-1.558 2.063-1.305 5.472 1.338 6.715.574.27 1.16.353 1.725.298.088.037.163.086.254.12 9.35 3.456 19.47 5.714 29.354 5.3a5.737 5.737 0 0 0 1.677-.32c2.876.189 5.734.295 8.649.368 3.634.092 8.536.952 11.805-.986 1.95-1.155 2.58-3.64 2.27-5.9.803-1.109 1.293-2.52 1.3-4.233"/>
        <path fill="#414141" d="M83.078 60.102c-.868 3.278-8.023 1.489-7.464-1.672v-.023c1.09-.93 2.235-1.638 3.757-1.7 1.898-.075 4.296 1.17 3.707 3.395zM66.83 66.525c-2.713.278-6.117-1.137-4.663-4.322.576-1.26 1.613-2.28 2.846-2.9.084.243.4.396.664.172 1.972-1.675 5.361-.555 5.56 2.184.185 2.583-1.965 4.615-4.407 4.866zm14.362-10.47c-2.304-.71-5.383.159-6.614 2.318l-.042.118c-1.084.297-2.183.649-3.288.843-1.2-1.504-3.434-2.08-5.12-1.22-2.578.63-4.825 2.574-5.207 5.366-.472 3.453 4.386 4.377 6.944 3.74 2.952-.734 5.266-4.138 3.869-7.117l-.056-.092c1.061-.357 2.186-.59 3.264-.874.979 3.437 7.63 5.324 8.96 1.409.686-2.015-.856-3.92-2.71-4.49z"/>
        <path fill="#E8DBCE" d="M82.149 111.58c-5.515 3.094-19.807 11.107-26.372 10.404 6.492-6.444 12.555-13.862 15.671-17.922 3.583-4.665 2.497-12.122 1.42-17.46-.702-3.481-4.578-3.342-6.401-1.226-1.13.125-2.167.778-2.78 2.18-6.238 14.28-18.11 26.615-20.94 42.268-.386 2.134.562 5.003 3.07 5.406 15.38 2.474 26.023-13.623 38.66-19.401 5.1-2.331-.336-5.367-2.328-4.25M105.786 114.023c-.794-1.262-1.305-2.614-2.225-3.818-.91-1.193-2.006-2.177-3.205-3.071-1.082-.807-2.204.454-2.067 1.512.163 1.25.498 2.493.94 3.7-1.39-.473-2.776-.955-4.128-1.522-.111-.01-.222-.024-.335-.031-1.26-.083-2.16-.678-2.726-1.488-1.375-.065-2.636.181-3.537 1.039-2.062 1.964 8.993 8.28 10.28 9.366.651.548 1.31 1.128 2.118 1.396 2.753.912 5.524-2.99 4.563-5.508.475-.338.736-.919.322-1.575"/>
        <path fill="#E8DBCE" d="M87.245 102.766c-.253-1.18-.864-2.196-2.11-2.82-.65-.325-1.634.173-1.67.932l-.263 5.445c-.166-.098-.332-.199-.499-.297-.962-.57-1.931.664-1.621 1.556.534 1.54 1.53 2.414 2.458 3.682.463.633 1.034.668 1.497.421.502.443 1.3.555 1.839-.117.261-.327.33-.674.268-.99.831-2.652 1.443-5.44.101-7.812"/>
        <path fill="#E8DBCE" d="M91.987 103.18c-.088-1.203-.551-2.294-1.698-3.084-.598-.413-1.643-.056-1.784.69l-1.015 5.357-.453-.364c-.874-.697-2.004.39-1.822 1.316.316 1.6 1.18 2.603 1.924 3.988.371.69.931.805 1.424.624.436.509 1.21.73 1.838.139.305-.287.42-.621.403-.942 1.19-2.512 2.183-5.187 1.183-7.724"/>
        <path stroke="#C92C56" stroke-width="2" d="M35.22 35.8h72.82v247.98H35.22zM117 24.2h69.92v259.58H117zM202.84 14.92h87.32v268.86h-87.32z"/>
        <path stroke="#C92C56" stroke-width="2" d="M282.88 14.92h114.58v268.86H282.88zM398.3 1h87.32v282.78H398.3z"/>
    </g>
</svg>
