<svg xmlns="http://www.w3.org/2000/svg" width="172" height="74" viewBox="0 0 172 74">
    <g fill="none" fill-rule="evenodd" opacity=".504">
        <path fill="#FFBCBC" d="M21.838 43.658h126.67c11.129 0 20.15-9.026 20.15-20.16s-9.022-20.16-20.151-20.16H21.838c-11.13 0-20.151 9.026-20.151 20.16s9.022 20.16 20.151 20.16"/>
        <g fill="#EB595E">
            <path d="M41.591 23.441c0-6.425-5.103-11.635-11.397-11.635-6.294 0-11.396 5.21-11.396 11.635S23.9 35.076 30.194 35.076c6.294 0 11.397-5.21 11.397-11.635M75.782 23.441c0-6.425-5.103-11.635-11.397-11.635-6.294 0-11.397 5.21-11.397 11.635s5.103 11.635 11.397 11.635c6.294 0 11.397-5.21 11.397-11.635M127.068 23.441c0-6.425 5.103-11.635 11.397-11.635 6.293 0 11.396 5.21 11.396 11.635s-5.103 11.635-11.396 11.635c-6.294 0-11.397-5.21-11.397-11.635"/>
        </g>
        <path fill="#FFBCBC" d="M107.942 70.538H62.404c0-9.276 7.647-16.8 17.076-16.8h11.385c9.43 0 17.077 7.524 17.077 16.8"/>
        <path fill="#FFBCBC" d="M78.426 54.474h11.806c2.072 0 4.056.344 5.904.944v-11.76H72.523v11.76c1.848-.6 3.832-.944 5.903-.944"/>
        <path fill="#EB595E" d="M148.488 1.859h-8.568c11.041 0 19.992 8.942 19.992 19.973 0 11.03-8.95 19.972-19.992 19.972h8.568c11.041 0 19.992-8.942 19.992-19.972 0-11.031-8.95-19.973-19.992-19.973M91.367 53.218H82.8c9.462 0 17.136 7.666 17.136 17.12h8.569c0-9.454-7.675-17.12-17.137-17.12"/>
        <path fill="#EB595E" d="M88.511 41.805v11.413h2.856c2.005 0 3.924.362 5.712.995V41.805h-8.568z"/>
        <g fill="#FFF" fill-rule="nonzero">
            <path d="M21.858 1.859h8.568c-11.042 0-19.993 8.942-19.993 19.973 0 11.03 8.951 19.972 19.993 19.972h-8.568c-11.042 0-19.993-8.942-19.993-19.972 0-11.031 8.951-19.973 19.993-19.973M78.978 53.218h8.568c-9.464 0-17.136 7.666-17.136 17.12h-8.568c0-9.454 7.671-17.12 17.136-17.12"/>
            <path d="M81.834 41.805v11.413h-2.856c-2.007 0-3.924.362-5.712.995V41.805h8.568z"/>
        </g>
        <path fill="#3D202C" d="M22.893 5.683c-9.47 0-17.17 7.646-17.17 17.048 0 9.402 7.7 17.048 17.17 17.048h125.911c9.47 0 17.17-7.646 17.17-17.048 0-9.402-7.7-17.048-17.17-17.048H22.893zm125.91 39.78H22.894C10.27 45.462 0 35.264 0 22.73 0 10.198 10.27 0 22.893 0h125.911c12.623 0 22.893 10.198 22.893 22.731 0 12.534-10.27 22.731-22.893 22.731z"/>
        <path fill="#3D202C" d="M31.478 14.207c-4.733 0-8.585 3.824-8.585 8.524 0 4.7 3.852 8.524 8.585 8.524 4.733 0 8.585-3.824 8.585-8.524 0-4.7-3.852-8.524-8.585-8.524m0 22.731c-7.89 0-14.308-6.373-14.308-14.207 0-7.834 6.418-14.207 14.308-14.207s14.308 6.373 14.308 14.207c0 7.834-6.419 14.207-14.308 14.207M65.817 14.207c-4.733 0-8.585 3.824-8.585 8.524 0 4.7 3.852 8.524 8.585 8.524 4.733 0 8.585-3.824 8.585-8.524 0-4.7-3.852-8.524-8.585-8.524m0 22.731c-7.89 0-14.308-6.373-14.308-14.207 0-7.834 6.419-14.207 14.308-14.207 7.89 0 14.308 6.373 14.308 14.207 0 7.834-6.419 14.207-14.308 14.207M143.08 22.731c0-1.568-1.281-2.841-2.86-2.841a2.853 2.853 0 0 0-2.862 2.841 2.853 2.853 0 0 0 2.861 2.841 2.852 2.852 0 0 0 2.862-2.84"/>
        <path fill="#3D202C" d="M68.679 22.731a2.853 2.853 0 0 0-2.862-2.841 2.853 2.853 0 0 0-2.861 2.841 2.853 2.853 0 0 0 2.861 2.841 2.852 2.852 0 0 0 2.862-2.84M34.34 22.731a2.853 2.853 0 0 0-2.862-2.841 2.853 2.853 0 0 0-2.862 2.841 2.853 2.853 0 0 0 2.862 2.841 2.852 2.852 0 0 0 2.861-2.84M140.219 14.207c-4.733 0-8.585 3.824-8.585 8.524 0 4.7 3.852 8.524 8.585 8.524 4.733 0 8.585-3.824 8.585-8.524 0-4.7-3.852-8.524-8.585-8.524m0 22.731c-7.89 0-14.308-6.373-14.308-14.207 0-7.834 6.418-14.207 14.308-14.207s14.308 6.373 14.308 14.207c0 7.834-6.419 14.207-14.308 14.207M66.105 68.193h39.487c-1.33-6.475-7.11-11.365-14.022-11.365H80.124c-6.908 0-12.691 4.89-14.02 11.365m42.636 5.683H62.954a2.853 2.853 0 0 1-2.861-2.842c0-10.967 8.988-19.889 20.031-19.889H91.57c11.046 0 20.031 8.922 20.031 19.89a2.85 2.85 0 0 1-2.861 2.84"/>
        <path fill="#3D202C" d="M80.125 51.145h11.446c.956 0 1.912.068 2.862.21v-5.893h-17.17v5.893a19.33 19.33 0 0 1 2.862-.21m17.17 6.674c-.32 0-.644-.054-.953-.162a14.329 14.329 0 0 0-4.77-.83H80.124a14.32 14.32 0 0 0-4.77.83 2.889 2.889 0 0 1-2.604-.36 2.835 2.835 0 0 1-1.21-2.32V42.622a2.853 2.853 0 0 1 2.86-2.841h22.894c1.58 0 2.861 1.273 2.861 2.84v12.358c0 .92-.452 1.787-1.21 2.318a2.87 2.87 0 0 1-1.651.523"/>
    </g>
</svg>
