<svg xmlns="http://www.w3.org/2000/svg" width="522" height="448" viewBox="0 0 522 448">
    <g fill="none" fill-rule="evenodd">
        <path fill="#EB595E" d="M220.464 341.938H21.105a.07.07 0 0 1-.07-.07v-21.547c0-4.898 3.974-8.87 8.878-8.87h4.022c4.903 0 8.879-3.97 8.879-8.87v-14.187c0-4.857 3.939-8.799 8.807-8.799h5.015c4.862 0 8.808-3.936 8.808-8.8v-6.143c0-4.898 3.975-8.87 8.879-8.87h4.874c4.903 0 8.878 3.972 8.878 8.87v36.163c0 4.899 3.975 8.87 8.878 8.87h1.672c4.903 0 8.878-3.971 8.878-8.87v-16.523c0-4.898 3.975-8.87 8.878-8.87h4.874c4.904 0 8.879 3.972 8.879 8.87v29.898c0 4.9 3.974 8.87 8.878 8.87h4.291c4.904 0 8.878-3.97 8.878-8.87v-6.898c0-4.899 3.976-8.87 8.879-8.87h4.945c4.868 0 8.807 3.942 8.807 8.8v15.397c0 2.425.987 4.626 2.582 6.22a8.784 8.784 0 0 0 6.226 2.58c4.868 0 8.808-3.303 8.808-8.16v-3.36c0-3.123 1.268-5.952 3.318-8a11.291 11.291 0 0 1 8.036-3.308c6.297.02 11.283 5.377 11.283 11.668v13.418c0 3.661 13.767 6.803 16.954 8.13.071.03-11.478.131-11.555.131M283.96 343.775h144.76a.051.051 0 0 0 .052-.052v-15.646a6.444 6.444 0 0 0-6.446-6.44h-2.921a6.444 6.444 0 0 1-6.447-6.44v-10.302c0-3.527-2.86-6.39-6.396-6.39h-3.641a6.392 6.392 0 0 1-6.396-6.39v-4.46a6.443 6.443 0 0 0-6.446-6.44h-3.54a6.443 6.443 0 0 0-6.447 6.44v26.259a6.444 6.444 0 0 1-6.447 6.44h-1.213a6.444 6.444 0 0 1-6.447-6.44v-11.998a6.444 6.444 0 0 0-6.447-6.44h-3.54a6.443 6.443 0 0 0-6.445 6.44v21.71a6.444 6.444 0 0 1-6.448 6.44h-3.115a6.444 6.444 0 0 1-6.447-6.44v-5.009a6.444 6.444 0 0 0-6.447-6.441h-3.59a6.392 6.392 0 0 0-6.396 6.39v11.18c0 1.76-.716 3.36-1.875 4.517a6.38 6.38 0 0 1-4.52 1.872c-3.536 0-6.396-2.397-6.396-5.924v-2.44c0-2.267-.92-4.322-2.41-5.808a8.197 8.197 0 0 0-5.835-2.403c-4.572.015-8.192 3.905-8.192 8.473v9.743c0 2.658-9.998 4.94-12.312 5.903-.051.022 8.334.096 8.39.096"/>
        <path fill="#FFE4E4" d="M491.225 98.508l-29.608-.665a4.425 4.425 0 0 1-4.314-4.509l.02-.896c.055-2.424 2.085-4.364 4.513-4.31l29.608.666c2.427.055 4.369 2.084 4.314 4.509l-.02.895c-.055 2.426-2.086 4.365-4.513 4.31M516.54 80.475l-13.272-.299a3.158 3.158 0 0 1-3.078-3.218l.077-3.42a3.159 3.159 0 0 1 3.22-3.077l13.272.299a3.158 3.158 0 0 1 3.08 3.217l-.078 3.421a3.159 3.159 0 0 1-3.221 3.077M111.38 62.396H83.061c-3.63 0-6.6-2.967-6.6-6.594v-2.208c0-3.627 2.97-6.594 6.6-6.594h28.317c3.63 0 6.6 2.967 6.6 6.594v2.208c0 3.627-2.97 6.594-6.6 6.594M143.532 62.396h-7.38c-4.238 0-7.705-3.464-7.705-7.698 0-4.233 3.467-7.698 7.705-7.698h7.38c4.237 0 7.705 3.465 7.705 7.698 0 4.234-3.468 7.698-7.705 7.698"/>
        <path fill="#3D202C" d="M370.531 344.916h5.7V209.83h-5.7zM444.013 346.385h3.723V234.401h-3.723z"/>
        <path fill="#FFE4E4" d="M425.155 189.915c0 29.556-23.983 53.516-53.567 53.516-29.585 0-53.568-23.96-53.568-53.516 0-29.556 23.983-53.517 53.568-53.517 29.584 0 53.567 23.96 53.567 53.517"/>
        <path fill="#FFE4E4" d="M355.18 233.637c0 7.602-6.17 13.764-13.779 13.764-7.61 0-13.778-6.162-13.778-13.764 0-7.603 6.169-13.765 13.778-13.765 7.61 0 13.779 6.162 13.779 13.765M439.247 162.56c0 14.39-11.677 26.056-26.08 26.056-14.405 0-26.081-11.665-26.081-26.056 0-14.39 11.676-26.055 26.08-26.055 14.404 0 26.08 11.665 26.08 26.055M395.12 261.162c0 6.784-5.504 12.283-12.294 12.283-6.79 0-12.295-5.5-12.295-12.283 0-6.783 5.505-12.283 12.295-12.283s12.295 5.5 12.295 12.283"/>
        <path fill="#3D202C" d="M93.455 335.072h4.042V239.31h-4.042z"/>
        <path fill="#FFE4E4" d="M132.178 225.19c0 20.953-17.001 37.939-37.974 37.939-20.973 0-37.974-16.986-37.974-37.938 0-20.953 17.001-37.939 37.974-37.939 20.973 0 37.974 16.986 37.974 37.939M110.887 275.699c0 4.808-3.902 8.707-8.716 8.707-4.814 0-8.716-3.899-8.716-8.707 0-4.81 3.902-8.708 8.716-8.708 4.814 0 8.716 3.898 8.716 8.708M476.529 244.172c0 19.254-13.725 34.863-30.655 34.863s-30.655-15.609-30.655-34.863c0-19.255 13.725-34.863 30.655-34.863s30.655 15.608 30.655 34.863M488.532 258.472a2.69 2.69 0 0 1-2.693 2.69 2.691 2.691 0 1 1 0-5.38 2.691 2.691 0 0 1 2.693 2.69M485.188 209.16a6.343 6.343 0 0 1-6.346 6.34 6.342 6.342 0 0 1-6.346-6.34c0-3.502 2.84-6.34 6.346-6.34a6.344 6.344 0 0 1 6.346 6.34M129.547 258.8a3.02 3.02 0 0 1-3.02 3.019 3.02 3.02 0 0 1-3.021-3.019 3.02 3.02 0 0 1 3.02-3.018 3.02 3.02 0 0 1 3.021 3.018M34.534 261.387a5.607 5.607 0 0 1-5.61 5.604 5.607 5.607 0 0 1-5.61-5.604 5.607 5.607 0 0 1 5.61-5.605c3.098 0 5.61 2.51 5.61 5.605"/>
        <path fill="#E8ECED" d="M0 356.483v-5.243c0-5.136 4.75-9.3 10.611-9.3H511.39c5.86 0 10.611 4.164 10.611 9.3v5.243c0 5.137-4.75 9.3-10.611 9.3H396.295c-5.86 0-10.611 4.165-10.611 9.302s4.75 9.302 10.611 9.302h28.284c5.86 0 10.61 4.164 10.61 9.3v5.242c0 5.138-4.75 9.302-10.61 9.302h-45.194c-5.86 0-10.611 4.164-10.611 9.301v1.28c0 5.137 4.75 9.302 10.611 9.302h73.07c5.86 0 10.611 4.164 10.611 9.3v1.28c0 5.138-4.75 9.302-10.611 9.302H246.98c-5.86 0-10.611-4.164-10.611-9.302v-1.28c0-5.136-4.751-9.3-10.611-9.3h-51.014c-5.86 0-10.611-4.165-10.611-9.302v-1.28c0-5.137-4.751-9.301-10.611-9.301h-39.92c-5.861 0-10.612-4.164-10.612-9.302v-5.241c0-5.137 4.75-9.301 10.611-9.301h75.946c5.86 0 10.611-4.165 10.611-9.302s-4.75-9.301-10.611-9.301H10.611C4.751 365.784 0 361.62 0 356.483"/>
        <path fill="#FF7D84" d="M391.138 341.94c0-25.712 24.95-46.556 55.728-46.556 30.778 0 55.728 20.844 55.728 46.555H391.138"/>
        <path fill="#FFBCBC" d="M341.143 341.94c0-17.775 17.247-32.183 38.524-32.183 21.275 0 38.523 14.408 38.523 32.182h-77.047"/>
        <path fill="#FF7D84" d="M109.935 341.94c0-16.56-19.39-29.984-43.31-29.984s-43.31 13.424-43.31 29.983h86.62"/>
        <path fill="#FFBCBC" d="M148.79 341.94c0-11.447-13.405-20.727-29.94-20.727-16.534 0-29.939 9.28-29.939 20.726h59.879"/>
        <path fill="#E8ECED" d="M74.392 418.715H22.656c-5.474 0-9.913-4.434-9.913-9.903v-1.25c0-5.47 4.439-9.903 9.913-9.903h51.736c5.474 0 9.912 4.433 9.912 9.903v1.25c0 5.469-4.438 9.903-9.912 9.903M154.99 447.996h-24.506c-5.82 0-10.538-4.714-10.538-10.528 0-5.815 4.718-10.528 10.538-10.528h24.507c5.82 0 10.538 4.713 10.538 10.528 0 5.814-4.718 10.528-10.538 10.528M498.964 404.27h-24.508c-5.82 0-10.538-4.714-10.538-10.528 0-5.815 4.718-10.529 10.538-10.529h24.508c5.82 0 10.537 4.714 10.537 10.529 0 5.814-4.717 10.527-10.537 10.527"/>
        <path fill="#3D202C" d="M45.224 341.983h2.337V271.68h-2.337z"/>
        <path fill="#FFE4E4" d="M65.637 290.393c0 12.087-8.615 21.887-19.244 21.887-10.63 0-19.245-9.8-19.245-21.887 0-12.088 8.616-21.887 19.245-21.887 10.629 0 19.244 9.799 19.244 21.887"/>
        <path fill="#740C32" d="M160.243 359.788h8.569V246.652h-17.939l9.37 113.136"/>
        <path fill="#990838" d="M158.656 360.522h11.626v-6.734h-11.626z"/>
        <path fill="#740C32" d="M182.621 359.788h-8.569V246.652h17.938l-9.369 113.136"/>
        <path fill="#990838" d="M173.206 360.469h11.627v-6.734h-11.627z"/>
        <path fill="#292B2E" d="M207.596 202.172l.642-.275a4.921 4.921 0 0 0 2.586-6.465l-19.092-44.474-9.698 4.156 19.092 44.474a4.928 4.928 0 0 0 6.47 2.584"/>
        <path fill="#6B727A" d="M196.632 162.82v83.83h-51.685v-83.83c0-.257.007-.507.03-.764a13.662 13.662 0 0 1 2.845-7.653c2.521-3.254 6.462-5.355 10.903-5.355h24.115c7.36 0 13.373 5.759 13.763 13.008.022.257.03.507.03.764"/>
        <path fill="#F7D29D" d="M170.786 154.63a5.521 5.521 0 0 1-5.524-5.518v-7.789h11.048v7.789a5.521 5.521 0 0 1-5.524 5.518M186.21 110.215c1.245 3.233-.21 6.802-3.251 7.97-3.041 1.168-6.515-.507-7.76-3.74-1.244-3.234.212-6.802 3.252-7.97 3.041-1.168 6.515.506 7.76 3.74"/>
        <path fill="#F7D29D" d="M182.02 138.358l-12.498 4.8c-4.523 1.738-9.646-.537-11.385-5.055l-13.422-34.87c-1.738-4.518.54-9.637 5.062-11.374l12.498-4.802c4.522-1.737 9.646.539 11.385 5.057l13.421 34.87c1.739 4.518-.538 9.636-5.061 11.374"/>
        <path fill="#F7D29D" d="M158.302 120.2c1.245 3.235-.211 6.803-3.252 7.97-3.04 1.169-6.515-.505-7.76-3.74-1.244-3.233.212-6.8 3.253-7.969 3.04-1.168 6.514.506 7.759 3.74"/>
        <path fill="#3D202C" d="M186.68 121.879c3.11 8.08-.562 17.08-8.161 20l-4.036 1.55c-7.6 2.92-16.362-1.304-19.472-9.384 0 0-4.588-15.544-3.438-18.436l4.407 11.448c1.568 4.075 5.986 6.203 9.817 4.732l11.363-4.366c3.831-1.471 5.683-6.009 4.115-10.083l-4.407-11.448c2.794 1.376 9.812 15.987 9.812 15.987"/>
        <path fill="#3D202C" d="M143.672 104.583c-2.724-7.077.789-12.868 6.901-15.216l9.44-3.627c6.112-2.348 12.604-.4 15.328 6.677 0 0 6.306 20.007 5.228 23.09l-4.797-12.465c-1.708-4.436-6.237-6.86-10.07-5.388l-11.364 4.366c-3.831 1.472-5.569 6.304-3.86 10.74l4.796 12.463c-2.867-1.566-11.602-20.64-11.602-20.64"/>
        <path fill="#F7D29D" d="M159.262 149.047c0 4.457 5.342 8.07 11.93 8.07 6.589 0 11.93-3.613 11.93-8.07h-23.86"/>
        <path fill="#740C32" d="M156.806 258.624h27.96v-11.972h-27.96z"/>
        <path fill="#3D202C" d="M171.192 365.532h-13.447v-2.954a6.642 6.642 0 0 1 6.645-6.638h.157a6.642 6.642 0 0 1 6.645 6.638v2.954M185.743 365.532h-13.447v-2.954a6.642 6.642 0 0 1 6.646-6.638h.156a6.642 6.642 0 0 1 6.645 6.638v2.954M173.047 89.885c-2.376-6.174-9.235-9.286-15.318-6.948-6.084 2.337-9.09 9.237-6.713 15.412 15.3-4.282 16.799 4.086 15.319 6.95 6.084-2.338 9.09-9.239 6.712-15.414M181.095 125.608c2.054 5.336-.632 11.333-6 13.395-5.367 2.062-11.383-.592-13.437-5.928-2.053-5.335 2.112-7.49 7.48-9.551 5.367-2.062 9.904-3.251 11.957 2.084"/>
        <path fill="#F7D29D" d="M178.027 127.385c.526 1.367-1.747 3.513-5.077 4.792-3.33 1.28-6.457 1.208-6.983-.16 0 0 4.876-1.872 5.077-4.792 2.421 1.913 6.983.16 6.983.16"/>
        <path fill="#C92C56" d="M196.629 162.819v2.133h-51.682v-2.133c0-.255.007-.509.028-.762H196.6c.021.253.028.507.028.762"/>
        <path fill="#FF7D84" d="M144.947 171.307h51.682v-2.896h-51.682z"/>
        <path fill="#C92C56" d="M144.947 177.188h51.682v-2.896h-51.682z"/>
        <path fill="#292B2E" d="M168.055 196.446l-.596.36a4.923 4.923 0 0 1-6.779-1.594l-15.733-25.407v-6.985c0-.257.007-.507.03-.764a13.662 13.662 0 0 1 2.845-7.653l21.835 35.264a4.929 4.929 0 0 1-1.602 6.78"/>
        <path fill="#C92C56" d="M144.947 241.386h51.682v-2.903h-51.682z"/>
        <path fill="#FF7D84" d="M144.947 235.662h51.682v-2.895h-51.682z"/>
        <path fill="#C92C56" d="M144.947 229.83h51.682v-2.896h-51.682z"/>
        <path fill="#FF7D84" d="M298.116 51.971l-2.304.452.985 5.008 2.303-.451-.984-5.009"/>
        <path fill="#B5BCC4" d="M339.798 60.837c-8.116-3.756-39.765 2.777-39.765 2.777l-48.186 7.13-1.24-6.318 47.747-9.362s30.635-5.79 37.865-12.444l3.579 18.217"/>
        <path fill="#FFBCBC" d="M251.02 73.958l-5.956 1.167a4.398 4.398 0 0 1-5.163-3.465l-.74-3.77a4.394 4.394 0 0 1 3.468-5.159l5.955-1.168a4.399 4.399 0 0 1 5.164 3.466l.741 3.77a4.395 4.395 0 0 1-3.47 5.159"/>
        <path fill="#FF7D84" d="M247.203 55.978l-4.838.948 1.108 5.64 4.838-.95-1.108-5.638"/>
        <path fill="#B5BCC4" d="M250.6 55.698l-11.487 2.252-.73-3.719 11.487-2.252.73 3.719"/>
        <path fill="#B5BCC4" d="M299.502 44.115s-11.082 4.887-25.385 7.692c-14.304 2.804-26.129 3.907-26.412 2.463-.284-1.444 11.081-4.888 25.385-7.692 14.303-2.804 26.412-2.463 26.412-2.463M189.685 65.646s12.108.341 26.411-2.463c14.304-2.805 25.669-6.249 25.385-7.693-.284-1.444-12.108-.34-26.412 2.464-14.303 2.804-25.384 7.692-25.384 7.692M299.733 51.838l-5.468 1.072-.348-1.77 5.468-1.072.348 1.77"/>
        <path fill="#B5BCC4" d="M323.015 46.323s-5.276 2.327-12.085 3.663c-6.81 1.334-12.44 1.86-12.575 1.172-.135-.688 5.276-2.327 12.086-3.662 6.81-1.335 12.574-1.173 12.574-1.173"/>
        <path fill="#FFBCBC" d="M374.09 69.964l-23.382 4.585a5.377 5.377 0 0 1-6.312-4.237l-1.05-5.343a5.372 5.372 0 0 1 4.241-6.306l23.383-4.584a5.376 5.376 0 0 1 6.312 4.237l1.05 5.343a5.372 5.372 0 0 1-4.241 6.305"/>
        <path fill="#B5BCC4" d="M270.732 56.574s5.765.163 12.574-1.173c6.81-1.334 12.221-2.974 12.086-3.662-.135-.688-5.765-.162-12.575 1.173s-12.085 3.662-12.085 3.662"/>
        <path fill="#FF7D84" d="M414.958 28.295l2.304-.452.984 5.009-2.304.451-.984-5.008"/>
        <path fill="#B5BCC4" d="M379.722 52.241c6.093-6.542 37.866-12.444 37.866-12.444l47.309-11.592-1.242-6.318-47.747 9.361s-30.554 6.207-39.764 2.776l3.578 18.217"/>
        <path fill="#FFBCBC" d="M466.879 30.868l5.955-1.168a4.395 4.395 0 0 0 3.47-5.159l-.741-3.77a4.399 4.399 0 0 0-5.164-3.466l-5.955 1.168a4.394 4.394 0 0 0-3.469 5.158l.74 3.77a4.399 4.399 0 0 0 5.164 3.467"/>
        <path fill="#FF7D84" d="M463.61 12.78l4.839-.95 1.108 5.64-4.839.95-1.108-5.64"/>
        <path fill="#B5BCC4" d="M460.36 13.803l11.486-2.252-.73-3.718-11.487 2.252.73 3.718"/>
        <path fill="#B5BCC4" d="M410.703 21.544s12.109.34 26.412-2.464c14.303-2.804 25.668-6.247 25.384-7.691-.283-1.445-12.108-.342-26.411 2.462-14.303 2.805-25.385 7.693-25.385 7.693M520.52.013s-11.081 4.888-25.385 7.692c-14.302 2.804-26.128 3.907-26.411 2.463-.284-1.444 11.08-4.888 25.384-7.692C508.412-.328 520.52.013 520.52.013M413.41 28.782l5.469-1.073-.348-1.77-5.469 1.073.348 1.77"/>
        <path fill="#B5BCC4" d="M389.77 32.467s5.764.162 12.574-1.172c6.81-1.336 12.22-2.975 12.085-3.663-.135-.687-5.765-.162-12.574 1.173-6.81 1.335-12.086 3.662-12.086 3.662M442.052 22.216s-5.275 2.328-12.085 3.662c-6.81 1.336-12.44 1.86-12.574 1.173-.136-.687 5.275-2.327 12.085-3.662 6.81-1.335 12.574-1.173 12.574-1.173M372.853 62.984l-22.777 4.466c-4.755.932-9.41-2.192-10.343-6.942l-3.564-18.14c-.933-4.751 2.194-9.401 6.95-10.334l22.777-4.465c4.756-.933 9.41 2.192 10.343 6.943l3.563 18.14c.934 4.75-2.194 9.4-6.95 10.332"/>
        <path fill="#EB595E" d="M374.713 38.651c2.046 10.417-4 20.374-13.508 22.238-9.509 1.865-18.873-5.072-20.92-15.488-2.045-10.416 4-20.374 13.509-22.238 9.508-1.864 18.873 5.072 20.919 15.488"/>
        <path fill="#FFBCBC" d="M374.713 38.651c2.046 10.417-4 20.374-13.508 22.238l-7.411-37.726c9.508-1.864 18.873 5.072 20.919 15.488"/>
        <path fill="#B5BCC4" d="M392.117 87.732l-3.722.73-3.664-18.653-41.934 8.222 3.665 18.652-3.723.73-4.394-22.37 49.377-9.682 4.395 22.371"/>
        <path fill="#FFBCBC" d="M349.042 98.552l-8.346 1.636-.681-3.47 8.346-1.636.681 3.47M394.807 89.007l-8.346 1.636-.682-3.47 8.346-1.637.682 3.47M350.358 32.714c0 1.183-.96 2.141-2.143 2.141a2.142 2.142 0 1 1 2.143-2.14M352.141 42.33a4.446 4.446 0 0 1-4.448 4.444 4.446 4.446 0 0 1-4.448-4.443 4.446 4.446 0 0 1 4.448-4.444 4.446 4.446 0 0 1 4.448 4.444"/>
        <path fill="#CED3D9" d="M215.932 132.314l17.245 10.52 1.17-1.913 2.185 1.333 15.953-26.1a1.577 1.577 0 0 1 2.026-2.366 1.577 1.577 0 0 1-1.18 2.881l-15.953 26.101 2.185 1.333-1.17 1.914 1.182.72a6.217 6.217 0 0 1 2.07 8.552l-9.021 14.76a6.23 6.23 0 0 1-8.56 2.067l-23.644-14.424a6.218 6.218 0 0 1-2.07-8.551l9.021-14.76a6.232 6.232 0 0 1 8.56-2.067"/>
        <path fill="#FCF9EE" d="M253.692 111.864a3.253 3.253 0 0 0-2.796 1.566 3.245 3.245 0 0 0-.388 2.472 3.27 3.27 0 0 0 3.178 2.502 3.253 3.253 0 0 0 2.795-1.567 3.24 3.24 0 0 0 .388-2.471 3.246 3.246 0 0 0-1.475-2.022 3.27 3.27 0 0 0-1.702-.48zm-.007 6.893a3.617 3.617 0 0 1-1.886-.531 3.596 3.596 0 0 1-1.635-2.24 3.595 3.595 0 0 1 .43-2.74 3.605 3.605 0 0 1 3.098-1.736c.664 0 1.317.184 1.887.532a3.598 3.598 0 0 1 1.635 2.24c.228.94.075 1.914-.43 2.74a3.604 3.604 0 0 1-3.099 1.735z"/>
        <path fill="#FCF9EE" d="M253.693 110.507c-1.63 0-3.109.829-3.956 2.216a4.59 4.59 0 0 0-.549 3.498 4.595 4.595 0 0 0 2.087 2.861c.728.444 1.561.679 2.409.679 1.63 0 3.108-.829 3.957-2.216a4.59 4.59 0 0 0 .548-3.499 4.6 4.6 0 0 0-2.087-2.86 4.628 4.628 0 0 0-2.409-.679zm-.01 9.608c-.912 0-1.81-.253-2.592-.731a4.949 4.949 0 0 1-2.248-3.08 4.945 4.945 0 0 1 .591-3.766 4.956 4.956 0 0 1 4.26-2.385c.913 0 1.809.252 2.593.73a4.949 4.949 0 0 1 2.247 3.08 4.945 4.945 0 0 1-.591 3.766 4.955 4.955 0 0 1-4.26 2.386z"/>
        <path fill="#FCF9EE" d="M253.694 109.115a5.986 5.986 0 0 0-5.146 2.883 5.973 5.973 0 0 0-.715 4.55 5.979 5.979 0 0 0 2.717 3.722c.946.578 2.03.883 3.132.883a5.99 5.99 0 0 0 5.148-2.883 5.972 5.972 0 0 0 .714-4.55 5.98 5.98 0 0 0-2.716-3.722 6.01 6.01 0 0 0-3.134-.883zm-.012 12.499a6.482 6.482 0 0 1-3.373-.95 6.442 6.442 0 0 1-2.924-4.008 6.432 6.432 0 0 1 .769-4.899 6.446 6.446 0 0 1 5.54-3.103c1.188 0 2.355.328 3.374.95a6.436 6.436 0 0 1 2.924 4.007 6.427 6.427 0 0 1-.769 4.9 6.447 6.447 0 0 1-5.54 3.103z"/>
        <path fill="#FCF9EE" d="M253.697 106.37a8.717 8.717 0 0 0-7.493 4.198c-2.52 4.122-1.213 9.525 2.914 12.044a8.76 8.76 0 0 0 4.562 1.285 8.719 8.719 0 0 0 7.494-4.197c2.52-4.123 1.213-9.526-2.915-12.044a8.757 8.757 0 0 0-4.562-1.285zm-.017 17.987a9.22 9.22 0 0 1-4.802-1.353c-4.344-2.65-5.72-8.336-3.068-12.677a9.177 9.177 0 0 1 7.887-4.417 9.22 9.22 0 0 1 4.803 1.353c4.344 2.65 5.72 8.337 3.067 12.677a9.176 9.176 0 0 1-7.887 4.417z"/>
        <path fill="#FCF9EE" d="M253.699 104.38c-3.787 0-7.225 1.924-9.196 5.15-3.093 5.06-1.488 11.692 3.576 14.782a10.759 10.759 0 0 0 5.599 1.577 10.7 10.7 0 0 0 9.197-5.151c3.093-5.061 1.488-11.692-3.577-14.782a10.75 10.75 0 0 0-5.6-1.577zm-.02 21.97h-.001c-2.056-.001-4.075-.57-5.839-1.645a11.141 11.141 0 0 1-5.06-6.936 11.13 11.13 0 0 1 1.33-8.48c2.056-3.362 5.64-5.37 9.59-5.37 2.056 0 4.075.568 5.84 1.644 5.281 3.223 6.954 10.137 3.73 15.415-2.057 3.363-5.641 5.371-9.59 5.371z"/>
        <path fill="#6B727A" d="M202.082 200.844a4.56 4.56 0 0 0 6.35 1.165l23.35-16.152-5.162-7.506-23.377 16.17a4.55 4.55 0 0 0-1.161 6.323"/>
        <path fill="#F7D29D" d="M223.894 181.11l7.887 4.812 5.133-8.397a5.949 5.949 0 0 0-1.98-8.182l-7.822-4.771-5.172 8.462a5.872 5.872 0 0 0 1.954 8.076M194.12 155.615l-7.633-4.657 5.83-9.539a6.262 6.262 0 0 1 8.604-2.078l7.564 4.615-5.872 9.608a6.182 6.182 0 0 1-8.493 2.051"/>
        <path fill="#474E57" d="M163.412 197.458a4.566 4.566 0 0 0 6.273-1.515l24.59-40.234-7.788-4.75-24.59 40.233a4.555 4.555 0 0 0 1.515 6.266"/>
        <path fill="#FFE4E4" d="M69.323 130.814l-3.074-.07a5.195 5.195 0 0 0 1.648-3.674c.064-2.867-2.23-5.265-5.1-5.33l-32.897-.739c-2.87-.064-5.27 2.228-5.334 5.094a5.19 5.19 0 0 0 1.48 3.745l-16.003-.36c-3.03-.067-5.563 2.352-5.63 5.379-.069 3.025 2.353 5.556 5.382 5.625l59.28 1.332c3.029.068 5.562-2.351 5.63-5.377.069-3.026-2.354-5.558-5.382-5.625"/>
    </g>
</svg>
