<svg xmlns="http://www.w3.org/2000/svg" width="99" height="99" viewBox="0 0 99 99">
    <g fill="none" fill-rule="evenodd">
        <g fill="#FF7D84">
            <path d="M40.4 38h19.2v9.568H40.4zM40.4 73.081h19.2V97H40.4zM90 71.486H70.8V58.73H90zM29.2 71.486H10V58.73h19.2z"/>
        </g>
        <path fill="#1C1E21" d="M95.806 84.534V46h-3.193v37.077a7.683 7.683 0 0 0-2.635-.06 11.11 11.11 0 0 0-10.14-6.502A11.11 11.11 0 0 0 69.7 83.016a7.647 7.647 0 0 0-4.231.567V67.625L49.5 56.918 33.532 67.625V83.58a7.655 7.655 0 0 0-4.231-.564 11.11 11.11 0 0 0-10.14-6.5 11.11 11.11 0 0 0-10.14 6.5 7.683 7.683 0 0 0-2.634.061V46H3.194v38.536A8.108 8.108 0 0 0 0 90.97C0 95.397 3.582 99 7.984 99h83.032C95.418 99 99 95.397 99 90.97a8.106 8.106 0 0 0-3.194-6.436zM49.5 60.78l12.774 8.565V86.15a8.087 8.087 0 0 0-1.597 4.82c0 1.814.625 3.472 1.639 4.818H36.684c1.014-1.346 1.639-3.004 1.639-4.818 0-1.8-.596-3.474-1.597-4.825v-16.8L49.5 60.778zM7.984 95.788c-2.64 0-4.79-2.162-4.79-4.818 0-2.656 2.15-4.818 4.79-4.818.47 0 .964.091 1.516.276l1.55.525.484-1.572c1.039-3.381 4.105-5.654 7.627-5.654 3.523 0 6.589 2.273 7.628 5.655l.484 1.573 1.55-.526c.551-.186 1.046-.277 1.516-.277 2.64 0 4.79 2.162 4.79 4.818 0 2.656-2.15 4.818-4.79 4.818H7.984zm83.032 0H68.661c-2.64 0-4.79-2.162-4.79-4.818 0-2.656 2.15-4.818 4.79-4.818.47 0 .965.091 1.516.276l1.55.525.484-1.572c1.04-3.381 4.105-5.654 7.628-5.654 3.522 0 6.588 2.273 7.627 5.655l.484 1.573 1.55-.526c.552-.186 1.047-.277 1.516-.277 2.64 0 4.79 2.162 4.79 4.818 0 2.656-2.15 4.818-4.79 4.818zM14.564 18.945h70.872l7.57 21.053L96 38.936l-8.325-23.149h-9.067V9.472h-3.179V0h-9.536v9.472h-3.179v6.315h-25.43V9.472h-3.178V0h-9.537v9.472h-3.178v6.315h-9.068L4 38.937 6.994 40l7.57-21.055zM69.072 3.157h3.178v6.315h-3.178V3.157zm-3.18 9.473h9.537v3.157h-9.536V12.63zM27.749 3.157h3.179v6.315h-3.179V3.157zM24.57 12.63h9.537v3.157h-9.537V12.63z"/>
        <path fill="#1C1E21" d="M82.801 56V34.479l2.2 1.776L87 33.731 70 20 53 33.734l1.999 2.523 2.201-1.778V56h25.601zm-16-3.231v-9.695c0-.89.718-1.616 1.6-1.616h3.2c.881 0 1.6.726 1.6 1.616v9.695h-6.4zm12.8-20.874v20.874h-3.2v-9.695c0-2.672-2.154-4.847-4.8-4.847h-3.2c-2.647 0-4.8 2.175-4.8 4.847v9.695h-3.2V31.895l9.6-7.756 9.6 7.756zM41.801 56V34.479l2.2 1.776L46 33.731 29 20 12 33.734l1.999 2.523 2.201-1.778V56h25.601zm-16-3.231v-9.695c0-.89.718-1.616 1.6-1.616h3.2c.881 0 1.6.726 1.6 1.616v9.695h-6.4zm12.8-20.874v20.874h-3.2v-9.695c0-2.672-2.154-4.847-4.8-4.847h-3.2c-2.647 0-4.8 2.175-4.8 4.847v9.695h-3.2V31.895l9.6-7.756 9.6 7.756z"/>
        <path fill="#1C1E21" d="M69 29h3v3h-3zM27 29h3v3h-3z"/>
        <path fill="#FF7D84" d="M95.8 38H83v10h12.8c1.765 0 3.2-1.495 3.2-3.333v-3.334C99 39.495 97.565 38 95.8 38zM3.2 38C1.435 38 0 39.495 0 41.333v3.334C0 46.505 1.435 48 3.2 48H16V38H3.2z"/>
    </g>
</svg>
