<svg xmlns="http://www.w3.org/2000/svg" xmlns:xlink="http://www.w3.org/1999/xlink" width="133" height="35" viewBox="0 0 133 35">
    <defs>
        <path id="a" d="M0 34.777h130.264V.714H0z"/>
    </defs>
    <g fill="none" fill-rule="evenodd" transform="translate(1.402)">
        <path fill="#F2303A" d="M10.351 31.718c2.427-1.827 5.68-2.74 8.934-2.74 4.733 0 9.466 1.933 11.654 5.799h7.632l-2.295-4.053c-4.934-8.715-16.887-9.572-25.925.994M28.96 17.801L19.285.715 0 34.777h7.63c4.281-7.56 11.509-14.295 21.33-16.976"/>
        <path fill="#FFF" d="M51.399 13.454v11.828h-1.47v-2.034c-.626.776-1.328 1.358-2.107 1.751a5.63 5.63 0 0 1-2.554.587c-1.64 0-3.041-.609-4.205-1.822-1.16-1.213-1.743-2.69-1.743-4.43 0-1.703.59-3.157 1.761-4.367 1.172-1.209 2.583-1.818 4.231-1.818.953 0 1.816.208 2.583.62.772.415 1.448 1.035 2.034 1.86v-2.175h1.47zm-5.97 1.165c-.83 0-1.597.208-2.304.623A4.548 4.548 0 0 0 41.448 17a4.887 4.887 0 0 0 .004 4.782 4.66 4.66 0 0 0 1.692 1.778 4.358 4.358 0 0 0 2.273.634c.819 0 1.594-.211 2.325-.63a4.332 4.332 0 0 0 1.689-1.707c.396-.716.592-1.525.592-2.423 0-1.369-.443-2.514-1.327-3.435-.885-.92-1.972-1.38-3.267-1.38zm9.106 10.662h1.492V8.891h-1.492v16.39zm3.024-11.827h1.534l3.551 8.588 3.719-8.588h.269l3.708 8.588 3.612-8.588h1.557l-5.032 11.828h-.287l-3.69-8.467-3.717 8.467h-.277l-4.947-11.828zm31.262 0v11.828h-1.47v-2.034c-.625.776-1.327 1.358-2.106 1.751a5.63 5.63 0 0 1-2.554.587c-1.641 0-3.042-.609-4.206-1.822-1.16-1.213-1.743-2.69-1.743-4.43 0-1.703.59-3.157 1.761-4.367 1.172-1.209 2.583-1.818 4.232-1.818.953 0 1.815.208 2.583.62.77.415 1.447 1.035 2.033 1.86v-2.175h1.47zm-5.97 1.165c-.83 0-1.597.208-2.303.623A4.543 4.543 0 0 0 78.87 17a4.887 4.887 0 0 0 .003 4.782 4.66 4.66 0 0 0 1.692 1.778 4.357 4.357 0 0 0 2.274.634c.819 0 1.593-.211 2.325-.63a4.332 4.332 0 0 0 1.688-1.707c.397-.716.593-1.525.593-2.423 0-1.369-.444-2.514-1.328-3.435-.884-.92-1.972-1.38-3.267-1.38zm8.08-1.165h1.58l3.987 9.112 3.867-9.112h1.59l-6.92 16.153H93.46l2.237-5.216-4.766-10.937zm18.784 1.295l-.96 1.012c-.798-.79-1.576-1.187-2.336-1.187a1.74 1.74 0 0 0-1.24.49c-.346.326-.517.709-.517 1.143 0 .382.141.75.425 1.098.284.353.882.772 1.79 1.25 1.11.586 1.864 1.15 2.26 1.696.393.549.59 1.168.59 1.858 0 .969-.336 1.792-1.005 2.467-.666.672-1.502 1.01-2.503 1.01-.67 0-1.306-.149-1.914-.445a4.235 4.235 0 0 1-1.51-1.228l.939-1.088c.76.876 1.568 1.313 2.419 1.313.597 0 1.107-.192 1.525-.586.418-.39.63-.85.63-1.38 0-.433-.139-.823-.415-1.161-.281-.334-.903-.756-1.878-1.26-1.043-.554-1.753-1.096-2.132-1.634a3.124 3.124 0 0 1-.564-1.836c0-.898.299-1.644.9-2.238.6-.593 1.36-.894 2.277-.894 1.066 0 2.138.534 3.219 1.6z"/>
        <path fill="#F2303A" d="M121.945 20.154h-6.121l-2.39 5.128h-2.514l7.566-16.336h.84l7.47 16.336h-2.45l-2.4-5.128zm-1.02-2.253l-2.023-4.398-2.045 4.398h4.069z"/>
        <mask id="b" fill="#fff">
            <use xlink:href="#a"/>
        </mask>
        <path fill="#F2303A" d="M128.002 25.28h2.262V8.947h-2.262z" mask="url(#b)"/>
    </g>
</svg>
