<svg xmlns="http://www.w3.org/2000/svg" width="99" height="99" viewBox="0 0 99 99">
    <g fill="none" fill-rule="evenodd">
        <g fill="#FF7D84" transform="translate(1.594 15.936)">
            <path d="M41.438 36.664H25.503a3.186 3.186 0 0 1-3.187-3.187v-3.188a3.186 3.186 0 0 1 3.187-3.187h15.935a3.186 3.186 0 0 1 3.187 3.187v3.188a3.186 3.186 0 0 1-3.187 3.187z"/>
            <ellipse cx="12.754" cy="11.167" rx="12.748" ry="11.155"/>
        </g>
        <g fill="#FF7D84">
            <path d="M98.807 17.54h-3.188C95.62 9.635 89.185 3.2 81.277 3.2c-7.907 0-14.342 6.435-14.342 14.342h-3.187c0-9.665 7.864-17.53 17.53-17.53 9.664 0 17.529 7.865 17.529 17.53z"/>
            <path d="M92.432 17.54h-3.187c0-4.393-3.574-7.967-7.968-7.967-4.393 0-7.967 3.574-7.967 7.968h-3.188c0-6.151 5.004-11.155 11.155-11.155 6.152 0 11.155 5.004 11.155 11.155z"/>
        </g>
        <path fill="#3F3A34" fill-rule="nonzero" d="M38.251 65.348a4.787 4.787 0 0 0-4.78 4.78 4.787 4.787 0 0 0 4.78 4.781 4.787 4.787 0 0 0 4.78-4.78 4.787 4.787 0 0 0-4.78-4.781zm0 6.374a1.596 1.596 0 0 1-1.593-1.594c0-.878.715-1.593 1.593-1.593s1.594.715 1.594 1.593c0 .879-.716 1.594-1.594 1.594zM76.497 65.348a4.787 4.787 0 0 0-4.781 4.78 4.787 4.787 0 0 0 4.78 4.781 4.787 4.787 0 0 0 4.781-4.78 4.787 4.787 0 0 0-4.78-4.781zm0 6.374a1.596 1.596 0 0 1-1.594-1.594c0-.878.716-1.593 1.594-1.593.878 0 1.593.715 1.593 1.593 0 .879-.715 1.594-1.593 1.594zM22.316 46.225v3.187a4.787 4.787 0 0 0 4.78 4.78h15.936a4.787 4.787 0 0 0 4.78-4.78v-3.187a4.787 4.787 0 0 0-4.78-4.78H27.096a4.787 4.787 0 0 0-4.78 4.78zm22.31 0v3.187c0 .878-.716 1.594-1.594 1.594H27.096a1.596 1.596 0 0 1-1.593-1.594v-3.187c0-.878.715-1.594 1.593-1.594h15.936c.878 0 1.593.716 1.593 1.594z"/>
        <path fill="#1C1E21" d="M98.807 58.974a75.037 75.037 0 0 0-12.644-41.758l-.162-.244c-.286-2.365-2.282-4.212-4.724-4.212a4.787 4.787 0 0 0-4.78 4.78c0 2.227 1.536 4.085 3.598 4.616l2.825 7.912a80.984 80.984 0 0 1 4.572 22.5c-3.502-3.884-8.554-6.343-14.182-6.343H51v3.187h22.31c8.786 0 15.935 7.149 15.935 15.936 0 3.488-1.14 6.815-3.187 9.545v-4.765c0-5.273-4.288-9.56-9.561-9.56s-9.562 4.287-9.562 9.56v11.155H47.813V70.128c0-5.273-4.289-9.56-9.562-9.56s-9.561 4.287-9.561 9.56v4.765a15.872 15.872 0 0 1-3.187-9.545c0-2.552.585-4.988 1.737-7.243l-2.838-1.45a18.828 18.828 0 0 0-1.93 6.283L11.16 74.25l-.74-.739a6.06 6.06 0 0 0-4.313-1.788 6.107 6.107 0 0 0-6.102 6.102c0 1.628.634 3.161 1.788 4.314l6.55 6.55a7.31 7.31 0 0 0 5.207 2.157 7.312 7.312 0 0 0 5.208-2.158l7.87-7.87-2.253-2.254-7.87 7.87c-1.578 1.578-4.33 1.578-5.908 0l-6.551-6.55a2.888 2.888 0 0 1-.854-2.06 2.917 2.917 0 0 1 2.915-2.914c.777 0 1.509.303 2.06.854l2.993 2.993 11.273-11.273c.517 4.652 2.74 8.929 6.256 12.08v6.501a6.38 6.38 0 0 0-6.374 6.374 6.38 6.38 0 0 0 6.374 6.375h14.342a4.787 4.787 0 0 0 4.78-4.781V84.47h19.123v1.593a6.38 6.38 0 0 0-6.374 6.374 6.38 6.38 0 0 0 6.374 6.375h14.342a4.787 4.787 0 0 0 4.781-4.781V79.566a19.017 19.017 0 0 0 6.295-12.778c3.67-.71 6.454-3.939 6.454-7.814zM44.625 94.032c0 .878-.715 1.593-1.593 1.593H28.69a3.19 3.19 0 0 1-3.187-3.187 3.19 3.19 0 0 1 3.187-3.187h3.187V70.128a6.38 6.38 0 0 1 6.374-6.374 6.38 6.38 0 0 1 6.374 6.374v23.904zm38.246 0c0 .878-.716 1.593-1.594 1.593H66.935a3.19 3.19 0 0 1-3.187-3.187 3.19 3.19 0 0 1 3.187-3.187h3.187V70.128a6.38 6.38 0 0 1 6.375-6.374 6.38 6.38 0 0 1 6.374 6.374v23.904zm-1.594-78.085c.878 0 1.594.716 1.594 1.594 0 .878-.716 1.593-1.594 1.593a1.596 1.596 0 0 1-1.593-1.593c0-.878.715-1.594 1.593-1.594zM92.338 63.49a18.979 18.979 0 0 0-1.667-6.11h.168c0-9.7-1.654-19.25-4.916-28.385l-2.561-7.172a4.803 4.803 0 0 0 1.35-.97 71.856 71.856 0 0 1 10.907 38.12c0 2.11-1.381 3.884-3.28 4.517z"/>
        <path fill="#1C1E21" d="M11.865 39.647c1.72 2.52 3.952 4.71 6.529 6.337l1.7-2.694c-1.528-.964-2.902-2.172-4.105-3.527 7.138-.73 12.7-6.126 12.7-12.66 0-6.54-5.567-11.936-12.708-12.66 3.603-4.08 8.754-6.463 14.302-6.463 1.08 0 2.147.12 3.202.3a13.644 13.644 0 0 0 .416 3.37c.895 3.579 3.106 7.268 6.227 10.39 2.79 2.788 6.03 4.842 9.243 5.89-.182 4.165-1.707 8.184-4.376 11.393l2.451 2.038a22.318 22.318 0 0 0 5.082-12.746c.446.047.89.087 1.315.087 2.435 0 4.514-.777 6.027-2.29 2.162-2.162 2.822-5.483 1.854-9.352-.895-3.58-3.105-7.269-6.227-10.39-3.122-3.122-6.811-5.332-10.39-6.228-3.87-.967-7.19-.31-9.353 1.855a7.503 7.503 0 0 0-1.77 2.84c-.368-.063-.732-.15-1.103-.193a7.432 7.432 0 0 0-1.697-2.645c-4.308-4.313-12.98-2.39-19.74 4.37C8.22 9.896 5.99 13.7 5.154 17.332 2.01 19.67.007 23.182.007 27.102c0 6.276 5.133 11.495 11.86 12.545zM38.01 4.55c.924-.924 2.245-1.36 3.788-1.36 3.372 0 7.8 2.087 11.446 5.733 5.313 5.313 7.317 12.29 4.373 15.234-2.948 2.942-9.921.94-15.234-4.372-5.315-5.313-7.316-12.29-4.373-15.235zM11.161 22.322a1.596 1.596 0 0 1-1.594-1.594c0-.878.716-1.594 1.594-1.594.878 0 1.593.716 1.593 1.594 0 .878-.715 1.594-1.593 1.594zm2.537-13.4c2.718-2.718 5.881-4.632 8.91-5.388 2.735-.686 4.984-.324 6.324 1.016.09.091.148.214.231.313a22.17 22.17 0 0 0-17.293 9.695c-.904.14-1.777.357-2.614.642.995-2.172 2.521-4.357 4.442-6.277zm-7.285 11.47c-.007.113-.033.221-.033.336 0 2.075 1.337 3.828 3.187 4.488v2.82l-2.72 2.72L9.1 33.01l2.06-2.06 2.061 2.06 2.253-2.254-2.72-2.72v-2.82c1.85-.66 3.187-2.413 3.187-4.488 0-1.22-.473-2.325-1.23-3.171 5.982.166 10.792 4.377 10.792 9.545 0 5.273-5.004 9.562-11.155 9.562S3.193 32.375 3.193 27.102c0-2.613 1.232-4.983 3.22-6.71z"/>
        <path fill="#1C1E21" d="M28.69 11.167a3.99 3.99 0 0 0-3.984 3.984 3.99 3.99 0 0 0 3.984 3.983 3.99 3.99 0 0 0 3.984-3.983 3.99 3.99 0 0 0-3.984-3.984zm0 4.78a.797.797 0 1 1 0-1.594.797.797 0 0 1 0 1.594z"/>
    </g>
</svg>
