<svg xmlns="http://www.w3.org/2000/svg" width="99" height="99" viewBox="0 0 99 99">
    <g fill="none" fill-rule="evenodd">
        <path fill="#FF7D84" d="M64.922 8.39l-2.198-2.215C58.772 2.192 53.516 0 47.927 0 36.387 0 27 9.457 27 21.082V34h1.607c0-3.576 2.879-6.476 6.429-6.476v-1.62h10.276c3.778 0 7.471-1.126 10.617-3.237a10.932 10.932 0 0 0 7.76 3.238h.275v1.619c3.55 0 6.429 2.9 6.429 6.476H72V20.193c0-4.993-2.705-9.491-7.078-11.803zM7 49.913L53.818 97H64c-2.63 0-4.762-2.144-4.762-4.79a4.778 4.778 0 0 1 2.706-4.302l-.01-.035L8.367 34c.027.244.073.482.073.734V45.91c0 1.525-.552 2.906-1.44 4.003z"/>
        <path fill="#1C1E21" d="M59 31.5a1.5 1.5 0 1 1-3 0 1.5 1.5 0 0 1 3 0zM43 31.5a1.5 1.5 0 1 1-3 0 1.5 1.5 0 0 1 3 0zM49.5 46c3.585 0 6.5-2.69 6.5-6h-3.25c0 1.655-1.458 3-3.25 3s-3.25-1.345-3.25-3H43c0 3.31 2.915 6 6.5 6z"/>
        <path fill="#1C1E21" d="M83.444 79.766h3.186V66.909c0-5.397-3.824-10.033-9.094-11.027L61.148 52.79v-3.272a16.025 16.025 0 0 0 4.477-8.352 7.994 7.994 0 0 0 6.671-7.883c0-3.87-2.74-7.107-6.37-7.852v-3.368H62.74v1.499a9.193 9.193 0 0 1-5.245-2.632l-.922-.93-1.088.73a17.223 17.223 0 0 1-9.635 2.936H37.26v-1.603h-3.185v3.368c-3.63.745-6.37 3.981-6.37 7.852a7.994 7.994 0 0 0 6.671 7.883 16.025 16.025 0 0 0 4.477 8.352v3.272l-9.85 1.86-.098.016 2.73 2.748 8.162-1.54c1.354 1.554 4.733 4.658 10.204 4.658 5.47 0 8.85-3.104 10.202-4.658l16.746 3.16c3.764.709 6.496 4.022 6.496 7.875v9.651H73.89V65.34h-3.185v10.497c-4.126-7.218-11.852-12.1-20.704-12.1s-16.578 4.882-20.704 12.1v-3.42l-3.185-3.206v7.35h-9.555v-9.652c0-1.979.724-3.846 2.003-5.3l-2.254-2.269a11.212 11.212 0 0 0-2.935 7.57v12.856h3.186v16.028H7V99h86v-3.206h-9.556V79.766zM69.111 33.283a4.8 4.8 0 0 1-3.185 4.514V28.77a4.796 4.796 0 0 1 3.185 4.512zm-38.222 0a4.8 4.8 0 0 1 3.185-4.513v9.025a4.796 4.796 0 0 1-3.185-4.512zm6.37 4.809v-11.22h8.592c3.655 0 7.205-.969 10.344-2.81a12.292 12.292 0 0 0 6.546 2.733v11.297c0 7.07-5.716 12.822-12.741 12.822-7.025 0-12.74-5.752-12.74-12.822zM50 57.326c-4.513 0-7.153-2.747-7.963-3.744v-1.63A15.736 15.736 0 0 0 50 54.12c2.901 0 5.617-.798 7.963-2.169v1.63c-.806.986-3.459 3.745-7.963 3.745zm0 9.617c10.878 0 19.804 8.493 20.623 19.234h-3.185C66.63 77.204 59.122 70.15 50 70.15c-9.122 0-16.63 7.055-17.438 16.028h-3.185c.819-10.74 9.745-19.234 20.623-19.234zm8.849 28.851H41.15c.549-.947.886-2.032.886-3.205 0-3.504-2.808-6.35-6.278-6.402.792-7.207 6.872-12.833 14.241-12.833s13.45 5.626 14.24 12.833c-3.469.051-6.277 2.898-6.277 6.402 0 1.173.337 2.258.886 3.205zm-39.108 0V79.766h6.37v6.411h-3.185v3.206h12.74c1.757 0 3.186 1.438 3.186 3.206s-1.429 3.205-3.185 3.205H19.74zm41.407-3.205c0-1.768 1.429-3.206 3.185-3.206h12.741v-3.206H73.89v-6.411h6.37v16.028H64.333c-1.756 0-3.185-1.437-3.185-3.205zM10 46.8V35.6c0-3.863-2.869-7.095-6.667-7.838V18H0v48h3.333V54.638C7.131 53.895 10 50.663 10 46.8zM6.667 35.6v11.2c0 2.083-1.398 3.843-3.334 4.505v-20.21c1.936.662 3.334 2.422 3.334 4.505z"/>
        <path fill="#000" fill-rule="nonzero" d="M96 96h3v3h-3zM0 96h3v3H0z"/>
    </g>
</svg>
