<svg xmlns="http://www.w3.org/2000/svg" width="142" height="115" viewBox="0 0 142 115">
    <g fill="none" fill-rule="evenodd" opacity=".504">
        <path fill="#FF7D84" d="M138.791 73.386v38.732h-5.533c-6.111 0-11.066-4.955-11.066-11.066v-16.6c0-6.11 4.955-11.066 11.066-11.066h5.533z"/>
        <path fill="#EB595E" d="M122.192 84.452v16.6H97.371c-4.3 0-8.211-2.493-10.029-6.39L76.298 70.976l15.044-7.016 9.556 20.491h21.294z"/>
        <path fill="#FFBCBC" d="M119.428 32.547c3.876 8.31.28 18.184-8.028 22.06L51.225 82.668a5.534 5.534 0 0 1-7.354-2.678l-11.69-25.073 80.231-37.415 7.016 15.045z"/>
        <path fill="#FF7D84" d="M110.074 12.49l2.338 5.012L32.18 54.917a22.032 22.032 0 0 1-14.533 1.46c-6.324-1.524-11.918-5.812-14.88-12.164l85.25-39.752c8.308-3.876 18.184-.28 22.057 8.028z"/>
        <path fill="#EB595E" d="M32.18 54.917L43.871 79.99l-10.028 4.678a5.531 5.531 0 0 1-7.354-2.678l-9.354-20.057a5.528 5.528 0 0 1 .512-5.555 22.035 22.035 0 0 0 14.533-1.461z"/>
        <path fill="#3D202C" d="M78.143 48.748a2.766 2.766 0 1 0 2.337 5.015 2.766 2.766 0 0 0-2.337-5.015z"/>
        <path fill="#3D202C" d="M13.986 58.136a8.293 8.293 0 0 0 .643 4.966l9.353 20.057a8.293 8.293 0 0 0 11.03 4.016l7.949-3.707a8.3 8.3 0 0 0 9.433 1.707L74.96 74.652l9.875 21.178a13.881 13.881 0 0 0 12.535 7.988h22.333c1.286 6.306 6.875 11.066 13.555 11.066h5.533a2.767 2.767 0 0 0 2.766-2.766V73.386a2.767 2.767 0 0 0-2.766-2.766h-5.533c-6.68 0-12.27 4.76-13.555 11.066H102.66l-7.642-16.388 17.551-8.184c9.677-4.515 13.879-16.06 9.366-25.737l-9.353-20.057c-4.523-9.7-16.034-13.891-25.734-9.366L1.598 41.706a2.766 2.766 0 0 0-1.339 3.677c2.775 5.948 7.684 10.47 13.727 12.753zm18.688 24.025a2.763 2.763 0 0 1-3.677-1.34l-9.354-20.058a2.751 2.751 0 0 1-.252-1.24c3.986.566 7.833.144 11.388-1.064l9.416 20.194-7.52 3.508zm100.584-6.008h2.767v33.198h-2.767c-4.576 0-8.3-3.723-8.3-8.3V84.453c0-4.576 3.724-8.3 8.3-8.3zm-34.867 9.469a2.767 2.767 0 0 0 2.507 1.597h18.528v11.066H97.37a8.329 8.329 0 0 1-7.522-4.793l-9.875-21.178 10.03-4.677 8.387 17.985zM110.23 52.1L50.054 80.16a2.766 2.766 0 0 1-3.676-1.34L35.856 56.255l75.218-35.076 5.847 12.537c3.223 6.912.222 15.159-6.69 18.384zM89.186 6.968c6.927-3.231 15.15-.239 18.38 6.69l1.17 2.506L31.01 52.41c-8.822 4.116-19.194 1.024-24.39-6.941l82.566-38.5z"/>
        <path fill="#3D202C" d="M103.214 37.056L88.173 44.07a2.766 2.766 0 1 0 2.34 5.015l15.04-7.016a2.766 2.766 0 1 0-2.339-5.014z"/>
    </g>
</svg>
