<svg xmlns="http://www.w3.org/2000/svg" width="89" height="23" viewBox="0 0 89 23">
    <g fill="#FF7D84" fill-rule="evenodd">
        <path d="M28.494 18.646l1.108-2.635c1.197.915 2.788 1.39 4.361 1.39 1.162 0 1.895-.457 1.895-1.152-.018-1.94-6.953-.421-7.007-5.289-.018-2.47 2.127-4.373 5.166-4.373 1.805 0 3.61.458 4.898 1.5l-1.037 2.69c-1.18-.768-2.646-1.317-4.04-1.317-.947 0-1.573.457-1.573 1.043.018 1.903 7.007.86 7.079 5.508 0 2.525-2.092 4.3-5.095 4.3-2.198 0-4.218-.531-5.755-1.665M71.018 15.06c-.554.987-1.591 1.664-2.789 1.664-1.77 0-3.2-1.464-3.2-3.275 0-1.812 1.43-3.275 3.2-3.275 1.198 0 2.235.677 2.789 1.665l3.056-1.739c-1.143-2.086-3.342-3.513-5.845-3.513-3.7 0-6.703 3.074-6.703 6.862 0 3.788 3.003 6.862 6.703 6.862 2.52 0 4.702-1.41 5.845-3.514l-3.056-1.738zM40.881.896h3.825v19.158h-3.825zM75.576.896v19.159h3.825v-5.746l4.54 5.746h4.898l-5.773-6.826 5.344-6.367h-4.683L79.4 12.15V.896zM56.075 15.096c-.555.933-1.699 1.628-2.986 1.628-1.77 0-3.2-1.464-3.2-3.275 0-1.812 1.43-3.275 3.2-3.275 1.287 0 2.431.731 2.986 1.683v3.239zm0-8.234v1.555c-.626-1.08-2.181-1.83-3.808-1.83-3.36 0-6.006 3.038-6.006 6.844 0 3.806 2.646 6.88 6.006 6.88 1.627 0 3.182-.75 3.808-1.83v1.555H59.9V6.862h-3.825z"/>
        <g>
            <path d="M4.898 14.587a2.375 2.375 0 0 1-2.377 2.378 2.375 2.375 0 0 1-2.377-2.378 2.375 2.375 0 0 1 2.377-2.378h2.377v2.378zM6.086 14.587a2.375 2.375 0 0 1 2.377-2.378 2.375 2.375 0 0 1 2.377 2.378v5.946a2.375 2.375 0 0 1-2.377 2.378 2.375 2.375 0 0 1-2.377-2.378v-5.946zM8.463 5.038A2.375 2.375 0 0 1 6.086 2.66 2.375 2.375 0 0 1 8.463.28 2.375 2.375 0 0 1 10.84 2.66v2.378H8.463zM8.463 6.245a2.375 2.375 0 0 1 2.377 2.378 2.375 2.375 0 0 1-2.377 2.379h-5.96A2.375 2.375 0 0 1 .126 8.623a2.375 2.375 0 0 1 2.377-2.378h5.96z"/>
            <g>
                <path d="M17.988 8.623a2.375 2.375 0 0 1 2.377-2.378 2.375 2.375 0 0 1 2.377 2.378 2.375 2.375 0 0 1-2.377 2.379h-2.377V8.623zM16.8 8.623a2.375 2.375 0 0 1-2.377 2.379 2.375 2.375 0 0 1-2.377-2.379V2.66A2.375 2.375 0 0 1 14.423.28 2.375 2.375 0 0 1 16.8 2.66v5.963z"/>
            </g>
            <g>
                <path d="M14.423 18.154a2.375 2.375 0 0 1 2.377 2.379 2.375 2.375 0 0 1-2.377 2.378 2.375 2.375 0 0 1-2.377-2.378v-2.379h2.377zM14.423 16.965a2.375 2.375 0 0 1-2.377-2.378 2.375 2.375 0 0 1 2.377-2.378h5.96a2.375 2.375 0 0 1 2.377 2.378 2.375 2.375 0 0 1-2.377 2.378h-5.96z"/>
            </g>
        </g>
    </g>
</svg>
