<svg xmlns="http://www.w3.org/2000/svg" width="78" height="137" viewBox="0 0 78 137">
    <g fill="none" fill-rule="evenodd" opacity=".504">
        <path fill="#FFBCBC" d="M66.6 100.166a7.992 7.992 0 0 1-7.992 7.992H10.656a7.992 7.992 0 0 1-7.992-7.992V36.23a7.992 7.992 0 0 1 7.992-7.992h47.952A7.992 7.992 0 0 1 66.6 36.23v63.936z"/>
        <path fill="#EB595E" d="M50.616 2.664l7.992 25.574H10.656l7.992-25.574zM58.608 108.158l-7.992 25.575H18.648l-7.992-25.575z"/>
        <path fill="#FF7D84" d="M18.648 60.206h31.968V76.19H18.648z"/>
        <circle cx="50.616" cy="44.222" r="3.996" fill="#3D202C"/>
        <circle cx="34.632" cy="44.222" r="3.996" fill="#3D202C"/>
        <circle cx="18.648" cy="44.222" r="3.996" fill="#3D202C"/>
        <path fill="#3D202C" d="M15.984 60.206V76.19a2.664 2.664 0 0 0 2.664 2.664h31.968a2.664 2.664 0 0 0 2.664-2.664V60.206a2.664 2.664 0 0 0-2.664-2.664H18.648a2.664 2.664 0 0 0-2.664 2.664zm5.328 2.664h26.64v10.656h-26.64V62.87zM50.616 89.51H18.648a2.664 2.664 0 1 0 0 5.328h31.968a2.664 2.664 0 1 0 0-5.328z"/>
        <circle cx="2.664" cy="68.198" r="2.664" fill="#3D202C"/>
        <path fill="#3D202C" d="M2.664 58.874a2.664 2.664 0 0 0 2.664-2.664V36.23a5.334 5.334 0 0 1 5.32-5.327h47.967a5.334 5.334 0 0 1 5.321 5.327v63.936a5.334 5.334 0 0 1-5.322 5.328h-.013-47.953a5.334 5.334 0 0 1-5.32-5.328v-19.98a2.664 2.664 0 1 0-5.328 0v19.98c0 5.186 3.723 9.515 8.637 10.462l7.468 23.9a2.664 2.664 0 0 0 2.543 1.869h31.968a2.664 2.664 0 0 0 2.543-1.87l7.468-23.9c4.914-.946 8.637-5.275 8.637-10.46V78.853h5.328a2.664 2.664 0 1 0 0-5.328h-5.328V62.87h5.328a2.664 2.664 0 1 0 0-5.328h-5.328V36.23c0-5.185-3.723-9.515-8.637-10.461l-7.468-23.9A2.664 2.664 0 0 0 50.616 0H18.648a2.664 2.664 0 0 0-2.543 1.87L8.637 25.768C3.723 26.715 0 31.045 0 36.23v19.98a2.664 2.664 0 0 0 2.664 2.664zm45.993 72.195h-28.05l-6.327-20.247h40.704l-6.327 20.247zM20.607 5.328h28.05l6.327 20.246H14.28l6.327-20.246z"/>
    </g>
</svg>
