<svg xmlns="http://www.w3.org/2000/svg" width="118" height="16" viewBox="0 0 118 16">
    <path fill="#FF7D84" fill-rule="evenodd" d="M81.093.306l-2.98.007v15.442H91.78c1.495-.64 2.296-1.748 2.605-3.04h-13.3l.008-12.41zm22.303 3.085h11.402c1.584-.316 2.763-1.728 3.094-3.093H100.3c.329 1.365 1.526 2.777 3.096 3.093zm-36.923-.043c1.584-.465 2.918-1.685 3.243-3.038h-16.73v9.124H66.68v3.202l-10.74.01c-1.685.473-3.108 1.613-3.822 3.12l.869-.015h16.636v-9.35H55.94V3.348h10.533zm34.287 12.403h2.965V9.535h10.794v6.216h2.963V6.428l-16.722-.016v9.34zM29.944 3.381h11.4c1.585-.318 2.763-1.73 3.094-3.095h-17.59c.328 1.365 1.524 2.777 3.096 3.095zM.287.321c.342 1.352 1.5 2.728 3.089 3.076h4.798l.244.098V15.72h2.998V3.495l.27-.098h4.805c1.603-.418 2.736-1.724 3.075-3.076V.292H.286v.03zm29.657 15.432h11.4c1.585-.32 2.763-1.728 3.094-3.095h-17.59c.328 1.367 1.524 2.775 3.096 3.095zm0-6.269h11.4c1.585-.316 2.763-1.728 3.094-3.093h-17.59c.328 1.365 1.524 2.777 3.096 3.093z"/>
</svg>
