<svg xmlns="http://www.w3.org/2000/svg" width="115" height="115" viewBox="0 0 115 115">
    <g fill="none" fill-rule="evenodd" opacity=".504">
        <path fill="#FFBCBC" d="M19.247 99.366h80.016L86.235 82.938c-7.876 5.752-17.163 8.782-26.979 8.782-9.817 0-19.105-3.03-26.98-8.782L19.247 99.366zm83.973 3.823H15.292a1.911 1.911 0 0 1-1.499-3.1l16.651-20.995a1.92 1.92 0 0 1 1.28-.713c.502-.063 1.01.088 1.408.404 7.504 5.962 16.54 9.112 26.124 9.112s18.618-3.15 26.122-9.112a1.902 1.902 0 0 1 1.407-.404c.505.06.965.316 1.28.713l16.651 20.994a1.91 1.91 0 1 1-1.497 3.1z"/>
        <path fill="#FFBCBC" d="M105.13 101.308H9.558a7.646 7.646 0 0 0-7.645 7.646v3.823h110.865v-3.823a7.646 7.646 0 0 0-7.646-7.646"/>
        <path fill="#FF7D84" d="M101.308 45.875c0-24.281-19.683-43.964-43.964-43.964S13.38 21.594 13.38 45.875c0 24.282 19.683 43.964 43.964 43.964s43.964-19.682 43.964-43.964"/>
        <path fill="#EB595E" d="M72.636 45.875c0-8.445-6.847-15.292-15.292-15.292S42.052 37.43 42.052 45.875 48.9 61.167 57.344 61.167s15.292-6.847 15.292-15.292"/>
        <path fill="#FF7D84" d="M57.344 1.911c-24.281 0-43.964 19.683-43.964 43.964 4.018 0 7.531-2.817 8.279-6.764 3.177-16.804 17.97-29.554 35.685-29.554 17.715 0 32.508 12.75 35.687 29.554.747 3.947 4.259 6.764 8.277 6.764 0-24.281-19.683-43.964-43.964-43.964"/>
        <path fill="#EB595E" d="M57.344 1.911c-.963 0-1.917.043-2.867.104 22.941 1.48 41.096 20.544 41.096 43.86s-18.155 42.381-41.096 43.86c.95.062 1.904.104 2.867.104 24.281 0 43.964-19.682 43.964-43.964 0-24.281-19.683-43.964-43.964-43.964"/>
        <path fill="#FFF" fill-rule="nonzero" d="M57.344 1.911c.963 0 1.917.043 2.867.104-22.941 1.48-41.096 20.544-41.096 43.86S37.27 88.256 60.21 89.735c-.95.062-1.904.104-2.867.104-24.281 0-43.964-19.682-43.964-43.964 0-24.281 19.683-43.964 43.964-43.964"/>
        <g fill="#3D202C">
            <path d="M3.823 110.865h107.042v-1.911a5.741 5.741 0 0 0-5.734-5.735H9.557a5.741 5.741 0 0 0-5.734 5.735v1.911zm108.954 3.823H1.91A1.912 1.912 0 0 1 0 112.777v-3.823c0-5.27 4.287-9.558 9.557-9.558h95.574c5.27 0 9.557 4.288 9.557 9.558v3.823a1.911 1.911 0 0 1-1.911 1.911zM57.344 3.823c-23.188 0-42.052 18.864-42.052 42.052s18.864 42.052 42.052 42.052 42.052-18.864 42.052-42.052S80.532 3.823 57.344 3.823m0 87.927c-25.295 0-45.875-20.58-45.875-45.875C11.469 20.581 32.049 0 57.344 0s45.875 20.58 45.875 45.875S82.64 91.75 57.344 91.75"/>
            <path d="M57.344 32.495c-7.378 0-13.38 6.002-13.38 13.38 0 7.378 6.002 13.38 13.38 13.38 7.378 0 13.38-6.002 13.38-13.38 0-7.378-6.002-13.38-13.38-13.38m0 30.583c-9.485 0-17.203-7.718-17.203-17.203 0-9.484 7.718-17.203 17.203-17.203s17.203 7.719 17.203 17.203c0 9.485-7.718 17.203-17.203 17.203"/>
            <path d="M49.698 47.787a1.912 1.912 0 0 1-1.911-1.912c0-5.27 4.287-9.557 9.557-9.557a1.912 1.912 0 0 1 0 3.823 5.741 5.741 0 0 0-5.734 5.734 1.912 1.912 0 0 1-1.912 1.912M17.336 99.396h80.016L84.323 82.97c-7.875 5.752-17.163 8.781-26.978 8.781-9.818 0-19.106-3.03-26.98-8.78l-13.03 16.426zm83.972 3.823H13.381c-.734 0-1.403-.42-1.722-1.08a1.914 1.914 0 0 1 .223-2.02l16.65-20.994a1.92 1.92 0 0 1 1.282-.713c.5-.061 1.009.088 1.406.404 7.505 5.961 16.54 9.111 26.124 9.111 9.585 0 18.618-3.15 26.123-9.111a1.908 1.908 0 0 1 2.687.31l16.651 20.993a1.913 1.913 0 0 1-1.497 3.1zM15.292 108.954H2.152a1.912 1.912 0 0 1 0-3.823h13.14a1.912 1.912 0 0 1 0 3.823M112.536 108.954h-13.14a1.91 1.91 0 1 1 0-3.823h13.14a1.91 1.91 0 1 1 0 3.823"/>
            <path d="M57.344 3.823C34.896 3.823 16.5 21.5 15.349 43.666c2.24-.696 3.984-2.55 4.43-4.91 3.409-18.026 19.207-31.11 37.565-31.11 18.358 0 34.154 13.084 37.564 31.109.447 2.36 2.19 4.215 4.43 4.91C98.185 21.503 79.79 3.824 57.345 3.824m43.964 43.964c-4.974 0-9.244-3.5-10.156-8.321-3.068-16.223-17.287-27.997-33.808-27.997-16.523 0-30.74 11.774-33.808 27.997-.912 4.82-5.182 8.32-10.156 8.32a1.912 1.912 0 0 1-1.911-1.91C11.469 20.58 32.049 0 57.344 0s45.875 20.58 45.875 45.875a1.911 1.911 0 0 1-1.911 1.912"/>
        </g>
    </g>
</svg>
